<svg width="24" height="24" viewBox="0 0 24 24" fill="none" xmlns="http://www.w3.org/2000/svg">
<g clip-path="url(#clip0_335_8866)">
<path d="M11.9999 21L8.3999 17.4H5.9999C5.04512 17.4 4.12945 17.0207 3.45432 16.3456C2.77919 15.6705 2.3999 14.7548 2.3999 13.8V6.6C2.3999 5.64522 2.77919 4.72955 3.45432 4.05442C4.12945 3.37928 5.04512 3 5.9999 3H17.9999C18.9547 3 19.8704 3.37928 20.5455 4.05442C21.2206 4.72955 21.5999 5.64522 21.5999 6.6V13.8C21.5999 14.7548 21.2206 15.6705 20.5455 16.3456C19.8704 17.0207 18.9547 17.4 17.9999 17.4H15.5999L11.9999 21Z" stroke="#7C8493" stroke-width="2" stroke-linecap="round" stroke-linejoin="round"/>
<path d="M7.19995 7.7998H16.8" stroke="#7C8493" stroke-width="2" stroke-linecap="round" stroke-linejoin="round"/>
<path d="M7.19995 12.6001H14.4" stroke="#7C8493" stroke-width="2" stroke-linecap="round" stroke-linejoin="round"/>
</g>
<defs>
<clipPath id="clip0_335_8866">
<rect width="24" height="24" fill="white"/>
</clipPath>
</defs>
</svg>
