<svg width="16" height="16" viewBox="0 0 16 16" fill="none" xmlns="http://www.w3.org/2000/svg">
<g clip-path="url(#clip0_335_6662)">
<path fill-rule="evenodd" clip-rule="evenodd" d="M8.00016 2.66724C8.36835 2.66724 8.66683 2.96571 8.66683 3.3339V12.6672C8.66683 13.0354 8.36835 13.3339 8.00016 13.3339C7.63197 13.3339 7.3335 13.0354 7.3335 12.6672V3.3339C7.3335 2.96571 7.63197 2.66724 8.00016 2.66724Z" fill="#4640DE"/>
<path fill-rule="evenodd" clip-rule="evenodd" d="M2.6665 8.00041C2.6665 7.63222 2.96498 7.33374 3.33317 7.33374H12.6665C13.0347 7.33374 13.3332 7.63222 13.3332 8.00041C13.3332 8.3686 13.0347 8.66707 12.6665 8.66707H3.33317C2.96498 8.66707 2.6665 8.3686 2.6665 8.00041Z" fill="#4640DE"/>
</g>
<defs>
<clipPath id="clip0_335_6662">
<rect width="16" height="16" fill="white" transform="translate(0 0.000488281)"/>
</clipPath>
</defs>
</svg>
