<svg width="24" height="24" viewBox="0 0 24 24" fill="none" xmlns="http://www.w3.org/2000/svg">
<g clip-path="url(#clip0_335_3195)">
<path d="M7 5.00049H13C13.9283 5.00049 14.8185 5.36924 15.4749 6.02561C16.1313 6.68199 16.5 7.57223 16.5 8.50049C16.5 9.42875 16.1313 10.319 15.4749 10.9754C14.8185 11.6317 13.9283 12.0005 13 12.0005H7V5.00049Z" stroke="#7C8493" stroke-width="2" stroke-linecap="round" stroke-linejoin="round"/>
<path d="M13 12.0005H14C14.9283 12.0005 15.8185 12.3692 16.4749 13.0256C17.1313 13.682 17.5 14.5722 17.5 15.5005C17.5 16.4287 17.1313 17.319 16.4749 17.9754C15.8185 18.6317 14.9283 19.0005 14 19.0005H7V12.0005" stroke="#7C8493" stroke-width="2" stroke-linecap="round" stroke-linejoin="round"/>
</g>
<defs>
<clipPath id="clip0_335_3195">
<rect width="24" height="24" fill="white" transform="translate(0 0.000488281)"/>
</clipPath>
</defs>
</svg>
