<svg width="20" height="20" viewBox="0 0 20 20" fill="none" xmlns="http://www.w3.org/2000/svg">
<path fill-rule="evenodd" clip-rule="evenodd" d="M4.29279 4.29333C4.48031 4.10585 4.73462 4.00054 4.99979 4.00054C5.26495 4.00054 5.51926 4.10585 5.70679 4.29333L9.99979 8.58633L14.2928 4.29333C14.385 4.19782 14.4954 4.12163 14.6174 4.06922C14.7394 4.01681 14.8706 3.98923 15.0034 3.98807C15.1362 3.98692 15.2678 4.01222 15.3907 4.0625C15.5136 4.11278 15.6253 4.18704 15.7192 4.28093C15.8131 4.37482 15.8873 4.48647 15.9376 4.60937C15.9879 4.73227 16.0132 4.86395 16.012 4.99673C16.0109 5.12951 15.9833 5.26073 15.9309 5.38273C15.8785 5.50473 15.8023 5.61508 15.7068 5.70733L11.4138 10.0003L15.7068 14.2933C15.8889 14.4819 15.9897 14.7345 15.9875 14.9967C15.9852 15.2589 15.88 15.5097 15.6946 15.6951C15.5092 15.8806 15.2584 15.9857 14.9962 15.988C14.734 15.9903 14.4814 15.8895 14.2928 15.7073L9.99979 11.4143L5.70679 15.7073C5.51818 15.8895 5.26558 15.9903 5.00338 15.988C4.74119 15.9857 4.49038 15.8806 4.30497 15.6951C4.11956 15.5097 4.01439 15.2589 4.01211 14.9967C4.00983 14.7345 4.11063 14.4819 4.29279 14.2933L8.58579 10.0003L4.29279 5.70733C4.10532 5.5198 4 5.26549 4 5.00033C4 4.73516 4.10532 4.48085 4.29279 4.29333Z" fill="#4640DE"/>
</svg>
