<svg width="25" height="24" viewBox="0 0 25 24" fill="none" xmlns="http://www.w3.org/2000/svg">
<g opacity="0.5" clip-path="url(#clip0_335_14648)">
<path d="M18.667 4H6.66699C5.56242 4 4.66699 4.89543 4.66699 6V18C4.66699 19.1046 5.56242 20 6.66699 20H18.667C19.7716 20 20.667 19.1046 20.667 18V6C20.667 4.89543 19.7716 4 18.667 4Z" stroke="#515B6F" stroke-width="2" stroke-linecap="round" stroke-linejoin="round"/>
<path d="M8.66699 11V16" stroke="#515B6F" stroke-width="2" stroke-linecap="round" stroke-linejoin="round"/>
<path d="M8.66699 8V8.01" stroke="#515B6F" stroke-width="2" stroke-linecap="round" stroke-linejoin="round"/>
<path d="M12.667 16V11" stroke="#515B6F" stroke-width="2" stroke-linecap="round" stroke-linejoin="round"/>
<path d="M16.667 16V13C16.667 12.4696 16.4563 11.9609 16.0812 11.5858C15.7061 11.2107 15.1974 11 14.667 11C14.1366 11 13.6279 11.2107 13.2528 11.5858C12.8777 11.9609 12.667 12.4696 12.667 13" stroke="#515B6F" stroke-width="2" stroke-linecap="round" stroke-linejoin="round"/>
</g>
<defs>
<clipPath id="clip0_335_14648">
<rect width="24" height="24" fill="white" transform="translate(0.666992)"/>
</clipPath>
</defs>
</svg>
