<svg width="48" height="49" viewBox="0 0 48 49" fill="none" xmlns="http://www.w3.org/2000/svg">
<g clip-path="url(#clip0_335_10155)">
<path d="M30 20.24L39.106 15.688C39.4108 15.5357 39.7496 15.4637 40.09 15.4791C40.4304 15.4944 40.7613 15.5965 41.0512 15.7756C41.3411 15.9547 41.5805 16.2049 41.7465 16.5025C41.9126 16.8001 41.9998 17.1352 42 17.476V31.004C41.9998 31.3448 41.9126 31.6798 41.7465 31.9774C41.5805 32.275 41.3411 32.5253 41.0512 32.7044C40.7613 32.8835 40.4304 32.9856 40.09 33.0009C39.7496 33.0162 39.4108 32.9443 39.106 32.792L30 28.24V20.24Z" stroke="#4640DE" stroke-width="3" stroke-linecap="round" stroke-linejoin="round"/>
<path d="M26 12.24H10C7.79086 12.24 6 14.0309 6 16.24V32.24C6 34.4491 7.79086 36.24 10 36.24H26C28.2091 36.24 30 34.4491 30 32.24V16.24C30 14.0309 28.2091 12.24 26 12.24Z" stroke="#4640DE" stroke-width="3" stroke-linecap="round" stroke-linejoin="round"/>
</g>
<defs>
<clipPath id="clip0_335_10155">
<rect width="48" height="48" fill="white" transform="translate(0 0.23999)"/>
</clipPath>
</defs>
</svg>
