<svg width="20" height="21" viewBox="0 0 20 21" fill="none" xmlns="http://www.w3.org/2000/svg">
<path d="M8.60417 4.0975C8.95917 2.63417 11.0408 2.63417 11.3958 4.0975C11.4491 4.31733 11.5535 4.52148 11.7006 4.69333C11.8477 4.86518 12.0332 4.99988 12.2422 5.08645C12.4512 5.17303 12.6776 5.20904 12.9032 5.19156C13.1287 5.17407 13.3469 5.10359 13.54 4.98583C14.8258 4.2025 16.2983 5.67417 15.515 6.96083C15.3974 7.15388 15.327 7.37195 15.3096 7.59731C15.2922 7.82267 15.3281 8.04897 15.4146 8.25782C15.5011 8.46666 15.6356 8.65215 15.8073 8.79921C15.9789 8.94627 16.1829 9.05075 16.4025 9.10417C17.8658 9.45917 17.8658 11.5408 16.4025 11.8958C16.1827 11.9491 15.9785 12.0535 15.8067 12.2006C15.6348 12.3477 15.5001 12.5332 15.4135 12.7422C15.327 12.9512 15.291 13.1776 15.3084 13.4032C15.3259 13.6287 15.3964 13.8469 15.5142 14.04C16.2975 15.3258 14.8258 16.7983 13.5392 16.015C13.3461 15.8974 13.1281 15.827 12.9027 15.8096C12.6773 15.7922 12.451 15.8281 12.2422 15.9146C12.0333 16.0011 11.8479 16.1356 11.7008 16.3073C11.5537 16.4789 11.4492 16.6829 11.3958 16.9025C11.0408 18.3658 8.95917 18.3658 8.60417 16.9025C8.5509 16.6827 8.44648 16.4785 8.29941 16.3067C8.15233 16.1348 7.96676 16.0001 7.75779 15.9135C7.54882 15.827 7.32236 15.791 7.09685 15.8084C6.87133 15.8259 6.65313 15.8964 6.46 16.0142C5.17417 16.7975 3.70167 15.3258 4.485 14.0392C4.60258 13.8461 4.67296 13.6281 4.6904 13.4027C4.70785 13.1773 4.67187 12.951 4.58539 12.7422C4.49892 12.5333 4.36438 12.3479 4.19273 12.2008C4.02107 12.0537 3.81714 11.9492 3.5975 11.8958C2.13417 11.5408 2.13417 9.45917 3.5975 9.10417C3.81733 9.0509 4.02148 8.94648 4.19333 8.79941C4.36518 8.65233 4.49988 8.46676 4.58645 8.25779C4.67303 8.04882 4.70904 7.82236 4.69156 7.59685C4.67407 7.37133 4.60359 7.15313 4.48583 6.96C3.7025 5.67417 5.17417 4.20167 6.46083 4.985C7.29083 5.49167 8.37417 5.04333 8.60417 4.0975Z" stroke="#4640DE" stroke-width="2" stroke-linecap="round" stroke-linejoin="round"/>
<path d="M12.5 10.5C12.5 11.163 12.2366 11.7989 11.7678 12.2678C11.2989 12.7366 10.663 13 10 13C9.33696 13 8.70107 12.7366 8.23223 12.2678C7.76339 11.7989 7.5 11.163 7.5 10.5C7.5 9.83696 7.76339 9.20107 8.23223 8.73223C8.70107 8.26339 9.33696 8 10 8C10.663 8 11.2989 8.26339 11.7678 8.73223C12.2366 9.20107 12.5 9.83696 12.5 10.5V10.5Z" stroke="#4640DE" stroke-width="2" stroke-linecap="round" stroke-linejoin="round"/>
</svg>
