<svg width="20" height="20" viewBox="0 0 20 20" fill="none" xmlns="http://www.w3.org/2000/svg">
<path d="M18.267 9.66659C16.5836 5.75825 13.417 3.33325 10.0003 3.33325C6.58363 3.33325 3.41697 5.75825 1.73363 9.66659C1.68775 9.77172 1.66406 9.8852 1.66406 9.99992C1.66406 10.1146 1.68775 10.2281 1.73363 10.3333C3.41697 14.2416 6.58363 16.6666 10.0003 16.6666C13.417 16.6666 16.5836 14.2416 18.267 10.3333C18.3129 10.2281 18.3365 10.1146 18.3365 9.99992C18.3365 9.8852 18.3129 9.77172 18.267 9.66659ZM10.0003 14.9999C7.3503 14.9999 4.85863 13.0916 3.41697 9.99992C4.85863 6.90825 7.3503 4.99992 10.0003 4.99992C12.6503 4.99992 15.142 6.90825 16.5836 9.99992C15.142 13.0916 12.6503 14.9999 10.0003 14.9999ZM10.0003 6.66659C9.34103 6.66659 8.69656 6.86208 8.1484 7.22835C7.60024 7.59462 7.17299 8.11522 6.9207 8.72431C6.66841 9.33339 6.6024 10.0036 6.73102 10.6502C6.85963 11.2968 7.1771 11.8908 7.64328 12.3569C8.10945 12.8231 8.7034 13.1406 9.35 13.2692C9.9966 13.3978 10.6668 13.3318 11.2759 13.0795C11.885 12.8272 12.4056 12.4 12.7719 11.8518C13.1381 11.3037 13.3336 10.6592 13.3336 9.99992C13.3336 9.11586 12.9824 8.26802 12.3573 7.6429C11.7322 7.01777 10.8844 6.66659 10.0003 6.66659ZM10.0003 11.6666C9.67066 11.6666 9.34843 11.5688 9.07435 11.3857C8.80027 11.2026 8.58665 10.9423 8.4605 10.6377C8.33435 10.3332 8.30135 9.99807 8.36566 9.67477C8.42997 9.35147 8.5887 9.05449 8.82179 8.82141C9.05488 8.58832 9.35185 8.42958 9.67515 8.36528C9.99845 8.30097 10.3336 8.33397 10.6381 8.46012C10.9426 8.58627 11.2029 8.79989 11.3861 9.07397C11.5692 9.34805 11.667 9.67028 11.667 9.99992C11.667 10.4419 11.4914 10.8659 11.1788 11.1784C10.8663 11.491 10.4423 11.6666 10.0003 11.6666Z" fill="white"/>
</svg>
