<svg width="40" height="41" viewBox="0 0 40 41" fill="none" xmlns="http://www.w3.org/2000/svg">
<g clip-path="url(#clip0_335_8964)">
<path fill-rule="evenodd" clip-rule="evenodd" d="M6.66669 20.5002C6.66669 19.5797 7.41288 18.8335 8.33335 18.8335H31.6667C32.5872 18.8335 33.3334 19.5797 33.3334 20.5002C33.3334 21.4206 32.5872 22.1668 31.6667 22.1668H8.33335C7.41288 22.1668 6.66669 21.4206 6.66669 20.5002Z" fill="#25324B"/>
<path fill-rule="evenodd" clip-rule="evenodd" d="M7.15484 19.3217C7.80572 18.6708 8.86099 18.6708 9.51187 19.3217L19.5119 29.3217C20.1627 29.9725 20.1627 31.0278 19.5119 31.6787C18.861 32.3295 17.8057 32.3295 17.1548 31.6787L7.15484 21.6787C6.50397 21.0278 6.50397 19.9725 7.15484 19.3217Z" fill="#25324B"/>
<path fill-rule="evenodd" clip-rule="evenodd" d="M19.5119 9.32165C20.1627 9.97253 20.1627 11.0278 19.5119 11.6787L9.51187 21.6787C8.86099 22.3295 7.80572 22.3295 7.15484 21.6787C6.50397 21.0278 6.50397 19.9725 7.15484 19.3217L17.1548 9.32165C17.8057 8.67078 18.861 8.67078 19.5119 9.32165Z" fill="#25324B"/>
</g>
<defs>
<clipPath id="clip0_335_8964">
<rect width="40" height="40" fill="white" transform="translate(0 0.5)"/>
</clipPath>
</defs>
</svg>
