<svg width="40" height="41" viewBox="0 0 40 41" fill="none" xmlns="http://www.w3.org/2000/svg">
<g clip-path="url(#clip0_335_12666)">
<path fill-rule="evenodd" clip-rule="evenodd" d="M6.66675 20.5002C6.66675 19.5797 7.41294 18.8335 8.33341 18.8335H31.6667C32.5872 18.8335 33.3334 19.5797 33.3334 20.5002C33.3334 21.4206 32.5872 22.1668 31.6667 22.1668H8.33341C7.41294 22.1668 6.66675 21.4206 6.66675 20.5002Z" fill="#25324B"/>
<path fill-rule="evenodd" clip-rule="evenodd" d="M7.1549 19.3217C7.80578 18.6708 8.86105 18.6708 9.51193 19.3217L19.5119 29.3217C20.1628 29.9725 20.1628 31.0278 19.5119 31.6787C18.8611 32.3295 17.8058 32.3295 17.1549 31.6787L7.1549 21.6787C6.50403 21.0278 6.50403 19.9725 7.1549 19.3217Z" fill="#25324B"/>
<path fill-rule="evenodd" clip-rule="evenodd" d="M19.5119 9.32165C20.1628 9.97253 20.1628 11.0278 19.5119 11.6787L9.51193 21.6787C8.86105 22.3295 7.80578 22.3295 7.1549 21.6787C6.50403 21.0278 6.50403 19.9725 7.1549 19.3217L17.1549 9.32165C17.8058 8.67078 18.8611 8.67078 19.5119 9.32165Z" fill="#25324B"/>
</g>
<defs>
<clipPath id="clip0_335_12666">
<rect width="40" height="40" fill="white" transform="translate(0 0.5)"/>
</clipPath>
</defs>
</svg>
