<svg width="49" height="49" viewBox="0 0 49 49" fill="none" xmlns="http://www.w3.org/2000/svg">
<path d="M43.2716 7.43817C42.5868 6.77082 41.6814 6.41753 40.726 6.4416C38.8382 6.49027 37.3024 8.09044 37.3024 10.0089V18.9077C36.0655 18.4725 34.632 18.7484 33.6446 19.7359L24.8746 28.5058C24.6781 28.7024 24.4981 28.9112 24.3335 29.1294C24.169 28.9111 23.9889 28.7024 23.7924 28.5058L15.0225 19.7358C14.0352 18.7484 12.6016 18.4725 11.3647 18.9076V9.95608C11.3647 8.99982 10.9875 8.10559 10.3026 7.43817C9.61779 6.77082 8.71294 6.41738 7.757 6.4416C5.86925 6.49027 4.33337 8.09044 4.33337 10.0089V23.1512C4.33337 24.35 4.67244 25.519 5.31385 26.5317L11.7735 36.7304C12.3666 37.6667 12.6801 38.7475 12.6801 39.8558V43.0677C12.6801 43.7149 13.2048 44.2396 13.852 44.2396H34.8153C35.4625 44.2396 35.9871 43.7149 35.9871 43.0677V39.8558C35.9871 38.7474 36.3006 37.6667 36.8936 36.7304L43.3533 26.5318C43.9946 25.519 44.3337 24.35 44.3337 23.1512V9.95608C44.3337 8.9999 43.9565 8.10567 43.2716 7.43817ZM13.7535 35.4763L7.29387 25.2775C6.89035 24.6406 6.67714 23.9053 6.67714 23.1512V10.0089C6.67714 9.35006 7.18863 8.80083 7.81739 8.78466C8.13661 8.77693 8.43864 8.89435 8.66685 9.1167C8.89513 9.3392 9.02091 9.63733 9.02091 9.95608V22.2609C9.02091 22.2934 9.02318 22.3254 9.02576 22.3573C9.05841 23.2119 9.39959 24.0567 10.0506 24.7078L14.3251 28.9822C14.7827 29.4399 15.5247 29.4399 15.9824 28.9822C16.44 28.5246 16.44 27.7826 15.9824 27.325L11.7079 23.0505C11.251 22.5935 11.251 21.8501 11.7079 21.3932C12.1649 20.9363 12.9083 20.9363 13.3652 21.3932L22.135 30.163C22.797 30.8252 23.1616 31.7089 23.1616 32.6516V41.8959H15.0238V39.8558C15.0238 38.3027 14.5845 36.7883 13.7535 35.4763ZM41.9899 23.1512C41.9899 23.9053 41.7767 24.6406 41.3731 25.2775L34.9135 35.4763C34.0825 36.7882 33.6433 38.3027 33.6433 39.8558V41.8959H25.5054V32.6516C25.5054 31.7089 25.87 30.8252 26.532 30.163L35.3019 21.3931C35.7589 20.9362 36.5023 20.9362 36.9592 21.3931C37.4139 21.8296 37.4139 22.6141 36.9589 23.0507L32.6847 27.3277C32.2273 27.7855 32.2274 28.5275 32.6852 28.985C33.1429 29.4424 33.8849 29.4423 34.3426 28.9844L38.6165 24.7078C39.2626 24.0616 39.6253 23.208 39.6444 22.2972C39.6447 22.285 39.6462 22.2731 39.6462 22.2609V10.0089C39.6462 9.35006 40.1576 8.80083 40.7864 8.78466C41.104 8.77599 41.4076 8.89435 41.6359 9.1167C41.8642 9.33928 41.9899 9.6374 41.9899 9.95616V23.1512Z" fill="#4640DE" stroke="#4640DE" stroke-width="0.5"/>
<path d="M16.167 14.5705C16.2172 14.6249 16.3897 14.7949 19.6732 17.9966C21.3857 19.6666 23.3253 21.5579 23.4815 21.7154C23.7022 21.9449 24.0071 22.0752 24.3262 22.0752C24.6498 22.0753 24.959 21.9414 25.1803 21.7059C25.3473 21.5339 27.1406 19.7884 28.7235 18.2474C31.4951 15.5494 32.3758 14.6903 32.486 14.5707C32.5113 14.5432 32.5351 14.5148 32.5574 14.4855C36.3455 9.67711 32.8955 4.27855 28.006 4.25535C26.679 4.27582 25.4202 4.73145 24.3144 5.58348C21.4667 3.42847 18.3335 4.12777 16.4792 5.84231C13.9779 8.12741 13.8538 11.9438 16.1327 14.5316C16.1439 14.5448 16.1553 14.5578 16.167 14.5705ZM18.0706 7.56311C19.2639 6.45943 21.403 5.90567 23.5036 7.9771C23.7263 8.19671 24.0288 8.31788 24.3404 8.31444C24.6531 8.31069 24.9515 8.1821 25.1689 7.95725C26.4696 6.61193 28.7184 5.91278 30.582 7.55616C31.7997 8.63015 32.5664 10.6975 30.7421 13.0027C30.4478 13.2982 28.5921 15.1046 27.0887 16.5681C25.7619 17.8597 24.8847 18.714 24.3251 19.2606C23.5269 18.4794 18.4982 13.5802 17.8954 12.9859C16.7031 11.5425 16.2531 9.24383 18.0706 7.56311Z" fill="#4640DE" stroke="#4640DE" stroke-width="0.5"/>
</svg>
