<svg width="49" height="48" viewBox="0 0 49 48" fill="none" xmlns="http://www.w3.org/2000/svg">
<g clip-path="url(#clip0_335_15114)">
<path d="M6.33301 27.9999C7.99301 29.2839 10.487 30.0339 13.333 29.9999C16.179 30.0339 18.673 29.2839 20.333 27.9999C21.993 26.7159 24.487 25.9659 27.333 25.9999C30.179 25.9659 32.673 26.7159 34.333 27.9999" stroke="#4640DE" stroke-width="3" stroke-linecap="round" stroke-linejoin="round"/>
<path d="M16.3321 6C15.6991 6.45434 15.1863 7.05594 14.8378 7.75285C14.4894 8.44975 14.3158 9.22101 14.3321 10C14.3158 10.779 14.4894 11.5502 14.8378 12.2472C15.1863 12.9441 15.6991 13.5457 16.3321 14" stroke="#4640DE" stroke-width="3" stroke-linecap="round" stroke-linejoin="round"/>
<path d="M24.3321 6C23.6991 6.45434 23.1863 7.05594 22.8378 7.75285C22.4894 8.44975 22.3158 9.22101 22.3321 10C22.3158 10.779 22.4894 11.5502 22.8378 12.2472C23.1863 12.9441 23.6991 13.5457 24.3321 14" stroke="#4640DE" stroke-width="3" stroke-linecap="round" stroke-linejoin="round"/>
<path d="M6.33301 20H34.333V30C34.333 33.1826 33.0687 36.2348 30.8183 38.4853C28.5679 40.7357 25.5156 42 22.333 42H18.333C15.1504 42 12.0982 40.7357 9.84773 38.4853C7.59729 36.2348 6.33301 33.1826 6.33301 30V20Z" stroke="#4640DE" stroke-width="3" stroke-linecap="round" stroke-linejoin="round"/>
<path d="M33.8252 33.4519C34.7184 33.8619 35.6986 34.0463 36.6798 33.9887C37.6609 33.9312 38.6129 33.6335 39.452 33.1218C40.2911 32.6102 40.9917 31.9003 41.4922 31.0544C41.9927 30.2086 42.2777 29.2527 42.3223 28.2709C42.3668 27.2891 42.1695 26.3114 41.7476 25.4237C41.3258 24.5361 40.6924 23.7656 39.903 23.1801C39.1136 22.5945 38.1925 22.2119 37.2206 22.0657C36.2488 21.9196 35.2558 22.0144 34.3292 22.3419" stroke="#4640DE" stroke-width="3" stroke-linecap="round" stroke-linejoin="round"/>
</g>
<defs>
<clipPath id="clip0_335_15114">
<rect width="48" height="48" fill="white" transform="translate(0.333008)"/>
</clipPath>
</defs>
</svg>
