<svg width="24" height="24" viewBox="0 0 24 24" fill="none" xmlns="http://www.w3.org/2000/svg">
<path d="M8.4678 8.3947L8.46555 8.39653L8.46341 8.39861L8.4678 8.3947ZM18.4219 8.20817C18.3523 8.14111 18.2751 8.08244 18.1919 8.03336C18.0741 7.96402 17.9433 7.91958 17.8076 7.9028C17.672 7.88601 17.5343 7.89723 17.4031 7.93577C17.272 7.9743 17.1501 8.03933 17.0451 8.12683C16.9401 8.21433 16.8541 8.32245 16.7925 8.4445C16.448 9.12319 15.9729 9.72718 15.3945 10.2218C15.483 9.72344 15.5276 9.21825 15.5278 8.71207C15.5297 7.17217 15.1234 5.65928 14.3505 4.32743C13.5775 2.99558 12.4654 1.89235 11.1274 1.13007C10.98 1.04651 10.8138 1.00178 10.6444 1.00005C10.475 0.998327 10.3079 1.03967 10.1588 1.12021C10.0098 1.20074 9.88362 1.31783 9.7922 1.46048C9.70078 1.60313 9.6471 1.76666 9.6362 1.93574C9.58024 2.88391 9.33236 3.81085 8.90759 4.6604C8.48282 5.50995 7.88999 6.26442 7.16503 6.8781L6.93456 7.0656C6.17648 7.57569 5.50546 8.2045 4.94726 8.9279C4.07958 10.021 3.47851 11.3012 3.19172 12.6671C2.90493 14.0329 2.94031 15.4468 3.29506 16.7966C3.6498 18.1464 4.31415 19.3949 5.23543 20.4433C6.1567 21.4916 7.30956 22.3109 8.60257 22.8361C8.75439 22.8981 8.91914 22.9219 9.08229 22.9052C9.24545 22.8885 9.40198 22.8319 9.5381 22.7404C9.67422 22.6489 9.78573 22.5254 9.8628 22.3806C9.93987 22.2358 9.98013 22.0743 9.98003 21.9103C9.97932 21.8042 9.96252 21.6989 9.93023 21.5978C9.7065 20.7568 9.64208 19.8814 9.74028 19.0168C10.6865 20.8015 12.2054 22.2162 14.0528 23.0334C14.2783 23.1342 14.5332 23.1478 14.7681 23.0715C16.2277 22.6004 17.5425 21.7639 18.5878 20.6415C19.633 19.5191 20.3739 18.1481 20.74 16.6588C21.1061 15.1694 21.0853 13.6112 20.6796 12.1321C20.2739 10.653 19.4967 9.30227 18.4219 8.20817ZM14.5171 21.0392C13.6454 20.5975 12.8765 19.9772 12.2603 19.2187C11.6441 18.4602 11.1944 17.5806 10.9405 16.6369C10.8629 16.3191 10.8029 15.9974 10.7608 15.673C10.7322 15.4665 10.6398 15.274 10.4965 15.1226C10.3532 14.9711 10.1661 14.8682 9.96146 14.8283C9.89841 14.8159 9.8343 14.8096 9.77003 14.8097C9.59427 14.8097 9.42161 14.856 9.26944 14.9439C9.11728 15.0319 8.991 15.1584 8.90333 15.3107C8.0736 16.7419 7.65633 18.3748 7.69776 20.0285C6.968 19.4611 6.35811 18.7545 5.90344 17.9497C5.44876 17.1449 5.15835 16.2578 5.04903 15.3399C4.93971 14.422 5.01366 13.4915 5.26658 12.6024C5.51951 11.7133 5.94639 10.8833 6.52247 10.1603C6.95989 9.59218 7.48756 9.09964 8.08447 8.70235C8.11032 8.68567 8.1351 8.6674 8.15869 8.64766C8.15869 8.64766 8.45538 8.40218 8.46552 8.39656C9.89022 7.19152 10.9035 5.57207 11.3643 3.76387C12.4538 4.7711 13.1804 6.1099 13.431 7.57238C13.6817 9.03485 13.4425 10.5392 12.7505 11.8518C12.6591 12.0269 12.6216 12.2252 12.6427 12.4216C12.6639 12.6181 12.7427 12.8039 12.8693 12.9555C12.9959 13.1072 13.1646 13.218 13.3541 13.2739C13.5436 13.3298 13.7454 13.3284 13.9341 13.2698C15.4659 12.7896 16.8138 11.8517 17.7964 10.5823C18.3869 11.4545 18.773 12.4489 18.9259 13.4911C19.0787 14.5334 18.9944 15.5967 18.6792 16.6018C18.364 17.6069 17.826 18.528 17.1054 19.2963C16.3847 20.0646 15.5 20.6604 14.5171 21.0393L14.5171 21.0392Z" fill="#26A4FF"/>
</svg>
