<svg width="25" height="24" viewBox="0 0 25 24" fill="none" xmlns="http://www.w3.org/2000/svg">
<path d="M21.4843 8.27608L15.5335 7.41124L12.8733 2.01827C12.8007 1.87061 12.6811 1.75108 12.5335 1.67843C12.1632 1.49561 11.7132 1.64796 11.528 2.01827L8.86785 7.41124L2.91707 8.27608C2.75301 8.29952 2.60301 8.37686 2.48817 8.49405C2.34933 8.63675 2.27282 8.82874 2.27546 9.02782C2.27809 9.2269 2.35966 9.4168 2.50223 9.55577L6.8077 13.7534L5.79051 19.6808C5.76666 19.8187 5.78191 19.9605 5.83455 20.0901C5.88719 20.2198 5.97511 20.3321 6.08833 20.4143C6.20155 20.4965 6.33554 20.5454 6.47512 20.5554C6.6147 20.5653 6.75427 20.5359 6.87801 20.4706L12.2007 17.6722L17.5233 20.4706C17.6686 20.548 17.8374 20.5737 17.9991 20.5456C18.4069 20.4753 18.6811 20.0886 18.6108 19.6808L17.5936 13.7534L21.8991 9.55577C22.0163 9.44093 22.0936 9.29093 22.1171 9.12686C22.1804 8.71671 21.8944 8.33702 21.4843 8.27608Z" fill="#FFB836"/>
</svg>
