<svg width="24" height="24" viewBox="0 0 24 24" fill="none" xmlns="http://www.w3.org/2000/svg">
<g clip-path="url(#clip0_335_7851)">
<path d="M7 5.00024H13C13.9283 5.00024 14.8185 5.36899 15.4749 6.02537C16.1313 6.68175 16.5 7.57199 16.5 8.50024C16.5 9.4285 16.1313 10.3187 15.4749 10.9751C14.8185 11.6315 13.9283 12.0002 13 12.0002H7V5.00024Z" stroke="#7C8493" stroke-width="2" stroke-linecap="round" stroke-linejoin="round"/>
<path d="M13 12.0002H14C14.9283 12.0002 15.8185 12.369 16.4749 13.0254C17.1313 13.6817 17.5 14.572 17.5 15.5002C17.5 16.4285 17.1313 17.3187 16.4749 17.9751C15.8185 18.6315 14.9283 19.0002 14 19.0002H7V12.0002" stroke="#7C8493" stroke-width="2" stroke-linecap="round" stroke-linejoin="round"/>
</g>
<defs>
<clipPath id="clip0_335_7851">
<rect width="24" height="24" fill="white" transform="translate(0 0.000244141)"/>
</clipPath>
</defs>
</svg>
