<svg width="24" height="24" viewBox="0 0 24 24" fill="none" xmlns="http://www.w3.org/2000/svg">
<g clip-path="url(#clip0_335_7875)">
<path d="M10 14.0001C10.3259 14.3327 10.7148 14.597 11.1441 14.7773C11.5734 14.9577 12.0344 15.0506 12.5 15.0506C12.9656 15.0506 13.4266 14.9577 13.8559 14.7773C14.2852 14.597 14.6741 14.3327 15 14.0001L19 10.0001C19.663 9.33709 20.0355 8.43782 20.0355 7.50013C20.0355 6.56245 19.663 5.66317 19 5.00013C18.337 4.33709 17.4377 3.9646 16.5 3.9646C15.5623 3.9646 14.663 4.33709 14 5.00013L13.5 5.50013" stroke="#7C8493" stroke-width="2" stroke-linecap="round" stroke-linejoin="round"/>
<path d="M14.0004 10.0002C13.6745 9.66762 13.2855 9.40339 12.8563 9.22301C12.427 9.04262 11.966 8.94971 11.5004 8.94971C11.0347 8.94971 10.5738 9.04262 10.1445 9.22301C9.71523 9.40339 9.32626 9.66762 9.00038 10.0002L5.00038 14.0002C4.33734 14.6633 3.96484 15.5625 3.96484 16.5002C3.96484 17.4379 4.33734 18.3372 5.00038 19.0002C5.66342 19.6633 6.5627 20.0358 7.50038 20.0358C8.43806 20.0358 9.33734 19.6633 10.0004 19.0002L10.5004 18.5002" stroke="#7C8493" stroke-width="2" stroke-linecap="round" stroke-linejoin="round"/>
</g>
<defs>
<clipPath id="clip0_335_7875">
<rect width="24" height="24" fill="white" transform="translate(0 0.000244141)"/>
</clipPath>
</defs>
</svg>
