<svg width="20" height="21" viewBox="0 0 20 21" fill="none" xmlns="http://www.w3.org/2000/svg">
<g clip-path="url(#clip0_335_9915)">
<path fill-rule="evenodd" clip-rule="evenodd" d="M3.23223 6.35235C3.70107 5.88351 4.33696 5.62012 5 5.62012H7.5C7.96024 5.62012 8.33333 5.99321 8.33333 6.45345C8.33333 6.91369 7.96024 7.28678 7.5 7.28678H5C4.77899 7.28678 4.56702 7.37458 4.41074 7.53086C4.25446 7.68714 4.16667 7.8991 4.16667 8.12012V15.6201C4.16667 15.8411 4.25446 16.0531 4.41074 16.2094C4.56702 16.3657 4.77899 16.4535 5 16.4535H12.5C12.721 16.4535 12.933 16.3657 13.0893 16.2094C13.2455 16.0531 13.3333 15.8411 13.3333 15.6201V13.1201C13.3333 12.6599 13.7064 12.2868 14.1667 12.2868C14.6269 12.2868 15 12.6599 15 13.1201V15.6201C15 16.2832 14.7366 16.919 14.2678 17.3879C13.7989 17.8567 13.163 18.1201 12.5 18.1201H5C4.33696 18.1201 3.70107 17.8567 3.23223 17.3879C2.76339 16.919 2.5 16.2832 2.5 15.6201V8.12012C2.5 7.45708 2.76339 6.82119 3.23223 6.35235Z" fill="#4640DE"/>
<path fill-rule="evenodd" clip-rule="evenodd" d="M13.9941 2.94739C14.4819 2.45959 15.1435 2.18555 15.8333 2.18555C16.5232 2.18555 17.1848 2.45959 17.6726 2.94739C18.1604 3.43519 18.4344 4.09679 18.4344 4.78665C18.4344 5.4765 18.1604 6.1381 17.6726 6.6259L10.5893 13.7092C10.433 13.8655 10.221 13.9533 10 13.9533H7.50001C7.03977 13.9533 6.66667 13.5802 6.66667 13.12V10.62C6.66667 10.399 6.75447 10.187 6.91075 10.0307L13.9941 2.94739ZM15.8333 3.85221C15.5855 3.85221 15.3478 3.95066 15.1726 4.1259L8.33334 10.9652V12.2866H9.65483L16.4941 5.44739C16.6693 5.27215 16.7678 5.03447 16.7678 4.78665C16.7678 4.53882 16.6693 4.30114 16.4941 4.1259C16.3188 3.95066 16.0812 3.85221 15.8333 3.85221Z" fill="#4640DE"/>
<path fill-rule="evenodd" clip-rule="evenodd" d="M12.7441 4.19769C13.0695 3.87225 13.5972 3.87225 13.9226 4.19769L16.4226 6.69769C16.748 7.02313 16.748 7.55077 16.4226 7.8762C16.0972 8.20164 15.5695 8.20164 15.2441 7.8762L12.7441 5.3762C12.4186 5.05077 12.4186 4.52313 12.7441 4.19769Z" fill="#25324B"/>
</g>
<defs>
<clipPath id="clip0_335_9915">
<rect width="20" height="20" fill="white" transform="translate(0 0.620117)"/>
</clipPath>
</defs>
</svg>
