<svg width="48" height="48" viewBox="0 0 48 48" fill="none" xmlns="http://www.w3.org/2000/svg">
<g clip-path="url(#clip0_335_785)">
<path d="M4 40.0001C4.45434 40.6331 5.05594 41.1459 5.75285 41.4944C6.44975 41.8428 7.22101 42.0164 8 42.0001C8.77899 42.0164 9.55025 41.8428 10.2472 41.4944C10.9441 41.1459 11.5457 40.6331 12 40.0001C12.4543 39.3671 13.0559 38.8542 13.7528 38.5058C14.4498 38.1573 15.221 37.9838 16 38.0001C16.779 37.9838 17.5502 38.1573 18.2472 38.5058C18.9441 38.8542 19.5457 39.3671 20 40.0001C20.4543 40.6331 21.0559 41.1459 21.7528 41.4944C22.4498 41.8428 23.221 42.0164 24 42.0001C24.779 42.0164 25.5502 41.8428 26.2472 41.4944C26.9441 41.1459 27.5457 40.6331 28 40.0001C28.4543 39.3671 29.0559 38.8542 29.7528 38.5058C30.4498 38.1573 31.221 37.9838 32 38.0001C32.779 37.9838 33.5502 38.1573 34.2472 38.5058C34.9441 38.8542 35.5457 39.3671 36 40.0001C36.4543 40.6331 37.0559 41.1459 37.7528 41.4944C38.4498 41.8428 39.221 42.0164 40 42.0001C40.779 42.0164 41.5502 41.8428 42.2472 41.4944C42.9441 41.1459 43.5457 40.6331 44 40.0001" stroke="#4640DE" stroke-width="3" stroke-linecap="round" stroke-linejoin="round"/>
<path d="M4 32.0001C4.45434 32.6331 5.05594 33.1459 5.75285 33.4944C6.44975 33.8428 7.22101 34.0164 8 34.0001C8.77899 34.0164 9.55025 33.8428 10.2472 33.4944C10.9441 33.1459 11.5457 32.6331 12 32.0001C12.4543 31.3671 13.0559 30.8542 13.7528 30.5058C14.4498 30.1573 15.221 29.9838 16 30.0001C16.779 29.9838 17.5502 30.1573 18.2472 30.5058C18.9441 30.8542 19.5457 31.3671 20 32.0001C20.4543 32.6331 21.0559 33.1459 21.7528 33.4944C22.4498 33.8428 23.221 34.0164 24 34.0001C24.779 34.0164 25.5502 33.8428 26.2472 33.4944C26.9441 33.1459 27.5457 32.6331 28 32.0001C28.4543 31.3671 29.0559 30.8542 29.7528 30.5058C30.4498 30.1573 31.221 29.9838 32 30.0001C32.779 29.9838 33.5502 30.1573 34.2472 30.5058C34.9441 30.8542 35.5457 31.3671 36 32.0001C36.4543 32.6331 37.0559 33.1459 37.7528 33.4944C38.4498 33.8428 39.221 34.0164 40 34.0001C40.779 34.0164 41.5502 33.8428 42.2472 33.4944C42.9441 33.1459 43.5457 32.6331 44 32.0001" stroke="#4640DE" stroke-width="3" stroke-linecap="round" stroke-linejoin="round"/>
<path d="M30 24V9C30 8.20435 30.3161 7.44129 30.8787 6.87868C31.4413 6.31607 32.2044 6 33 6C33.7956 6 34.5587 6.31607 35.1213 6.87868C35.6839 7.44129 36 8.20435 36 9" stroke="#4640DE" stroke-width="3" stroke-linecap="round" stroke-linejoin="round"/>
<path d="M18 24V9C18 8.20435 17.6839 7.44129 17.1213 6.87868C16.5587 6.31607 15.7956 6 15 6C14.2044 6 13.4413 6.31607 12.8787 6.87868C12.3161 7.44129 12 8.20435 12 9" stroke="#4640DE" stroke-width="3" stroke-linecap="round" stroke-linejoin="round"/>
<path d="M30 10H18" stroke="#4640DE" stroke-width="3" stroke-linecap="round" stroke-linejoin="round"/>
<path d="M18 20H30" stroke="#4640DE" stroke-width="3" stroke-linecap="round" stroke-linejoin="round"/>
</g>
<defs>
<clipPath id="clip0_335_785">
<rect width="48" height="48" fill="white"/>
</clipPath>
</defs>
</svg>
