<svg width="20" height="20" viewBox="0 0 20 20" fill="none" xmlns="http://www.w3.org/2000/svg">
<g clip-path="url(#clip0_1_5367)">
<path d="M7.49935 4.16675H5.83268C5.39065 4.16675 4.96673 4.34234 4.65417 4.6549C4.34161 4.96746 4.16602 5.39139 4.16602 5.83341V15.8334C4.16602 16.2754 4.34161 16.6994 4.65417 17.0119C4.96673 17.3245 5.39065 17.5001 5.83268 17.5001H14.166C14.608 17.5001 15.032 17.3245 15.3445 17.0119C15.6571 16.6994 15.8327 16.2754 15.8327 15.8334V5.83341C15.8327 5.39139 15.6571 4.96746 15.3445 4.6549C15.032 4.34234 14.608 4.16675 14.166 4.16675H12.4993" stroke="white" stroke-width="2" stroke-linecap="round" stroke-linejoin="round"/>
<path d="M10.8333 2.5H9.16667C8.24619 2.5 7.5 3.24619 7.5 4.16667C7.5 5.08714 8.24619 5.83333 9.16667 5.83333H10.8333C11.7538 5.83333 12.5 5.08714 12.5 4.16667C12.5 3.24619 11.7538 2.5 10.8333 2.5Z" stroke="white" stroke-width="2" stroke-linecap="round" stroke-linejoin="round"/>
<path d="M7.5 10H7.50833" stroke="white" stroke-width="2" stroke-linecap="round" stroke-linejoin="round"/>
<path d="M10.834 10H12.5007" stroke="white" stroke-width="2" stroke-linecap="round" stroke-linejoin="round"/>
<path d="M7.5 13.3333H7.50833" stroke="white" stroke-width="2" stroke-linecap="round" stroke-linejoin="round"/>
<path d="M10.834 13.3333H12.5007" stroke="white" stroke-width="2" stroke-linecap="round" stroke-linejoin="round"/>
</g>
<defs>
<clipPath id="clip0_1_5367">
<rect width="20" height="20" fill="white"/>
</clipPath>
</defs>
</svg>
