<svg width="40" height="40" viewBox="0 0 40 40" fill="none" xmlns="http://www.w3.org/2000/svg">
<g clip-path="url(#clip0_335_9394)">
<path fill-rule="evenodd" clip-rule="evenodd" d="M6.66699 20.0002C6.66699 19.0797 7.41318 18.3335 8.33366 18.3335H31.667C32.5875 18.3335 33.3337 19.0797 33.3337 20.0002C33.3337 20.9206 32.5875 21.6668 31.667 21.6668H8.33366C7.41318 21.6668 6.66699 20.9206 6.66699 20.0002Z" fill="#25324B"/>
<path fill-rule="evenodd" clip-rule="evenodd" d="M7.15515 18.8217C7.80602 18.1708 8.8613 18.1708 9.51217 18.8217L19.5122 28.8217C20.163 29.4725 20.163 30.5278 19.5122 31.1787C18.8613 31.8295 17.806 31.8295 17.1551 31.1787L7.15515 21.1787C6.50427 20.5278 6.50427 19.4725 7.15515 18.8217Z" fill="#25324B"/>
<path fill-rule="evenodd" clip-rule="evenodd" d="M19.5122 8.82165C20.163 9.47253 20.163 10.5278 19.5122 11.1787L9.51217 21.1787C8.8613 21.8295 7.80602 21.8295 7.15515 21.1787C6.50427 20.5278 6.50427 19.4725 7.15515 18.8217L17.1551 8.82165C17.806 8.17078 18.8613 8.17078 19.5122 8.82165Z" fill="#25324B"/>
</g>
<defs>
<clipPath id="clip0_335_9394">
<rect width="40" height="40" fill="white"/>
</clipPath>
</defs>
</svg>
