<svg width="49" height="48" viewBox="0 0 49 48" fill="none" xmlns="http://www.w3.org/2000/svg">
<g clip-path="url(#clip0_335_15882)">
<path d="M30.667 20L39.773 15.448C40.0778 15.2957 40.4165 15.2238 40.757 15.2391C41.0974 15.2544 41.4283 15.3565 41.7182 15.5356C42.0081 15.7147 42.2475 15.9649 42.4135 16.2625C42.5796 16.5601 42.6668 16.8952 42.667 17.236V30.764C42.6668 31.1048 42.5796 31.4399 42.4135 31.7374C42.2475 32.035 42.0081 32.2853 41.7182 32.4644C41.4283 32.6435 41.0974 32.7456 40.757 32.7609C40.4165 32.7762 40.0778 32.7043 39.773 32.552L30.667 28V20Z" stroke="#4640DE" stroke-width="3" stroke-linecap="round" stroke-linejoin="round"/>
<path d="M26.667 12H10.667C8.45785 12 6.66699 13.7909 6.66699 16V32C6.66699 34.2091 8.45785 36 10.667 36H26.667C28.8761 36 30.667 34.2091 30.667 32V16C30.667 13.7909 28.8761 12 26.667 12Z" stroke="#4640DE" stroke-width="3" stroke-linecap="round" stroke-linejoin="round"/>
</g>
<defs>
<clipPath id="clip0_335_15882">
<rect width="48" height="48" fill="white" transform="translate(0.666992)"/>
</clipPath>
</defs>
</svg>
