<svg width="48" height="49" viewBox="0 0 48 49" fill="none" xmlns="http://www.w3.org/2000/svg">
<g clip-path="url(#clip0_335_10171)">
<path d="M6 28.2399C7.66 29.5239 10.154 30.2739 13 30.2399C15.846 30.2739 18.34 29.5239 20 28.2399C21.66 26.9559 24.154 26.2059 27 26.2399C29.846 26.2059 32.34 26.9559 34 28.2399" stroke="#4640DE" stroke-width="3" stroke-linecap="round" stroke-linejoin="round"/>
<path d="M15.9995 6.23999C15.3665 6.69433 14.8537 7.29593 14.5052 7.99284C14.1568 8.68974 13.9832 9.461 13.9995 10.24C13.9832 11.019 14.1568 11.7902 14.5052 12.4871C14.8537 13.184 15.3665 13.7856 15.9995 14.24" stroke="#4640DE" stroke-width="3" stroke-linecap="round" stroke-linejoin="round"/>
<path d="M23.9995 6.23999C23.3665 6.69433 22.8537 7.29593 22.5052 7.99284C22.1568 8.68974 21.9832 9.461 21.9995 10.24C21.9832 11.019 22.1568 11.7902 22.5052 12.4871C22.8537 13.184 23.3665 13.7856 23.9995 14.24" stroke="#4640DE" stroke-width="3" stroke-linecap="round" stroke-linejoin="round"/>
<path d="M6 20.24H34V30.24C34 33.4226 32.7357 36.4748 30.4853 38.7253C28.2348 40.9757 25.1826 42.24 22 42.24H18C14.8174 42.24 11.7652 40.9757 9.51472 38.7253C7.26428 36.4748 6 33.4226 6 30.24V20.24Z" stroke="#4640DE" stroke-width="3" stroke-linecap="round" stroke-linejoin="round"/>
<path d="M33.4921 33.6919C34.3853 34.1019 35.3656 34.2863 36.3467 34.2287C37.3278 34.1712 38.2798 33.8735 39.1189 33.3618C39.9581 32.8502 40.6587 32.1402 41.1591 31.2944C41.6596 30.4486 41.9446 29.4927 41.9892 28.5109C42.0337 27.5291 41.8364 26.5514 41.4146 25.6637C40.9927 24.776 40.3593 24.0056 39.5699 23.4201C38.7806 22.8345 37.8595 22.4519 36.8876 22.3057C35.9157 22.1596 34.9228 22.2544 33.9961 22.5819" stroke="#4640DE" stroke-width="3" stroke-linecap="round" stroke-linejoin="round"/>
</g>
<defs>
<clipPath id="clip0_335_10171">
<rect width="48" height="48" fill="white" transform="translate(0 0.23999)"/>
</clipPath>
</defs>
</svg>
