<svg width="25" height="24" viewBox="0 0 25 24" fill="none" xmlns="http://www.w3.org/2000/svg">
<g clip-path="url(#clip0_335_10611)">
<path fill-rule="evenodd" clip-rule="evenodd" d="M12.1931 1.00195C12.5737 1.00195 12.9213 1.21805 13.0898 1.55939L15.943 7.34073L22.3225 8.26529C22.6994 8.31992 23.0125 8.58388 23.1302 8.94609C23.2478 9.30831 23.1495 9.70589 22.8766 9.97153L18.2536 14.4715L19.3437 20.8259C19.4081 21.2012 19.2537 21.5805 18.9455 21.8042C18.6373 22.0279 18.2288 22.0572 17.8919 21.8796L12.1995 18.88L6.49342 21.8801C6.1565 22.0572 5.74823 22.0277 5.44027 21.804C5.13232 21.5802 4.9781 21.2011 5.04246 20.8259L6.13249 14.4715L1.50955 9.97153C1.23665 9.70589 1.13833 9.30831 1.25595 8.94609C1.37358 8.58388 1.68673 8.31992 2.06363 8.26529L8.4431 7.34073L11.2963 1.55939C11.4648 1.21805 11.8124 1.00195 12.1931 1.00195ZM12.1931 4.26153L10.0038 8.69751C9.85808 8.99278 9.57635 9.19739 9.25049 9.24461L4.35847 9.9536L7.90457 13.4054C8.1406 13.6351 8.24835 13.9664 8.19266 14.291L7.35626 19.1668L11.7347 16.8648C12.0263 16.7115 12.3748 16.7117 12.6663 16.8653L17.0295 19.1645L16.1935 14.291C16.1378 13.9664 16.2455 13.6351 16.4815 13.4054L20.0277 9.9536L15.1356 9.24461C14.8098 9.19739 14.528 8.99278 14.3823 8.69751L12.1931 4.26153Z" fill="#25324B"/>
</g>
<defs>
<clipPath id="clip0_335_10611">
<rect width="24" height="24" fill="white" transform="translate(0.200195)"/>
</clipPath>
</defs>
</svg>
