<svg width="48" height="48" viewBox="0 0 48 48" fill="none" xmlns="http://www.w3.org/2000/svg">
<g clip-path="url(#clip0_335_800)">
<path d="M30 20L39.106 15.448C39.4108 15.2957 39.7496 15.2238 40.09 15.2391C40.4304 15.2544 40.7613 15.3565 41.0512 15.5356C41.3411 15.7147 41.5805 15.9649 41.7465 16.2625C41.9126 16.5601 41.9998 16.8952 42 17.236V30.764C41.9998 31.1048 41.9126 31.4399 41.7465 31.7374C41.5805 32.035 41.3411 32.2853 41.0512 32.4644C40.7613 32.6435 40.4304 32.7456 40.09 32.7609C39.7496 32.7762 39.4108 32.7043 39.106 32.552L30 28V20Z" stroke="#4640DE" stroke-width="3" stroke-linecap="round" stroke-linejoin="round"/>
<path d="M26 12H10C7.79086 12 6 13.7909 6 16V32C6 34.2091 7.79086 36 10 36H26C28.2091 36 30 34.2091 30 32V16C30 13.7909 28.2091 12 26 12Z" stroke="#4640DE" stroke-width="3" stroke-linecap="round" stroke-linejoin="round"/>
</g>
<defs>
<clipPath id="clip0_335_800">
<rect width="48" height="48" fill="white"/>
</clipPath>
</defs>
</svg>
