<svg width="20" height="21" viewBox="0 0 20 21" fill="none" xmlns="http://www.w3.org/2000/svg">
<g clip-path="url(#clip0_335_9999)">
<path fill-rule="evenodd" clip-rule="evenodd" d="M10 3.57365C6.31812 3.57365 3.33335 6.55842 3.33335 10.2403C3.33335 13.9222 6.31812 16.907 10 16.907C13.6819 16.907 16.6667 13.9222 16.6667 10.2403C16.6667 6.55842 13.6819 3.57365 10 3.57365ZM1.66669 10.2403C1.66669 5.63794 5.39765 1.90698 10 1.90698C14.6024 1.90698 18.3334 5.63794 18.3334 10.2403C18.3334 14.8427 14.6024 18.5737 10 18.5737C5.39765 18.5737 1.66669 14.8427 1.66669 10.2403Z" fill="#56CDAD"/>
<path fill-rule="evenodd" clip-rule="evenodd" d="M13.0893 7.98431C13.4147 8.30975 13.4147 8.83739 13.0893 9.16282L9.75594 12.4962C9.43051 12.8216 8.90287 12.8216 8.57743 12.4962L6.91076 10.8295C6.58533 10.5041 6.58533 9.97642 6.91076 9.65098C7.2362 9.32554 7.76384 9.32554 8.08928 9.65098L9.16669 10.7284L11.9108 7.98431C12.2362 7.65888 12.7638 7.65888 13.0893 7.98431Z" fill="#56CDAD"/>
</g>
<defs>
<clipPath id="clip0_335_9999">
<rect width="20" height="20" fill="white" transform="translate(0 0.240234)"/>
</clipPath>
</defs>
</svg>
