<svg width="49" height="48" viewBox="0 0 49 48" fill="none" xmlns="http://www.w3.org/2000/svg">
<g clip-path="url(#clip0_335_15015)">
<path d="M4.33301 40.0001C4.78735 40.6331 5.38895 41.1459 6.08586 41.4944C6.78276 41.8428 7.55402 42.0164 8.33301 42.0001C9.112 42.0164 9.88325 41.8428 10.5802 41.4944C11.2771 41.1459 11.8787 40.6331 12.333 40.0001C12.7873 39.3671 13.389 38.8542 14.0859 38.5058C14.7828 38.1573 15.554 37.9838 16.333 38.0001C17.112 37.9838 17.8833 38.1573 18.5802 38.5058C19.2771 38.8542 19.8787 39.3671 20.333 40.0001C20.7873 40.6331 21.389 41.1459 22.0859 41.4944C22.7828 41.8428 23.554 42.0164 24.333 42.0001C25.112 42.0164 25.8833 41.8428 26.5802 41.4944C27.2771 41.1459 27.8787 40.6331 28.333 40.0001C28.7873 39.3671 29.389 38.8542 30.0859 38.5058C30.7828 38.1573 31.554 37.9838 32.333 38.0001C33.112 37.9838 33.8833 38.1573 34.5802 38.5058C35.2771 38.8542 35.8787 39.3671 36.333 40.0001C36.7873 40.6331 37.389 41.1459 38.0859 41.4944C38.7828 41.8428 39.554 42.0164 40.333 42.0001C41.112 42.0164 41.8833 41.8428 42.5802 41.4944C43.2771 41.1459 43.8787 40.6331 44.333 40.0001" stroke="#4640DE" stroke-width="3" stroke-linecap="round" stroke-linejoin="round"/>
<path d="M4.33301 32.0001C4.78735 32.6331 5.38895 33.1459 6.08586 33.4944C6.78276 33.8428 7.55402 34.0164 8.33301 34.0001C9.112 34.0164 9.88325 33.8428 10.5802 33.4944C11.2771 33.1459 11.8787 32.6331 12.333 32.0001C12.7873 31.3671 13.389 30.8542 14.0859 30.5058C14.7828 30.1573 15.554 29.9838 16.333 30.0001C17.112 29.9838 17.8833 30.1573 18.5802 30.5058C19.2771 30.8542 19.8787 31.3671 20.333 32.0001C20.7873 32.6331 21.389 33.1459 22.0859 33.4944C22.7828 33.8428 23.554 34.0164 24.333 34.0001C25.112 34.0164 25.8833 33.8428 26.5802 33.4944C27.2771 33.1459 27.8787 32.6331 28.333 32.0001C28.7873 31.3671 29.389 30.8542 30.0859 30.5058C30.7828 30.1573 31.554 29.9838 32.333 30.0001C33.112 29.9838 33.8833 30.1573 34.5802 30.5058C35.2771 30.8542 35.8787 31.3671 36.333 32.0001C36.7873 32.6331 37.389 33.1459 38.0859 33.4944C38.7828 33.8428 39.554 34.0164 40.333 34.0001C41.112 34.0164 41.8833 33.8428 42.5802 33.4944C43.2771 33.1459 43.8787 32.6331 44.333 32.0001" stroke="#4640DE" stroke-width="3" stroke-linecap="round" stroke-linejoin="round"/>
<path d="M30.333 24V9C30.333 8.20435 30.6491 7.44129 31.2117 6.87868C31.7743 6.31607 32.5374 6 33.333 6C34.1287 6 34.8917 6.31607 35.4543 6.87868C36.0169 7.44129 36.333 8.20435 36.333 9" stroke="#4640DE" stroke-width="3" stroke-linecap="round" stroke-linejoin="round"/>
<path d="M18.333 24V9C18.333 8.20435 18.0169 7.44129 17.4543 6.87868C16.8917 6.31607 16.1287 6 15.333 6C14.5374 6 13.7743 6.31607 13.2117 6.87868C12.6491 7.44129 12.333 8.20435 12.333 9" stroke="#4640DE" stroke-width="3" stroke-linecap="round" stroke-linejoin="round"/>
<path d="M30.333 10H18.333" stroke="#4640DE" stroke-width="3" stroke-linecap="round" stroke-linejoin="round"/>
<path d="M18.333 20H30.333" stroke="#4640DE" stroke-width="3" stroke-linecap="round" stroke-linejoin="round"/>
</g>
<defs>
<clipPath id="clip0_335_15015">
<rect width="48" height="48" fill="white" transform="translate(0.333008)"/>
</clipPath>
</defs>
</svg>
