<svg width="24" height="24" viewBox="0 0 24 24" fill="none" xmlns="http://www.w3.org/2000/svg">
<g clip-path="url(#clip0_335_3123)">
<path d="M10 14.0001C10.3259 14.3327 10.7148 14.597 11.1441 14.7773C11.5734 14.9577 12.0344 15.0506 12.5 15.0506C12.9656 15.0506 13.4266 14.9577 13.8559 14.7773C14.2852 14.597 14.6741 14.3327 15 14.0001L19 10.0001C19.663 9.33709 20.0355 8.43782 20.0355 7.50013C20.0355 6.56245 19.663 5.66317 19 5.00013C18.337 4.33709 17.4377 3.9646 16.5 3.9646C15.5623 3.9646 14.663 4.33709 14 5.00013L13.5 5.50013" stroke="#7C8493" stroke-width="2" stroke-linecap="round" stroke-linejoin="round"/>
<path d="M13.9999 10.0002C13.674 9.66762 13.285 9.40339 12.8558 9.22301C12.4265 9.04262 11.9655 8.94971 11.4999 8.94971C11.0343 8.94971 10.5733 9.04262 10.144 9.22301C9.71474 9.40339 9.32577 9.66762 8.99989 10.0002L4.99989 14.0002C4.33685 14.6633 3.96436 15.5625 3.96436 16.5002C3.96436 17.4379 4.33685 18.3372 4.99989 19.0002C5.66293 19.6633 6.56221 20.0358 7.49989 20.0358C8.43757 20.0358 9.33685 19.6633 9.99989 19.0002L10.4999 18.5002" stroke="#7C8493" stroke-width="2" stroke-linecap="round" stroke-linejoin="round"/>
</g>
<defs>
<clipPath id="clip0_335_3123">
<rect width="24" height="24" fill="white" transform="translate(0 0.000244141)"/>
</clipPath>
</defs>
</svg>
