<svg width="48" height="48" viewBox="0 0 48 48" fill="none" xmlns="http://www.w3.org/2000/svg">
<g clip-path="url(#clip0_335_14924)">
<path d="M12 8H10C8.93913 8 7.92172 8.42143 7.17157 9.17157C6.42143 9.92172 6 10.9391 6 12V19C6 21.9174 7.15893 24.7153 9.22183 26.7782C11.2847 28.8411 14.0826 30 17 30C19.9174 30 22.7153 28.8411 24.7782 26.7782C26.8411 24.7153 28 21.9174 28 19V12C28 10.9391 27.5786 9.92172 26.8284 9.17157C26.0783 8.42143 25.0609 8 24 8H22" stroke="#4640DE" stroke-width="3" stroke-linecap="round" stroke-linejoin="round"/>
<path d="M16 30C16 31.5759 16.3104 33.1363 16.9134 34.5922C17.5165 36.0481 18.4004 37.371 19.5147 38.4853C20.629 39.5996 21.9519 40.4835 23.4078 41.0866C24.8637 41.6896 26.4241 42 28 42C29.5759 42 31.1363 41.6896 32.5922 41.0866C34.0481 40.4835 35.371 39.5996 36.4853 38.4853C37.5996 37.371 38.4835 36.0481 39.0866 34.5922C39.6896 33.1363 40 31.5759 40 30V24" stroke="#4640DE" stroke-width="3" stroke-linecap="round" stroke-linejoin="round"/>
<path d="M22 6V10" stroke="#4640DE" stroke-width="3" stroke-linecap="round" stroke-linejoin="round"/>
<path d="M12 6V10" stroke="#4640DE" stroke-width="3" stroke-linecap="round" stroke-linejoin="round"/>
<path d="M40 24C42.2091 24 44 22.2091 44 20C44 17.7909 42.2091 16 40 16C37.7909 16 36 17.7909 36 20C36 22.2091 37.7909 24 40 24Z" stroke="#4640DE" stroke-width="3" stroke-linecap="round" stroke-linejoin="round"/>
</g>
<defs>
<clipPath id="clip0_335_14924">
<rect width="48" height="48" fill="white"/>
</clipPath>
</defs>
</svg>
