<svg width="20" height="21" viewBox="0 0 20 21" fill="none" xmlns="http://www.w3.org/2000/svg">
<path d="M10 12.5C10.5304 12.5 11.0391 12.2893 11.4142 11.9142C11.7893 11.5391 12 11.0304 12 10.5C12 9.96957 11.7893 9.46086 11.4142 9.08579C11.0391 8.71071 10.5304 8.5 10 8.5C9.46957 8.5 8.96086 8.71071 8.58579 9.08579C8.21071 9.46086 8 9.96957 8 10.5C8 11.0304 8.21071 11.5391 8.58579 11.9142C8.96086 12.2893 9.46957 12.5 10 12.5Z" fill="#4640DE"/>
<path fill-rule="evenodd" clip-rule="evenodd" d="M0.458008 10.5C1.73201 6.443 5.52201 3.5 10 3.5C14.478 3.5 18.268 6.443 19.542 10.5C18.268 14.557 14.478 17.5 10 17.5C5.52201 17.5 1.73201 14.557 0.458008 10.5ZM14 10.5C14 11.5609 13.5786 12.5783 12.8284 13.3284C12.0783 14.0786 11.0609 14.5 10 14.5C8.93914 14.5 7.92172 14.0786 7.17158 13.3284C6.42143 12.5783 6.00001 11.5609 6.00001 10.5C6.00001 9.43913 6.42143 8.42172 7.17158 7.67157C7.92172 6.92143 8.93914 6.5 10 6.5C11.0609 6.5 12.0783 6.92143 12.8284 7.67157C13.5786 8.42172 14 9.43913 14 10.5Z" fill="#4640DE"/>
</svg>
