<svg width="41" height="40" viewBox="0 0 41 40" fill="none" xmlns="http://www.w3.org/2000/svg">
<g clip-path="url(#clip0_335_16707)">
<path fill-rule="evenodd" clip-rule="evenodd" d="M7.1665 20.0002C7.1665 19.0797 7.9127 18.3335 8.83317 18.3335H32.1665C33.087 18.3335 33.8332 19.0797 33.8332 20.0002C33.8332 20.9206 33.087 21.6668 32.1665 21.6668H8.83317C7.9127 21.6668 7.1665 20.9206 7.1665 20.0002Z" fill="#25324B"/>
<path fill-rule="evenodd" clip-rule="evenodd" d="M7.65466 18.8217C8.30553 18.1708 9.36081 18.1708 10.0117 18.8217L20.0117 28.8217C20.6626 29.4725 20.6626 30.5278 20.0117 31.1787C19.3608 31.8295 18.3055 31.8295 17.6547 31.1787L7.65466 21.1787C7.00379 20.5278 7.00379 19.4725 7.65466 18.8217Z" fill="#25324B"/>
<path fill-rule="evenodd" clip-rule="evenodd" d="M20.0117 8.82165C20.6626 9.47253 20.6626 10.5278 20.0117 11.1787L10.0117 21.1787C9.36081 21.8295 8.30553 21.8295 7.65466 21.1787C7.00379 20.5278 7.00379 19.4725 7.65466 18.8217L17.6547 8.82165C18.3055 8.17078 19.3608 8.17078 20.0117 8.82165Z" fill="#25324B"/>
</g>
<defs>
<clipPath id="clip0_335_16707">
<rect width="40" height="40" fill="white" transform="translate(0.5)"/>
</clipPath>
</defs>
</svg>
