<svg width="20" height="20" viewBox="0 0 20 20" fill="none" xmlns="http://www.w3.org/2000/svg">
<g clip-path="url(#clip0_335_15225)">
<path fill-rule="evenodd" clip-rule="evenodd" d="M10.0003 3.3335C10.4606 3.3335 10.8337 3.70659 10.8337 4.16683V15.8335C10.8337 16.2937 10.4606 16.6668 10.0003 16.6668C9.54009 16.6668 9.16699 16.2937 9.16699 15.8335V4.16683C9.16699 3.70659 9.54009 3.3335 10.0003 3.3335Z" fill="#4640DE"/>
<path fill-rule="evenodd" clip-rule="evenodd" d="M3.33301 9.99984C3.33301 9.5396 3.7061 9.1665 4.16634 9.1665H15.833C16.2932 9.1665 16.6663 9.5396 16.6663 9.99984C16.6663 10.4601 16.2932 10.8332 15.833 10.8332H4.16634C3.7061 10.8332 3.33301 10.4601 3.33301 9.99984Z" fill="#4640DE"/>
</g>
<defs>
<clipPath id="clip0_335_15225">
<rect width="20" height="20" fill="white"/>
</clipPath>
</defs>
</svg>
