<svg width="41" height="40" viewBox="0 0 41 40" fill="none" xmlns="http://www.w3.org/2000/svg">
<g clip-path="url(#clip0_335_6323)">
<path fill-rule="evenodd" clip-rule="evenodd" d="M7.16675 20.0002C7.16675 19.0797 7.91294 18.3335 8.83341 18.3335H32.1667C33.0872 18.3335 33.8334 19.0797 33.8334 20.0002C33.8334 20.9206 33.0872 21.6668 32.1667 21.6668H8.83341C7.91294 21.6668 7.16675 20.9206 7.16675 20.0002Z" fill="#25324B"/>
<path fill-rule="evenodd" clip-rule="evenodd" d="M7.6549 18.8217C8.30578 18.1708 9.36105 18.1708 10.0119 18.8217L20.0119 28.8217C20.6628 29.4725 20.6628 30.5278 20.0119 31.1787C19.3611 31.8295 18.3058 31.8295 17.6549 31.1787L7.6549 21.1787C7.00403 20.5278 7.00403 19.4725 7.6549 18.8217Z" fill="#25324B"/>
<path fill-rule="evenodd" clip-rule="evenodd" d="M20.0119 8.82165C20.6628 9.47253 20.6628 10.5278 20.0119 11.1787L10.0119 21.1787C9.36105 21.8295 8.30578 21.8295 7.6549 21.1787C7.00403 20.5278 7.00403 19.4725 7.6549 18.8217L17.6549 8.82165C18.3058 8.17078 19.3611 8.17078 20.0119 8.82165Z" fill="#25324B"/>
</g>
<defs>
<clipPath id="clip0_335_6323">
<rect width="40" height="40" fill="white" transform="translate(0.5)"/>
</clipPath>
</defs>
</svg>
