<svg width="20" height="20" viewBox="0 0 20 20" fill="none" xmlns="http://www.w3.org/2000/svg">
<g clip-path="url(#clip0_335_12656)">
<path fill-rule="evenodd" clip-rule="evenodd" d="M10.0003 3.33325C10.4606 3.33325 10.8337 3.70635 10.8337 4.16659V15.8333C10.8337 16.2935 10.4606 16.6666 10.0003 16.6666C9.54009 16.6666 9.16699 16.2935 9.16699 15.8333V4.16659C9.16699 3.70635 9.54009 3.33325 10.0003 3.33325Z" fill="#4640DE"/>
<path fill-rule="evenodd" clip-rule="evenodd" d="M3.33301 10.0001C3.33301 9.53984 3.7061 9.16675 4.16634 9.16675H15.833C16.2932 9.16675 16.6663 9.53984 16.6663 10.0001C16.6663 10.4603 16.2932 10.8334 15.833 10.8334H4.16634C3.7061 10.8334 3.33301 10.4603 3.33301 10.0001Z" fill="#4640DE"/>
</g>
<defs>
<clipPath id="clip0_335_12656">
<rect width="20" height="20" fill="white"/>
</clipPath>
</defs>
</svg>
