<svg width="16" height="16" viewBox="0 0 16 16" fill="none" xmlns="http://www.w3.org/2000/svg">
<g clip-path="url(#clip0_335_763)">
<path fill-rule="evenodd" clip-rule="evenodd" d="M8.00016 2.6665C8.36835 2.6665 8.66683 2.96498 8.66683 3.33317V12.6665C8.66683 13.0347 8.36835 13.3332 8.00016 13.3332C7.63197 13.3332 7.3335 13.0347 7.3335 12.6665V3.33317C7.3335 2.96498 7.63197 2.6665 8.00016 2.6665Z" fill="#4640DE"/>
<path fill-rule="evenodd" clip-rule="evenodd" d="M2.6665 8.00016C2.6665 7.63197 2.96498 7.3335 3.33317 7.3335H12.6665C13.0347 7.3335 13.3332 7.63197 13.3332 8.00016C13.3332 8.36835 13.0347 8.66683 12.6665 8.66683H3.33317C2.96498 8.66683 2.6665 8.36835 2.6665 8.00016Z" fill="#4640DE"/>
</g>
<defs>
<clipPath id="clip0_335_763">
<rect width="16" height="16" fill="white"/>
</clipPath>
</defs>
</svg>
