<svg width="48" height="49" viewBox="0 0 48 49" fill="none" xmlns="http://www.w3.org/2000/svg">
<g clip-path="url(#clip0_335_10143)">
<path d="M4 40.2401C4.45434 40.8731 5.05594 41.3859 5.75285 41.7344C6.44975 42.0828 7.22101 42.2564 8 42.2401C8.77899 42.2564 9.55025 42.0828 10.2472 41.7344C10.9441 41.3859 11.5457 40.8731 12 40.2401C12.4543 39.6071 13.0559 39.0942 13.7528 38.7458C14.4498 38.3973 15.221 38.2237 16 38.2401C16.779 38.2237 17.5502 38.3973 18.2472 38.7458C18.9441 39.0942 19.5457 39.6071 20 40.2401C20.4543 40.8731 21.0559 41.3859 21.7528 41.7344C22.4498 42.0828 23.221 42.2564 24 42.2401C24.779 42.2564 25.5502 42.0828 26.2472 41.7344C26.9441 41.3859 27.5457 40.8731 28 40.2401C28.4543 39.6071 29.0559 39.0942 29.7528 38.7458C30.4498 38.3973 31.221 38.2237 32 38.2401C32.779 38.2237 33.5502 38.3973 34.2472 38.7458C34.9441 39.0942 35.5457 39.6071 36 40.2401C36.4543 40.8731 37.0559 41.3859 37.7528 41.7344C38.4498 42.0828 39.221 42.2564 40 42.2401C40.779 42.2564 41.5502 42.0828 42.2472 41.7344C42.9441 41.3859 43.5457 40.8731 44 40.2401" stroke="#4640DE" stroke-width="3" stroke-linecap="round" stroke-linejoin="round"/>
<path d="M4 32.2401C4.45434 32.8731 5.05594 33.3859 5.75285 33.7344C6.44975 34.0828 7.22101 34.2564 8 34.2401C8.77899 34.2564 9.55025 34.0828 10.2472 33.7344C10.9441 33.3859 11.5457 32.8731 12 32.2401C12.4543 31.6071 13.0559 31.0942 13.7528 30.7458C14.4498 30.3973 15.221 30.2237 16 30.2401C16.779 30.2237 17.5502 30.3973 18.2472 30.7458C18.9441 31.0942 19.5457 31.6071 20 32.2401C20.4543 32.8731 21.0559 33.3859 21.7528 33.7344C22.4498 34.0828 23.221 34.2564 24 34.2401C24.779 34.2564 25.5502 34.0828 26.2472 33.7344C26.9441 33.3859 27.5457 32.8731 28 32.2401C28.4543 31.6071 29.0559 31.0942 29.7528 30.7458C30.4498 30.3973 31.221 30.2237 32 30.2401C32.779 30.2237 33.5502 30.3973 34.2472 30.7458C34.9441 31.0942 35.5457 31.6071 36 32.2401C36.4543 32.8731 37.0559 33.3859 37.7528 33.7344C38.4498 34.0828 39.221 34.2564 40 34.2401C40.779 34.2564 41.5502 34.0828 42.2472 33.7344C42.9441 33.3859 43.5457 32.8731 44 32.2401" stroke="#4640DE" stroke-width="3" stroke-linecap="round" stroke-linejoin="round"/>
<path d="M30 24.24V9.23999C30 8.44434 30.3161 7.68128 30.8787 7.11867C31.4413 6.55606 32.2044 6.23999 33 6.23999C33.7956 6.23999 34.5587 6.55606 35.1213 7.11867C35.6839 7.68128 36 8.44434 36 9.23999" stroke="#4640DE" stroke-width="3" stroke-linecap="round" stroke-linejoin="round"/>
<path d="M18 24.24V9.23999C18 8.44434 17.6839 7.68128 17.1213 7.11867C16.5587 6.55606 15.7956 6.23999 15 6.23999C14.2044 6.23999 13.4413 6.55606 12.8787 7.11867C12.3161 7.68128 12 8.44434 12 9.23999" stroke="#4640DE" stroke-width="3" stroke-linecap="round" stroke-linejoin="round"/>
<path d="M30 10.24H18" stroke="#4640DE" stroke-width="3" stroke-linecap="round" stroke-linejoin="round"/>
<path d="M18 20.24H30" stroke="#4640DE" stroke-width="3" stroke-linecap="round" stroke-linejoin="round"/>
</g>
<defs>
<clipPath id="clip0_335_10143">
<rect width="48" height="48" fill="white" transform="translate(0 0.23999)"/>
</clipPath>
</defs>
</svg>
