<svg width="25" height="24" viewBox="0 0 25 24" fill="none" xmlns="http://www.w3.org/2000/svg">
<path d="M21.4843 8.27584L15.5335 7.411L12.8733 2.01803C12.8007 1.87037 12.6811 1.75084 12.5335 1.67818C12.1632 1.49537 11.7132 1.64771 11.528 2.01803L8.86785 7.411L2.91707 8.27584C2.75301 8.29928 2.60301 8.37662 2.48817 8.49381C2.34933 8.63651 2.27282 8.8285 2.27546 9.02758C2.27809 9.22666 2.35966 9.41655 2.50223 9.55553L6.8077 13.7532L5.79051 19.6805C5.76666 19.8184 5.78191 19.9602 5.83455 20.0899C5.88719 20.2195 5.97511 20.3318 6.08833 20.4141C6.20155 20.4963 6.33554 20.5452 6.47512 20.5551C6.6147 20.5651 6.75427 20.5357 6.87801 20.4704L12.2007 17.6719L17.5233 20.4704C17.6686 20.5477 17.8374 20.5735 17.9991 20.5454C18.4069 20.4751 18.6811 20.0883 18.6108 19.6805L17.5936 13.7532L21.8991 9.55553C22.0163 9.44068 22.0936 9.29068 22.1171 9.12662C22.1804 8.71646 21.8944 8.33678 21.4843 8.27584Z" fill="#FFB836"/>
</svg>
