<svg width="24" height="24" viewBox="0 0 24 24" fill="none" xmlns="http://www.w3.org/2000/svg">
<path d="M21.2841 8.27608L15.3333 7.41124L12.6731 2.01827C12.6005 1.87061 12.4809 1.75108 12.3333 1.67843C11.963 1.49561 11.513 1.64796 11.3278 2.01827L8.66766 7.41124L2.71688 8.27608C2.55282 8.29952 2.40281 8.37686 2.28797 8.49405C2.14913 8.63675 2.07262 8.82874 2.07526 9.02782C2.0779 9.2269 2.15946 9.4168 2.30203 9.55577L6.6075 13.7534L5.59031 19.6808C5.56646 19.8187 5.58172 19.9605 5.63436 20.0901C5.687 20.2198 5.77491 20.3321 5.88813 20.4143C6.00135 20.4965 6.13535 20.5454 6.27492 20.5554C6.4145 20.5653 6.55407 20.5359 6.67781 20.4706L12.0005 17.6722L17.3231 20.4706C17.4684 20.548 17.6372 20.5737 17.7989 20.5456C18.2067 20.4753 18.4809 20.0886 18.4106 19.6808L17.3934 13.7534L21.6989 9.55577C21.8161 9.44093 21.8934 9.29093 21.9169 9.12686C21.9802 8.71671 21.6942 8.33702 21.2841 8.27608Z" fill="#FFB836"/>
</svg>
