<svg width="41" height="40" viewBox="0 0 41 40" fill="none" xmlns="http://www.w3.org/2000/svg">
<circle cx="20.5" cy="20" r="20" fill="white"/>
<path fill-rule="evenodd" clip-rule="evenodd" d="M18.9824 28.2365C19.5004 28.8144 20.1654 29.132 20.8554 29.132H20.8564C21.5494 29.132 22.2174 28.8144 22.7364 28.2355C23.0144 27.928 23.4884 27.9029 23.7954 28.1804C24.1034 28.4579 24.1284 28.9336 23.8514 29.2411C23.0434 30.1396 21.9804 30.6344 20.8564 30.6344H20.8544C19.7334 30.6334 18.6724 30.1386 17.8674 29.2401C17.5904 28.9326 17.6154 28.4569 17.9234 28.1804C18.2314 27.9019 18.7054 27.927 18.9824 28.2365ZM20.9052 9.09912C25.3502 9.09912 28.3362 12.5668 28.3362 15.8051C28.3362 17.4708 28.7592 18.177 29.2082 18.9262C29.6522 19.6654 30.1552 20.5048 30.1552 22.0914C29.8062 26.1451 25.5812 26.4756 20.9052 26.4756C16.2292 26.4756 12.0032 26.1451 11.6582 22.1555C11.6552 20.5048 12.1582 19.6654 12.6022 18.9262L12.759 18.662C13.1449 17.9976 13.4742 17.2749 13.4742 15.8051C13.4742 12.5668 16.4602 9.09912 20.9052 9.09912ZM20.9052 10.6016C17.4102 10.6016 14.9742 13.3441 14.9742 15.8051C14.9742 17.8875 14.3972 18.8501 13.8872 19.6995C13.4782 20.3816 13.1552 20.9205 13.1552 22.0914C13.3222 23.9805 14.5672 24.9731 20.9052 24.9731C27.2082 24.9731 28.4922 23.9364 28.6582 22.0263C28.6552 20.9205 28.3322 20.3816 27.9232 19.6995C27.4132 18.8501 26.8362 17.8875 26.8362 15.8051C26.8362 13.3441 24.4002 10.6016 20.9052 10.6016Z" fill="#25324B"/>
<path d="M26.5 17.5807C28.4338 17.5807 30 16.0107 30 14.0757C30 12.1408 28.4338 10.5708 26.5 10.5708C24.5662 10.5708 23 12.1408 23 14.0757C23 16.0107 24.5662 17.5807 26.5 17.5807Z" fill="#FF6550" stroke="white"/>
</svg>
