<svg width="40" height="40" viewBox="0 0 40 40" fill="none" xmlns="http://www.w3.org/2000/svg">
<circle cx="20" cy="20" r="20" fill="white"/>
<path fill-rule="evenodd" clip-rule="evenodd" d="M18.4824 28.2365C19.0004 28.8144 19.6654 29.132 20.3554 29.132H20.3564C21.0494 29.132 21.7174 28.8144 22.2364 28.2355C22.5144 27.928 22.9884 27.9029 23.2954 28.1804C23.6034 28.4579 23.6284 28.9336 23.3514 29.2411C22.5434 30.1396 21.4804 30.6344 20.3564 30.6344H20.3544C19.2334 30.6334 18.1724 30.1386 17.3674 29.2401C17.0904 28.9326 17.1154 28.4569 17.4234 28.1804C17.7314 27.9019 18.2054 27.927 18.4824 28.2365ZM20.4052 9.09912C24.8502 9.09912 27.8362 12.5668 27.8362 15.8051C27.8362 17.4708 28.2592 18.177 28.7082 18.9262C29.1522 19.6654 29.6552 20.5048 29.6552 22.0914C29.3062 26.1451 25.0812 26.4756 20.4052 26.4756C15.7292 26.4756 11.5032 26.1451 11.1582 22.1555C11.1552 20.5048 11.6582 19.6654 12.1022 18.9262L12.259 18.662C12.6449 17.9976 12.9742 17.2749 12.9742 15.8051C12.9742 12.5668 15.9602 9.09912 20.4052 9.09912ZM20.4052 10.6016C16.9102 10.6016 14.4742 13.3441 14.4742 15.8051C14.4742 17.8875 13.8972 18.8501 13.3872 19.6995C12.9782 20.3816 12.6552 20.9205 12.6552 22.0914C12.8222 23.9805 14.0672 24.9731 20.4052 24.9731C26.7082 24.9731 27.9922 23.9364 28.1582 22.0263C28.1552 20.9205 27.8322 20.3816 27.4232 19.6995C26.9132 18.8501 26.3362 17.8875 26.3362 15.8051C26.3362 13.3441 23.9002 10.6016 20.4052 10.6016Z" fill="#25324B"/>
<path d="M26 17.5807C27.9338 17.5807 29.5 16.0107 29.5 14.0757C29.5 12.1408 27.9338 10.5708 26 10.5708C24.0662 10.5708 22.5 12.1408 22.5 14.0757C22.5 16.0107 24.0662 17.5807 26 17.5807Z" fill="#FF6550" stroke="white"/>
</svg>
