<svg width="41" height="40" viewBox="0 0 41 40" fill="none" xmlns="http://www.w3.org/2000/svg">
<circle cx="20.5" cy="20" r="20" fill="white"/>
<path fill-rule="evenodd" clip-rule="evenodd" d="M18.9829 28.2365C19.5009 28.8144 20.1659 29.132 20.8559 29.132H20.8569C21.5499 29.132 22.2179 28.8144 22.7369 28.2355C23.0149 27.928 23.4889 27.9029 23.7959 28.1804C24.1039 28.4579 24.1289 28.9336 23.8519 29.2411C23.0439 30.1396 21.9809 30.6344 20.8569 30.6344H20.8549C19.7339 30.6334 18.6729 30.1386 17.8679 29.2401C17.5909 28.9326 17.6159 28.4569 17.9239 28.1804C18.2319 27.9019 18.7059 27.927 18.9829 28.2365ZM20.9057 9.09912C25.3507 9.09912 28.3367 12.5668 28.3367 15.8051C28.3367 17.4708 28.7597 18.177 29.2087 18.9262C29.6527 19.6654 30.1557 20.5048 30.1557 22.0914C29.8067 26.1451 25.5817 26.4756 20.9057 26.4756C16.2297 26.4756 12.0037 26.1451 11.6587 22.1555C11.6557 20.5048 12.1587 19.6654 12.6027 18.9262L12.7595 18.662C13.1454 17.9976 13.4747 17.2749 13.4747 15.8051C13.4747 12.5668 16.4607 9.09912 20.9057 9.09912ZM20.9057 10.6016C17.4107 10.6016 14.9747 13.3441 14.9747 15.8051C14.9747 17.8875 14.3977 18.8501 13.8877 19.6995C13.4787 20.3816 13.1557 20.9205 13.1557 22.0914C13.3227 23.9805 14.5677 24.9731 20.9057 24.9731C27.2087 24.9731 28.4927 23.9364 28.6587 22.0263C28.6557 20.9205 28.3327 20.3816 27.9237 19.6995C27.4137 18.8501 26.8367 17.8875 26.8367 15.8051C26.8367 13.3441 24.4007 10.6016 20.9057 10.6016Z" fill="#25324B"/>
<path d="M26.5 17.5807C28.4338 17.5807 30 16.0107 30 14.0757C30 12.1408 28.4338 10.5708 26.5 10.5708C24.5662 10.5708 23 12.1408 23 14.0757C23 16.0107 24.5662 17.5807 26.5 17.5807Z" fill="#FF6550" stroke="white"/>
</svg>
