<svg width="40" height="40" viewBox="0 0 40 40" fill="none" xmlns="http://www.w3.org/2000/svg">
<circle cx="20" cy="20" r="20" fill="white"/>
<path fill-rule="evenodd" clip-rule="evenodd" d="M18.4829 28.2365C19.0009 28.8144 19.6659 29.132 20.3559 29.132H20.3569C21.0499 29.132 21.7179 28.8144 22.2369 28.2355C22.5149 27.928 22.9889 27.9029 23.2959 28.1804C23.6039 28.4579 23.6289 28.9336 23.3519 29.2411C22.5439 30.1396 21.4809 30.6344 20.3569 30.6344H20.3549C19.2339 30.6334 18.1729 30.1386 17.3679 29.2401C17.0909 28.9326 17.1159 28.4569 17.4239 28.1804C17.7319 27.9019 18.2059 27.927 18.4829 28.2365ZM20.4057 9.09912C24.8507 9.09912 27.8367 12.5668 27.8367 15.8051C27.8367 17.4708 28.2597 18.177 28.7087 18.9262C29.1527 19.6654 29.6557 20.5048 29.6557 22.0914C29.3067 26.1451 25.0817 26.4756 20.4057 26.4756C15.7297 26.4756 11.5037 26.1451 11.1587 22.1555C11.1557 20.5048 11.6587 19.6654 12.1027 18.9262L12.2595 18.662C12.6454 17.9976 12.9747 17.2749 12.9747 15.8051C12.9747 12.5668 15.9607 9.09912 20.4057 9.09912ZM20.4057 10.6016C16.9107 10.6016 14.4747 13.3441 14.4747 15.8051C14.4747 17.8875 13.8977 18.8501 13.3877 19.6995C12.9787 20.3816 12.6557 20.9205 12.6557 22.0914C12.8227 23.9805 14.0677 24.9731 20.4057 24.9731C26.7087 24.9731 27.9927 23.9364 28.1587 22.0263C28.1557 20.9205 27.8327 20.3816 27.4237 19.6995C26.9137 18.8501 26.3367 17.8875 26.3367 15.8051C26.3367 13.3441 23.9007 10.6016 20.4057 10.6016Z" fill="#25324B"/>
<path d="M26 17.5807C27.9338 17.5807 29.5 16.0107 29.5 14.0757C29.5 12.1408 27.9338 10.5708 26 10.5708C24.0662 10.5708 22.5 12.1408 22.5 14.0757C22.5 16.0107 24.0662 17.5807 26 17.5807Z" fill="#FF6550" stroke="white"/>
</svg>
