<svg width="41" height="40" viewBox="0 0 41 40" fill="none" xmlns="http://www.w3.org/2000/svg">
<circle cx="20.5" cy="20" r="20" fill="white"/>
<path fill-rule="evenodd" clip-rule="evenodd" d="M18.983 28.2365C19.501 28.8144 20.166 29.132 20.856 29.132H20.857C21.55 29.132 22.218 28.8144 22.737 28.2355C23.015 27.928 23.489 27.9029 23.796 28.1804C24.104 28.4579 24.129 28.9336 23.852 29.2411C23.044 30.1396 21.981 30.6344 20.857 30.6344H20.855C19.734 30.6334 18.673 30.1386 17.868 29.2401C17.591 28.9326 17.616 28.4569 17.924 28.1804C18.232 27.9019 18.706 27.927 18.983 28.2365ZM20.9058 9.09912C25.3508 9.09912 28.3368 12.5668 28.3368 15.8051C28.3368 17.4708 28.7598 18.177 29.2088 18.9262C29.6528 19.6654 30.1558 20.5048 30.1558 22.0914C29.8068 26.1451 25.5818 26.4756 20.9058 26.4756C16.2298 26.4756 12.0038 26.1451 11.6588 22.1555C11.6558 20.5048 12.1588 19.6654 12.6028 18.9262L12.7595 18.662C13.1455 17.9976 13.4748 17.2749 13.4748 15.8051C13.4748 12.5668 16.4608 9.09912 20.9058 9.09912ZM20.9058 10.6016C17.4108 10.6016 14.9748 13.3441 14.9748 15.8051C14.9748 17.8875 14.3978 18.8501 13.8878 19.6995C13.4788 20.3816 13.1558 20.9205 13.1558 22.0914C13.3228 23.9805 14.5678 24.9731 20.9058 24.9731C27.2088 24.9731 28.4928 23.9364 28.6588 22.0263C28.6558 20.9205 28.3328 20.3816 27.9238 19.6995C27.4138 18.8501 26.8368 17.8875 26.8368 15.8051C26.8368 13.3441 24.4008 10.6016 20.9058 10.6016Z" fill="#25324B"/>
<path d="M26.5 17.5807C28.4338 17.5807 30 16.0107 30 14.0757C30 12.1408 28.4338 10.5708 26.5 10.5708C24.5662 10.5708 23 12.1408 23 14.0757C23 16.0107 24.5662 17.5807 26.5 17.5807Z" fill="#FF6550" stroke="white"/>
</svg>
