<svg width="48" height="48" viewBox="0 0 48 48" fill="none" xmlns="http://www.w3.org/2000/svg">
<path d="M42 26.51C36.281 28.8225 30.1688 30.0075 24 30C17.634 30 11.56 28.76 6 26.51M24 24H24.02M32 12V8C32 6.93913 31.5786 5.92172 30.8284 5.17157C30.0783 4.42143 29.0609 4 28 4H20C18.9391 4 17.9217 4.42143 17.1716 5.17157C16.4214 5.92172 16 6.93913 16 8V12H32ZM10 40H38C39.0609 40 40.0783 39.5786 40.8284 38.8284C41.5786 38.0783 42 37.0609 42 36V16C42 14.9391 41.5786 13.9217 40.8284 13.1716C40.0783 12.4214 39.0609 12 38 12H10C8.93913 12 7.92172 12.4214 7.17157 13.1716C6.42143 13.9217 6 14.9391 6 16V36C6 37.0609 6.42143 38.0783 7.17157 38.8284C7.92172 39.5786 8.93913 40 10 40Z" stroke="#4640DE" stroke-width="3" stroke-linecap="round" stroke-linejoin="round"/>
</svg>
