<svg width="32" height="32" viewBox="0 0 32 32" fill="none" xmlns="http://www.w3.org/2000/svg">
<circle opacity="0.1" cx="16" cy="16" r="16" fill="white"/>
<path fill-rule="evenodd" clip-rule="evenodd" d="M13.8788 21C18.4039 21 20.879 17.1522 20.879 13.8158C20.879 13.7062 20.879 13.5975 20.8718 13.4892C21.3532 13.1323 21.7687 12.6892 22.0991 12.1821C21.6506 12.3864 21.174 12.5204 20.6865 12.5795C21.1997 12.2638 21.5841 11.7679 21.7681 11.1827C21.2849 11.4768 20.7566 11.6844 20.2056 11.7958C19.2739 10.7792 17.7156 10.73 16.7244 11.6862C16.0859 12.3028 15.8143 13.2221 16.0127 14.099C14.0347 13.9968 12.1916 13.0381 10.942 11.461C10.2891 12.6148 10.6231 14.0902 11.7041 14.8311C11.3126 14.8194 10.9295 14.7112 10.5871 14.5155V14.5476C10.5877 15.7494 11.4133 16.7842 12.5609 17.0223C12.1988 17.1238 11.8186 17.1385 11.4505 17.0653C11.7725 18.0942 12.6964 18.7989 13.7487 18.8192C12.8775 19.5219 11.8012 19.9035 10.6932 19.9023C10.4978 19.9016 10.3023 19.8899 10.1074 19.866C11.2328 20.6068 12.5417 21 13.8788 20.9982" fill="white"/>
</svg>
