<svg width="118" height="28" viewBox="0 0 118 28" fill="none" xmlns="http://www.w3.org/2000/svg">
<g opacity="0.3" clip-path="url(#clip0_332_16893)">
<path d="M27.9467 26.1392H21.4904L19.5152 21.335H8.75497L6.95548 26.1392H0.605469L10.3068 1.87487H17.2569L27.9467 26.1392ZM13.8703 7.67292L10.3424 17.1007H17.7512L13.8703 7.67292ZM51.3997 1.87487H56.621V26.1392H50.6228V10.983L44.1315 18.5959H43.2146L36.7237 10.983V26.1389H30.7256V1.87487H35.9468L43.6727 10.8759L51.3997 1.87487ZM71.8188 1.87487C80.6029 1.87487 85.1179 7.38866 85.1179 14.0417C85.1179 21.0147 80.7439 26.1392 71.1481 26.1392H61.1991V1.87487H71.8188ZM67.1968 21.692H71.1122C77.145 21.692 78.9444 17.5641 78.9444 14.0057C78.9444 9.84275 76.7215 6.32151 71.0416 6.32151H67.1967V21.692H67.1968ZM97.0509 7.62816L89.488 0H117.021V27.7664L109.458 20.1391V7.62816H97.0509ZM97.0421 9.1567L89.2556 17.0086V28H100.153L107.939 20.1481H97.0421V9.1567Z" fill="white"/>
</g>
<defs>
<clipPath id="clip0_332_16893">
<rect width="116.465" height="28" fill="white" transform="translate(0.580078)"/>
</clipPath>
</defs>
</svg>
