<svg width="33" height="32" viewBox="0 0 33 32" fill="none" xmlns="http://www.w3.org/2000/svg">
<g clip-path="url(#clip0_332_18898)">
<circle cx="16.668" cy="16" r="16" fill="#4640DE"/>
<mask id="path-2-inside-1_332_18898" fill="white">
<path d="M16.668 27C19.3332 27 21.9984 24.8953 23.7287 23.179C24.1278 22.7831 23.6472 22.2122 23.1502 22.4749C21.2693 23.469 18.686 24.6 16.668 24.6C14.6499 24.6 12.0666 23.469 10.1858 22.4749C9.68873 22.2122 9.20809 22.7831 9.60723 23.179C11.3375 24.8953 14.0028 27 16.668 27Z"/>
</mask>
<path d="M23.7287 23.179L25.8414 25.3089V25.3089L23.7287 23.179ZM9.60723 23.179L7.49455 25.3089H7.49455L9.60723 23.179ZM10.1858 22.4749L11.5876 19.8226L11.5876 19.8226L10.1858 22.4749ZM23.1502 22.4749L21.7483 19.8226L21.7483 19.8226L23.1502 22.4749ZM21.616 21.0491C20.8462 21.8126 19.9331 22.5953 18.988 23.1712C18.0171 23.7627 17.2352 24 16.668 24V30C18.766 30 20.6493 29.1849 22.1098 28.2951C23.5962 27.3895 24.8809 26.2616 25.8414 25.3089L21.616 21.0491ZM16.668 24C16.1008 24 15.3188 23.7627 14.3479 23.1712C13.4028 22.5953 12.4897 21.8126 11.7199 21.0491L7.49455 25.3089C8.45505 26.2616 9.73973 27.3895 11.2261 28.2951C12.6867 29.1849 14.5699 30 16.668 30V24ZM8.78389 25.1272C9.79937 25.6639 11.0507 26.2629 12.3613 26.7336C13.6349 27.1911 15.16 27.6 16.668 27.6V21.6C16.1578 21.6 15.3823 21.4434 14.3895 21.0868C13.4338 20.7436 12.453 20.28 11.5876 19.8226L8.78389 25.1272ZM16.668 27.6C18.1759 27.6 19.701 27.1911 20.9746 26.7336C22.2853 26.2629 23.5366 25.6639 24.552 25.1272L21.7483 19.8226C20.8829 20.28 19.9021 20.7436 18.9464 21.0868C17.9536 21.4434 17.1781 21.6 16.668 21.6V27.6ZM25.8414 25.3089C26.4354 24.7197 26.8456 23.8995 26.8751 22.9593C26.9035 22.0551 26.5729 21.2526 26.0831 20.663C25.0794 19.4547 23.3001 19.0024 21.7483 19.8226L24.552 25.1272C23.4973 25.6847 22.2068 25.3865 21.4679 24.4969C21.1105 24.0667 20.8563 23.4648 20.8781 22.7708C20.901 22.0407 21.2216 21.4403 21.616 21.0491L25.8414 25.3089ZM11.7199 21.0491C12.1143 21.4403 12.4349 22.0407 12.4579 22.7708C12.4797 23.4648 12.2255 24.0667 11.8681 24.4969C11.1291 25.3865 9.83865 25.6847 8.78389 25.1272L11.5876 19.8226C10.0358 19.0024 8.25657 19.4547 7.2528 20.663C6.76301 21.2526 6.4324 22.0551 6.46083 22.9593C6.49038 23.8995 6.90055 24.7197 7.49455 25.3089L11.7199 21.0491Z" fill="white" mask="url(#path-2-inside-1_332_18898)"/>
<path d="M22.3797 9.31575C22.0598 8.99365 22.0598 8.47732 22.3797 8.15521L24.0982 6.02632L24.0982 5.98937C24.5335 5.55866 25.2393 5.55866 25.6746 5.98937C26.11 6.42007 26.11 7.11837 25.6746 7.54907L23.6499 9.31575L23.5742 9.38279C23.4161 9.50768 23.2191 9.57665 23.0148 9.57665C22.7765 9.57665 22.5479 9.48277 22.3797 9.31575ZM9.33447 15.185C9.33447 13.2892 10.0957 11.4711 11.4506 10.1306C12.8055 8.79004 14.6432 8.03694 16.5594 8.03694C20.5496 8.03694 23.7843 11.2372 23.7843 15.185C23.7843 19.1327 20.5496 22.333 16.5594 22.333C12.5692 22.333 9.33447 19.1327 9.33447 15.185Z" fill="white"/>
</g>
<defs>
<clipPath id="clip0_332_18898">
<rect width="32" height="32" fill="white" transform="translate(0.667969)"/>
</clipPath>
</defs>
</svg>
