<svg width="14" height="13" viewBox="0 0 14 13" fill="none" xmlns="http://www.w3.org/2000/svg">
<g clip-path="url(#clip0_332_23385)">
<circle cx="6.79357" cy="6.5758" r="6.26427" fill="#4640DE"/>
<mask id="path-2-inside-1_332_23385" fill="white">
<path d="M6.79319 10.8823C7.83666 10.8823 8.88014 10.0583 9.55758 9.38632C9.71385 9.23131 9.52568 9.00779 9.33108 9.11065C8.59468 9.49987 7.58329 9.94266 6.79319 9.94266C6.00308 9.94266 4.99169 9.49987 4.25529 9.11065C4.06069 9.00779 3.87252 9.23131 4.02879 9.38632C4.70623 10.0583 5.74971 10.8823 6.79319 10.8823Z"/>
</mask>
<path d="M9.55758 9.38632L10.3847 10.2202L10.3847 10.2202L9.55758 9.38632ZM4.02879 9.38632L3.20163 10.2202H3.20163L4.02879 9.38632ZM4.25529 9.11065L3.70644 10.1491H3.70644L4.25529 9.11065ZM9.33108 9.11065L9.87994 10.1491V10.1491L9.33108 9.11065ZM8.73043 8.55242C8.42904 8.85137 8.07156 9.1578 7.70152 9.38325C7.32139 9.61485 7.01525 9.70775 6.79319 9.70775V12.0569C7.6146 12.0569 8.35193 11.7377 8.92377 11.3893C9.50571 11.0348 10.0087 10.5932 10.3847 10.2202L8.73043 8.55242ZM6.79319 9.70775C6.57112 9.70775 6.26498 9.61485 5.88485 9.38325C5.51481 9.1578 5.15733 8.85137 4.85594 8.55242L3.20163 10.2202C3.57769 10.5932 4.08066 11.0348 4.6626 11.3893C5.23444 11.7377 5.97177 12.0569 6.79319 12.0569V9.70775ZM3.70644 10.1491C4.10401 10.3592 4.59392 10.5937 5.10706 10.778C5.6057 10.9571 6.2028 11.1172 6.79319 11.1172V8.76811C6.59346 8.76811 6.28982 8.70681 5.90113 8.5672C5.52696 8.43281 5.14297 8.2513 4.80415 8.07222L3.70644 10.1491ZM6.79319 11.1172C7.38357 11.1172 7.98068 10.9571 8.47931 10.778C8.99245 10.5937 9.48236 10.3592 9.87994 10.1491L8.78222 8.07222C8.4434 8.2513 8.05941 8.43281 7.68524 8.5672C7.29655 8.70681 6.99291 8.76811 6.79319 8.76811V11.1172ZM10.3847 10.2202C10.6173 9.98954 10.7779 9.66841 10.7895 9.30029C10.8006 8.94628 10.6711 8.63209 10.4794 8.40125C10.0864 7.92817 9.38978 7.7511 8.78222 8.07222L9.87994 10.1491C9.46698 10.3673 8.96175 10.2506 8.67243 9.90232C8.5325 9.73387 8.43297 9.4982 8.44151 9.22648C8.4505 8.94066 8.57601 8.70559 8.73043 8.55242L10.3847 10.2202ZM4.85594 8.55242C5.01036 8.70559 5.13587 8.94065 5.14486 9.22648C5.1534 9.4982 5.05387 9.73387 4.91394 9.90231C4.62462 10.2506 4.11939 10.3673 3.70644 10.1491L4.80415 8.07222C4.19659 7.7511 3.49998 7.92817 3.10698 8.40125C2.91522 8.63209 2.78579 8.94628 2.79691 9.30029C2.80849 9.66841 2.96908 9.98954 3.20163 10.2202L4.85594 8.55242Z" fill="white" mask="url(#path-2-inside-1_332_23385)"/>
<g clip-path="url(#clip1_332_23385)">
<path d="M9.02931 3.95918C8.90405 3.83308 8.90405 3.63092 9.02931 3.50481L9.70211 2.67132L9.70211 2.65685C9.87255 2.48822 10.1489 2.48822 10.3193 2.65685C10.4898 2.82547 10.4898 3.09887 10.3193 3.2675L9.5266 3.95918L9.49698 3.98543C9.43509 4.03433 9.35793 4.06133 9.27795 4.06133C9.18464 4.06133 9.09517 4.02458 9.02931 3.95918ZM3.92187 6.25709C3.92187 5.51486 4.2199 4.80303 4.75038 4.27819C5.28086 3.75336 6.00035 3.45851 6.75056 3.45851C8.3128 3.45851 9.57925 4.71147 9.57925 6.25709C9.57925 7.8027 8.3128 9.05566 6.75056 9.05566C5.18832 9.05566 3.92187 7.8027 3.92187 6.25709Z" fill="white"/>
</g>
</g>
<defs>
<clipPath id="clip0_332_23385">
<rect width="12.5285" height="12.5285" fill="white" transform="translate(0.529297 0.311523)"/>
</clipPath>
<clipPath id="clip1_332_23385">
<rect width="7.83034" height="7.83034" fill="white" transform="translate(3.26953 9.70801) rotate(-90)"/>
</clipPath>
</defs>
</svg>
