<svg width="188" height="192" viewBox="0 0 188 192" fill="none" xmlns="http://www.w3.org/2000/svg">
<circle cx="76" cy="94.0001" r="64.3765" stroke="#E9EBFD" stroke-width="14.3059"/>
<g filter="url(#filter0_d_332_23057)">
<mask id="path-2-inside-1_332_23057" fill="white">
<path d="M76 18C92.0496 18 107.687 23.081 120.672 32.5147C133.656 41.9484 143.321 55.2506 148.28 70.5147C153.24 85.7788 153.24 102.221 148.28 117.485C143.321 132.749 133.656 146.052 120.672 155.485L107.27 137.04C116.359 130.436 123.124 121.125 126.596 110.44C130.068 99.7548 130.068 88.2452 126.596 77.5603C123.124 66.8754 116.359 57.5639 107.27 50.9603C98.1811 44.3567 87.2347 40.8 76 40.8V18Z"/>
</mask>
<path d="M76 18C92.0496 18 107.687 23.081 120.672 32.5147C133.656 41.9484 143.321 55.2506 148.28 70.5147C153.24 85.7788 153.24 102.221 148.28 117.485C143.321 132.749 133.656 146.052 120.672 155.485L107.27 137.04C116.359 130.436 123.124 121.125 126.596 110.44C130.068 99.7548 130.068 88.2452 126.596 77.5603C123.124 66.8754 116.359 57.5639 107.27 50.9603C98.1811 44.3567 87.2347 40.8 76 40.8V18Z" stroke="#4640DE" stroke-width="42.9176" shape-rendering="crispEdges" mask="url(#path-2-inside-1_332_23057)"/>
</g>
<defs>
<filter id="filter0_d_332_23057" x="58.1176" y="0.117646" width="129.647" height="191.132" filterUnits="userSpaceOnUse" color-interpolation-filters="sRGB">
<feFlood flood-opacity="0" result="BackgroundImageFix"/>
<feColorMatrix in="SourceAlpha" type="matrix" values="0 0 0 0 0 0 0 0 0 0 0 0 0 0 0 0 0 0 127 0" result="hardAlpha"/>
<feOffset dx="8.94118" dy="8.94118"/>
<feGaussianBlur stdDeviation="13.4118"/>
<feComposite in2="hardAlpha" operator="out"/>
<feColorMatrix type="matrix" values="0 0 0 0 0.27451 0 0 0 0 0.25098 0 0 0 0 0.870588 0 0 0 0.2 0"/>
<feBlend mode="normal" in2="BackgroundImageFix" result="effect1_dropShadow_332_23057"/>
<feBlend mode="normal" in="SourceGraphic" in2="effect1_dropShadow_332_23057" result="shape"/>
</filter>
</defs>
</svg>
