<svg width="40" height="40" viewBox="0 0 40 40" fill="none" xmlns="http://www.w3.org/2000/svg">
<g clip-path="url(#clip0_332_18570)">
<path fill-rule="evenodd" clip-rule="evenodd" d="M6.6665 19.9997C6.6665 19.0792 7.4127 18.333 8.33317 18.333H31.6665C32.587 18.333 33.3332 19.0792 33.3332 19.9997C33.3332 20.9201 32.587 21.6663 31.6665 21.6663H8.33317C7.4127 21.6663 6.6665 20.9201 6.6665 19.9997Z" fill="#25324B"/>
<path fill-rule="evenodd" clip-rule="evenodd" d="M7.15466 18.8212C7.80553 18.1703 8.86081 18.1703 9.51168 18.8212L19.5117 28.8212C20.1626 29.472 20.1626 30.5273 19.5117 31.1782C18.8608 31.8291 17.8055 31.8291 17.1547 31.1782L7.15466 21.1782C6.50379 20.5273 6.50379 19.472 7.15466 18.8212Z" fill="#25324B"/>
<path fill-rule="evenodd" clip-rule="evenodd" d="M19.5117 8.82116C20.1626 9.47204 20.1626 10.5273 19.5117 11.1782L9.51168 21.1782C8.86081 21.8291 7.80553 21.8291 7.15466 21.1782C6.50379 20.5273 6.50379 19.472 7.15466 18.8212L17.1547 8.82116C17.8055 8.17029 18.8608 8.17029 19.5117 8.82116Z" fill="#25324B"/>
</g>
<defs>
<clipPath id="clip0_332_18570">
<rect width="40" height="40" fill="white"/>
</clipPath>
</defs>
</svg>
