<svg width="10" height="11" viewBox="0 0 10 11" fill="none" xmlns="http://www.w3.org/2000/svg">
<g clip-path="url(#clip0_332_23329)">
<path d="M4.57099 2.52442C4.73777 1.83691 5.71578 1.83691 5.88257 2.52442C5.9076 2.6277 5.95665 2.72361 6.02575 2.80435C6.09485 2.88509 6.18204 2.94837 6.28022 2.98905C6.37839 3.02972 6.48479 3.04664 6.59074 3.03843C6.69669 3.03021 6.79921 2.9971 6.88994 2.94177C7.49405 2.57375 8.18587 3.26517 7.81784 3.86967C7.7626 3.96037 7.72953 4.06282 7.72134 4.1687C7.71314 4.27458 7.73004 4.3809 7.77067 4.47902C7.8113 4.57714 7.87451 4.66428 7.95516 4.73338C8.0358 4.80247 8.13162 4.85156 8.23481 4.87665C8.92231 5.04344 8.92231 6.02145 8.23481 6.18823C8.13152 6.21326 8.03561 6.26232 7.95487 6.33142C7.87413 6.40052 7.81085 6.4877 7.77017 6.58588C7.7295 6.68406 7.71258 6.79045 7.72079 6.89641C7.72901 7.00236 7.76213 7.10487 7.81745 7.19561C8.18547 7.79972 7.49405 8.49153 6.88955 8.1235C6.79886 8.06826 6.6964 8.0352 6.59052 8.027C6.48464 8.0188 6.37832 8.03571 6.2802 8.07634C6.18208 8.11697 6.09494 8.18017 6.02585 8.26082C5.95675 8.34147 5.90766 8.43728 5.88257 8.54047C5.71578 9.22797 4.73777 9.22797 4.57099 8.54047C4.54596 8.43719 4.4969 8.34127 4.42781 8.26053C4.35871 8.1798 4.27152 8.11651 4.17334 8.07584C4.07516 8.03516 3.96877 8.01824 3.86282 8.02646C3.75686 8.03467 3.65435 8.06779 3.56361 8.12311C2.9595 8.49114 2.26769 7.79972 2.63572 7.19522C2.69096 7.10452 2.72403 7.00207 2.73222 6.89619C2.74042 6.79031 2.72351 6.68399 2.68289 6.58587C2.64226 6.48775 2.57905 6.4006 2.4984 6.33151C2.41776 6.26242 2.32194 6.21333 2.21875 6.18823C1.53125 6.02145 1.53125 5.04344 2.21875 4.87665C2.32204 4.85163 2.41795 4.80257 2.49869 4.73347C2.57943 4.66437 2.64271 4.57718 2.68338 4.47901C2.72406 4.38083 2.74098 4.27443 2.73276 4.16848C2.72455 4.06253 2.69143 3.96001 2.63611 3.86928C2.26808 3.26517 2.9595 2.57336 3.56401 2.94138C3.95396 3.17943 4.46293 2.96879 4.57099 2.52442Z" stroke="#25324B" stroke-width="0.783034" stroke-linecap="round" stroke-linejoin="round"/>
<path d="M6.40184 5.53197C6.40184 5.84348 6.27809 6.14224 6.05782 6.36251C5.83755 6.58278 5.5388 6.70652 5.22729 6.70652C4.91578 6.70652 4.61702 6.58278 4.39675 6.36251C4.17648 6.14224 4.05273 5.84348 4.05273 5.53197C4.05273 5.22046 4.17648 4.92171 4.39675 4.70144C4.61702 4.48117 4.91578 4.35742 5.22729 4.35742C5.5388 4.35742 5.83755 4.48117 6.05782 4.70144C6.27809 4.92171 6.40184 5.22046 6.40184 5.53197V5.53197Z" stroke="#25324B" stroke-width="0.783034" stroke-linecap="round" stroke-linejoin="round"/>
</g>
<defs>
<clipPath id="clip0_332_23329">
<rect width="9.39641" height="9.39641" fill="white" transform="translate(0.529297 0.833984)"/>
</clipPath>
</defs>
</svg>
