<svg width="88" height="68" viewBox="0 0 88 68" fill="none" xmlns="http://www.w3.org/2000/svg">
<g opacity="0.3">
<path d="M80.1418 51.0424L75.5101 45.703C78.8485 41.5267 80.6674 36.3633 80.6674 30.9658C80.6674 17.9347 70.0658 7.33301 57.0345 7.33301C44.0033 7.33301 33.4017 17.9347 33.4017 30.9658C33.4017 31.8368 33.4506 32.6965 33.5428 33.5432C32.6886 33.4503 31.8285 33.4007 30.9668 33.4007C17.9357 33.4007 7.33402 44.0024 7.33402 57.0335C7.33402 62.431 9.15289 67.5942 12.4913 71.7707L7.85953 77.1101C7.30824 77.7458 7.17862 78.6445 7.52795 79.4099C7.87729 80.1752 8.64113 80.6663 9.48246 80.6663H30.9668C43.998 80.6663 54.5996 70.0647 54.5996 57.0335C54.5996 56.1719 54.5501 55.3118 54.4571 54.4576C55.3039 54.5498 56.1636 54.5986 57.0345 54.5986H78.5189C79.3602 54.5986 80.1242 54.1075 80.4734 53.3422C80.8228 52.5768 80.6931 51.678 80.1418 51.0424ZM30.9668 76.3695H14.1903L16.9582 73.1787C17.6812 72.3453 17.6553 71.0995 16.8981 70.2968C13.5016 66.6953 11.6309 61.985 11.6309 57.0335C11.6309 46.3717 20.305 37.6976 30.9668 37.6976C32.1462 37.6976 33.3218 37.805 34.4761 38.0167C36.7847 45.3871 42.6132 51.2157 49.9837 53.5243C50.1954 54.6786 50.3028 55.8542 50.3028 57.0335C50.3028 67.6955 41.6288 76.3695 30.9668 76.3695ZM57.0345 50.3018C46.3727 50.3018 37.6986 41.6277 37.6986 30.9658C37.6986 20.304 46.3727 11.6299 57.0345 11.6299C67.6964 11.6299 76.3705 20.304 76.3705 30.9658C76.3705 35.9173 74.4998 40.6276 71.1032 44.2291C70.3461 45.0318 70.3202 46.2776 71.0432 47.111L73.8111 50.3018H57.0345Z" fill="#515B6F" stroke="#515B6F" stroke-width="2"/>
<path d="M57.0352 45.5752C58.2217 45.5752 59.1836 44.6133 59.1836 43.4268C59.1836 42.2402 58.2217 41.2783 57.0352 41.2783C55.8486 41.2783 54.8867 42.2402 54.8867 43.4268C54.8867 44.6133 55.8486 45.5752 57.0352 45.5752Z" fill="#26A4FF" stroke="#26A4FF" stroke-width="0.668098"/>
<path d="M57.2044 16.2156C53.0351 16.1301 49.4485 19.1813 48.8723 23.3096C48.8196 23.6872 48.793 24.0729 48.793 24.4565C48.793 25.643 49.7549 26.6049 50.9414 26.6049C52.1279 26.6049 53.0898 25.643 53.0898 24.4565C53.0898 24.2708 53.1026 24.0846 53.1279 23.9034C53.3997 21.9561 55.0727 20.5108 57.0371 20.5108C57.064 20.5108 57.0908 20.5111 57.1179 20.5116C59.1745 20.553 60.8691 22.1923 60.9755 24.2436C61.0323 25.3392 60.6492 26.379 59.8967 27.1717C59.1434 27.965 58.1272 28.402 57.0354 28.402C55.8489 28.402 54.8869 29.3639 54.8869 30.5504V36.9228C54.8869 38.1093 55.8489 39.0713 57.0354 39.0713C58.2219 39.0713 59.1838 38.1093 59.1838 36.9228V32.4111C60.6322 32.0178 61.9659 31.2328 63.0126 30.1302C64.5847 28.4745 65.3851 26.3048 65.2665 24.0209C65.0439 19.7308 61.5026 16.3023 57.2044 16.2156Z" fill="#26A4FF" stroke="#26A4FF" stroke-width="0.668098"/>
<path d="M38.1276 50.5879H23.8047C22.6182 50.5879 21.6562 51.5498 21.6562 52.7363C21.6562 53.9228 22.6182 54.8848 23.8047 54.8848H38.1276C39.3141 54.8848 40.276 53.9228 40.276 52.7363C40.276 51.5498 39.3141 50.5879 38.1276 50.5879Z" fill="#26A4FF" stroke="#26A4FF" stroke-width="0.668098"/>
<path d="M38.1276 59.1826H23.8047C22.6182 59.1826 21.6562 60.1445 21.6562 61.3311C21.6562 62.5176 22.6182 63.4795 23.8047 63.4795H38.1276C39.3141 63.4795 40.276 62.5176 40.276 61.3311C40.276 60.1445 39.3141 59.1826 38.1276 59.1826Z" fill="#26A4FF" stroke="#26A4FF" stroke-width="0.668098"/>
</g>
</svg>
