<svg width="10" height="10" viewBox="0 0 10 10" fill="none" xmlns="http://www.w3.org/2000/svg">
<g clip-path="url(#clip0_332_23362)">
<path fill-rule="evenodd" clip-rule="evenodd" d="M5.22661 2.01643C5.01894 2.01643 4.81977 2.09893 4.67292 2.24578C4.52607 2.39263 4.44358 2.59179 4.44358 2.79947C4.44358 3.00714 4.52607 3.20631 4.67292 3.35316C4.81977 3.5 5.01894 3.5825 5.22661 3.5825C5.43428 3.5825 5.63345 3.5 5.7803 3.35316C5.92715 3.20631 6.00964 3.00714 6.00964 2.79947C6.00964 2.59179 5.92715 2.39263 5.7803 2.24578C5.63345 2.09893 5.43428 2.01643 5.22661 2.01643ZM4.11923 1.69209C4.41293 1.39839 4.81126 1.2334 5.22661 1.2334C5.64196 1.2334 6.04029 1.39839 6.33399 1.69209C6.62768 1.98578 6.79268 2.38412 6.79268 2.79947C6.79268 3.21481 6.62768 3.61315 6.33399 3.90684C6.04029 4.20054 5.64196 4.36554 5.22661 4.36554C4.81126 4.36554 4.41293 4.20054 4.11923 3.90684C3.82554 3.61315 3.66054 3.21481 3.66054 2.79947C3.66054 2.38412 3.82554 1.98578 4.11923 1.69209ZM2.48599 3.5825C2.38215 3.5825 2.28257 3.62375 2.20915 3.69717C2.13572 3.7706 2.09447 3.87018 2.09447 3.97402C2.09447 4.07786 2.13572 4.17744 2.20915 4.25086C2.28257 4.32429 2.38215 4.36554 2.48599 4.36554C2.58983 4.36554 2.68941 4.32429 2.76283 4.25086C2.83626 4.17744 2.87751 4.07786 2.87751 3.97402C2.87751 3.87018 2.83626 3.7706 2.76283 3.69717C2.68941 3.62375 2.58983 3.5825 2.48599 3.5825ZM1.65546 3.14349C1.87573 2.92321 2.17448 2.79947 2.48599 2.79947C2.7975 2.79947 3.09625 2.92321 3.31652 3.14349C3.53679 3.36376 3.66054 3.66251 3.66054 3.97402C3.66054 4.28553 3.53679 4.58428 3.31652 4.80455C3.09625 5.02482 2.7975 5.14857 2.48599 5.14857C2.17448 5.14857 1.87573 5.02482 1.65546 4.80455C1.43519 4.58428 1.31144 4.28553 1.31144 3.97402C1.31144 3.66251 1.43519 3.36376 1.65546 3.14349ZM7.96723 3.5825C7.86339 3.5825 7.76381 3.62375 7.69039 3.69717C7.61696 3.7706 7.57571 3.87018 7.57571 3.97402C7.57571 4.07785 7.61696 4.17744 7.69039 4.25086C7.76381 4.32429 7.86339 4.36554 7.96723 4.36554C8.07107 4.36554 8.17065 4.32429 8.24407 4.25086C8.3175 4.17744 8.35875 4.07785 8.35875 3.97402C8.35875 3.87018 8.3175 3.7706 8.24407 3.69717C8.17065 3.62375 8.07107 3.5825 7.96723 3.5825ZM7.1367 3.14349C7.35697 2.92321 7.65572 2.79947 7.96723 2.79947C8.27874 2.79947 8.57749 2.92321 8.79776 3.14349C9.01803 3.36376 9.14178 3.66251 9.14178 3.97402C9.14178 4.28553 9.01803 4.58428 8.79776 4.80455C8.57749 5.02482 8.27874 5.14857 7.96723 5.14857C7.65572 5.14857 7.35697 5.02482 7.1367 4.80455C6.91643 4.58428 6.79268 4.28553 6.79268 3.97402C6.79268 3.66251 6.91643 3.36376 7.1367 3.14349ZM5.22661 5.53981C4.9135 5.53981 4.60756 5.63362 4.34827 5.80915C4.10385 5.97461 3.91144 6.20552 3.79274 6.47497L3.69834 7.49767H6.75488L6.66048 6.47497C6.54178 6.20552 6.34937 5.97461 6.10495 5.80915C5.84566 5.63362 5.53972 5.53981 5.22661 5.53981ZM7.57571 7.49767H8.75026V7.10618C8.75026 7.10617 8.75026 7.10619 8.75026 7.10618C8.75025 6.94346 8.69954 6.78476 8.60518 6.65219C8.51082 6.51961 8.37749 6.41972 8.22374 6.36641C8.06999 6.31311 7.90344 6.30902 7.74727 6.35474C7.65457 6.38187 7.56826 6.42574 7.49234 6.48365C7.54681 6.68234 7.57571 6.89121 7.57571 7.10616V7.49767ZM7.1567 5.76624C6.99234 5.52959 6.78499 5.32392 6.5439 5.16071C6.15503 4.89747 5.6962 4.75678 5.22661 4.75678C4.75702 4.75678 4.29819 4.89747 3.90932 5.16071C3.66823 5.32392 3.46088 5.52959 3.29652 5.76624C3.18123 5.6965 3.05675 5.64153 2.92592 5.60323C2.61356 5.51181 2.28048 5.51997 1.97297 5.62659C1.66547 5.7332 1.39882 5.93297 1.21009 6.19813C1.02137 6.46329 0.919946 6.78066 0.919922 7.10613V7.88919C0.919922 8.10542 1.09521 8.28071 1.31144 8.28071H9.14178C9.35801 8.28071 9.5333 8.10542 9.5333 7.88919V7.10616C9.53327 6.78069 9.43185 6.46329 9.24313 6.19813C9.0544 5.93297 8.78775 5.7332 8.48025 5.62659C8.17274 5.51997 7.83966 5.51181 7.5273 5.60323C7.39647 5.64153 7.27199 5.6965 7.1567 5.76624ZM2.96088 6.48365C2.88496 6.42574 2.79865 6.38187 2.70595 6.35474C2.54978 6.30902 2.38323 6.31311 2.22948 6.36641C2.07573 6.41972 1.9424 6.51961 1.84804 6.65219C1.75369 6.78476 1.70297 6.94343 1.70296 7.10616C1.70296 7.10615 1.70296 7.10616 1.70296 7.10616V7.49767H2.87751V7.10616C2.87751 6.89121 2.90641 6.68234 2.96088 6.48365Z" fill="#25324B"/>
</g>
<defs>
<clipPath id="clip0_332_23362">
<rect width="9.39641" height="9.39641" fill="white" transform="translate(0.529297 0.0585938)"/>
</clipPath>
</defs>
</svg>
