<svg width="24" height="24" viewBox="0 0 24 24" fill="none" xmlns="http://www.w3.org/2000/svg">
<g clip-path="url(#clip0_332_18361)">
<path d="M12.0004 21L8.40039 17.4H6.00039C5.04561 17.4 4.12994 17.0207 3.45481 16.3456C2.77968 15.6705 2.40039 14.7548 2.40039 13.8V6.6C2.40039 5.64522 2.77968 4.72955 3.45481 4.05442C4.12994 3.37928 5.04561 3 6.00039 3H18.0004C18.9552 3 19.8708 3.37928 20.546 4.05442C21.2211 4.72955 21.6004 5.64522 21.6004 6.6V13.8C21.6004 14.7548 21.2211 15.6705 20.546 16.3456C19.8708 17.0207 18.9552 17.4 18.0004 17.4H15.6004L12.0004 21Z" stroke="#7C8493" stroke-width="2" stroke-linecap="round" stroke-linejoin="round"/>
<path d="M7.2002 7.7998H16.8002" stroke="#7C8493" stroke-width="2" stroke-linecap="round" stroke-linejoin="round"/>
<path d="M7.2002 12.5996H14.4002" stroke="#7C8493" stroke-width="2" stroke-linecap="round" stroke-linejoin="round"/>
</g>
<defs>
<clipPath id="clip0_332_18361">
<rect width="24" height="24" fill="white"/>
</clipPath>
</defs>
</svg>
