<svg width="88" height="68" viewBox="0 0 88 68" fill="none" xmlns="http://www.w3.org/2000/svg">
<g opacity="0.3">
<path d="M80.1411 51.0424L75.5094 45.703C78.8478 41.5267 80.6666 36.3633 80.6666 30.9658C80.6666 17.9347 70.0651 7.33301 57.0338 7.33301C44.0025 7.33301 33.401 17.9347 33.401 30.9658C33.401 31.8368 33.4498 32.6965 33.5421 33.5432C32.6879 33.4503 31.8278 33.4007 30.9661 33.4007C17.935 33.4007 7.33329 44.0024 7.33329 57.0335C7.33329 62.431 9.15216 67.5942 12.4905 71.7707L7.8588 77.1101C7.30751 77.7458 7.17789 78.6445 7.52722 79.4099C7.87656 80.1752 8.6404 80.6663 9.48173 80.6663H30.9661C43.9972 80.6663 54.5989 70.0647 54.5989 57.0335C54.5989 56.1719 54.5494 55.3118 54.4564 54.4576C55.3032 54.5498 56.1628 54.5986 57.0338 54.5986H78.5182C79.3595 54.5986 80.1235 54.1075 80.4727 53.3422C80.822 52.5768 80.6924 51.678 80.1411 51.0424ZM30.9661 76.3695H14.1895L16.9574 73.1787C17.6805 72.3453 17.6545 71.0995 16.8974 70.2968C13.5009 66.6953 11.6302 61.985 11.6302 57.0335C11.6302 46.3717 20.3043 37.6976 30.9661 37.6976C32.1455 37.6976 33.3211 37.805 34.4754 38.0167C36.7839 45.3871 42.6125 51.2157 49.9829 53.5243C50.1946 54.6786 50.302 55.8542 50.302 57.0335C50.302 67.6955 41.6281 76.3695 30.9661 76.3695ZM57.0338 50.3018C46.372 50.3018 37.6979 41.6277 37.6979 30.9658C37.6979 20.304 46.372 11.6299 57.0338 11.6299C67.6956 11.6299 76.3698 20.304 76.3698 30.9658C76.3698 35.9173 74.499 40.6276 71.1025 44.2291C70.3454 45.0318 70.3195 46.2776 71.0425 47.111L73.8104 50.3018H57.0338Z" fill="#515B6F" stroke="#515B6F" stroke-width="2"/>
<path d="M57.0345 45.5752C58.2211 45.5752 59.183 44.6133 59.183 43.4268C59.183 42.2402 58.2211 41.2783 57.0345 41.2783C55.848 41.2783 54.8861 42.2402 54.8861 43.4268C54.8861 44.6133 55.848 45.5752 57.0345 45.5752Z" fill="#26A4FF" stroke="#26A4FF" stroke-width="0.668098"/>
<path d="M57.2035 16.2156C53.0343 16.1301 49.4477 19.1813 48.8715 23.3096C48.8188 23.6872 48.7921 24.0729 48.7921 24.4565C48.7921 25.643 49.754 26.6049 50.9406 26.6049C52.1271 26.6049 53.089 25.643 53.089 24.4565C53.089 24.2708 53.1017 24.0846 53.1271 23.9034C53.3988 21.9561 55.0719 20.5108 57.0363 20.5108C57.0632 20.5108 57.09 20.5111 57.117 20.5116C59.1737 20.553 60.8682 22.1923 60.9746 24.2436C61.0315 25.3392 60.6484 26.379 59.8958 27.1717C59.1426 27.965 58.1264 28.402 57.0345 28.402C55.848 28.402 54.8861 29.3639 54.8861 30.5504V36.9228C54.8861 38.1093 55.848 39.0713 57.0345 39.0713C58.221 39.0713 59.183 38.1093 59.183 36.9228V32.4111C60.6313 32.0178 61.9651 31.2328 63.0118 30.1302C64.5839 28.4745 65.3842 26.3048 65.2656 24.0209C65.0431 19.7308 61.5017 16.3023 57.2035 16.2156Z" fill="#26A4FF" stroke="#26A4FF" stroke-width="0.668098"/>
<path d="M38.1283 50.5879H23.8054C22.6189 50.5879 21.657 51.5498 21.657 52.7363C21.657 53.9228 22.6189 54.8848 23.8054 54.8848H38.1283C39.3148 54.8848 40.2768 53.9228 40.2768 52.7363C40.2768 51.5498 39.3148 50.5879 38.1283 50.5879Z" fill="#26A4FF" stroke="#26A4FF" stroke-width="0.668098"/>
<path d="M38.1283 59.1826H23.8054C22.6189 59.1826 21.657 60.1445 21.657 61.3311C21.657 62.5176 22.6189 63.4795 23.8054 63.4795H38.1283C39.3148 63.4795 40.2768 62.5176 40.2768 61.3311C40.2768 60.1445 39.3148 59.1826 38.1283 59.1826Z" fill="#26A4FF" stroke="#26A4FF" stroke-width="0.668098"/>
</g>
</svg>
