<svg width="20" height="20" viewBox="0 0 20 20" fill="none" xmlns="http://www.w3.org/2000/svg">
<g clip-path="url(#clip0_1_5566)">
<path fill-rule="evenodd" clip-rule="evenodd" d="M10.0001 3.33366C6.31818 3.33366 3.33341 6.31843 3.33341 10.0003C3.33341 13.6822 6.31818 16.667 10.0001 16.667C13.682 16.667 16.6667 13.6822 16.6667 10.0003C16.6667 6.31843 13.682 3.33366 10.0001 3.33366ZM1.66675 10.0003C1.66675 5.39795 5.39771 1.66699 10.0001 1.66699C14.6025 1.66699 18.3334 5.39795 18.3334 10.0003C18.3334 14.6027 14.6025 18.3337 10.0001 18.3337C5.39771 18.3337 1.66675 14.6027 1.66675 10.0003Z" fill="#56CDAD"/>
<path fill-rule="evenodd" clip-rule="evenodd" d="M13.0893 7.74408C13.4148 8.06951 13.4148 8.59715 13.0893 8.92259L9.756 12.2559C9.43057 12.5814 8.90293 12.5814 8.57749 12.2559L6.91083 10.5893C6.58539 10.2638 6.58539 9.73618 6.91083 9.41074C7.23626 9.08531 7.7639 9.08531 8.08934 9.41074L9.16675 10.4882L11.9108 7.74408C12.2363 7.41864 12.7639 7.41864 13.0893 7.74408Z" fill="#56CDAD"/>
</g>
<defs>
<clipPath id="clip0_1_5566">
<rect width="20" height="20" fill="white"/>
</clipPath>
</defs>
</svg>
