<svg width="20" height="20" viewBox="0 0 20 20" fill="none" xmlns="http://www.w3.org/2000/svg">
<g clip-path="url(#clip0_332_14738)">
<path fill-rule="evenodd" clip-rule="evenodd" d="M10.0003 3.33366C6.31843 3.33366 3.33366 6.31843 3.33366 10.0003C3.33366 13.6822 6.31843 16.667 10.0003 16.667C13.6822 16.667 16.667 13.6822 16.667 10.0003C16.667 6.31843 13.6822 3.33366 10.0003 3.33366ZM1.66699 10.0003C1.66699 5.39795 5.39795 1.66699 10.0003 1.66699C14.6027 1.66699 18.3337 5.39795 18.3337 10.0003C18.3337 14.6027 14.6027 18.3337 10.0003 18.3337C5.39795 18.3337 1.66699 14.6027 1.66699 10.0003Z" fill="#56CDAD"/>
<path fill-rule="evenodd" clip-rule="evenodd" d="M13.0896 7.74408C13.415 8.06951 13.415 8.59715 13.0896 8.92259L9.75625 12.2559C9.43081 12.5814 8.90317 12.5814 8.57774 12.2559L6.91107 10.5893C6.58563 10.2638 6.58563 9.73618 6.91107 9.41074C7.23651 9.08531 7.76414 9.08531 8.08958 9.41074L9.16699 10.4882L11.9111 7.74408C12.2365 7.41864 12.7641 7.41864 13.0896 7.74408Z" fill="#56CDAD"/>
</g>
<defs>
<clipPath id="clip0_332_14738">
<rect width="20" height="20" fill="white"/>
</clipPath>
</defs>
</svg>
