<svg width="24" height="24" viewBox="0 0 24 24" fill="none" xmlns="http://www.w3.org/2000/svg">
<g clip-path="url(#clip0_332_15555)">
<path d="M5 5V21" stroke="#56CDAD" stroke-width="2" stroke-linecap="round" stroke-linejoin="round"/>
<path d="M19 5V14" stroke="#56CDAD" stroke-width="2" stroke-linecap="round" stroke-linejoin="round"/>
<path d="M5 4.9996C5.93464 4.08346 7.19124 3.57031 8.5 3.57031C9.80876 3.57031 11.0654 4.08346 12 4.9996C12.9346 5.91573 14.1912 6.42888 15.5 6.42888C16.8088 6.42888 18.0654 5.91573 19 4.9996" stroke="#56CDAD" stroke-width="2" stroke-linecap="round" stroke-linejoin="round"/>
<path d="M5 13.9996C5.93464 13.0835 7.19124 12.5703 8.5 12.5703C9.80876 12.5703 11.0654 13.0835 12 13.9996C12.9346 14.9157 14.1912 15.4289 15.5 15.4289C16.8088 15.4289 18.0654 14.9157 19 13.9996" stroke="#56CDAD" stroke-width="2" stroke-linecap="round" stroke-linejoin="round"/>
</g>
<defs>
<clipPath id="clip0_332_15555">
<rect width="24" height="24" fill="white"/>
</clipPath>
</defs>
</svg>
