<svg width="10" height="11" viewBox="0 0 10 11" fill="none" xmlns="http://www.w3.org/2000/svg">
<g clip-path="url(#clip0_332_23334)">
<path d="M5.22678 8.84907C7.17284 8.84907 8.75043 7.27147 8.75043 5.32541C8.75043 3.37935 7.17284 1.80176 5.22678 1.80176C3.28072 1.80176 1.70312 3.37935 1.70312 5.32541C1.70312 7.27147 3.28072 8.84907 5.22678 8.84907Z" stroke="#25324B" stroke-width="0.783034" stroke-linecap="round" stroke-linejoin="round"/>
<path d="M5.22656 7.2832V7.28712" stroke="#25324B" stroke-width="0.783034" stroke-linecap="round" stroke-linejoin="round"/>
<path d="M5.22835 5.91246C5.22114 5.78536 5.25542 5.65936 5.32604 5.55344C5.39665 5.44752 5.49977 5.36741 5.61986 5.32518C5.76702 5.26891 5.89911 5.17924 6.00573 5.06324C6.11235 4.94724 6.19059 4.80808 6.23428 4.6567C6.27798 4.50533 6.28594 4.34588 6.25754 4.19091C6.22914 4.03593 6.16516 3.88967 6.07062 3.76362C5.97609 3.63758 5.85359 3.5352 5.71277 3.46454C5.57195 3.39389 5.41664 3.35689 5.25909 3.35645C5.10154 3.35601 4.94603 3.39215 4.80482 3.46203C4.66361 3.5319 4.54054 3.6336 4.44531 3.75912" stroke="#25324B" stroke-width="0.783034" stroke-linecap="round" stroke-linejoin="round"/>
</g>
<defs>
<clipPath id="clip0_332_23334">
<rect width="9.39641" height="9.39641" fill="white" transform="translate(0.529297 0.626953)"/>
</clipPath>
</defs>
</svg>
