<svg width="10" height="10" viewBox="0 0 10 10" fill="none" xmlns="http://www.w3.org/2000/svg">
<g clip-path="url(#clip0_332_23344)">
<path d="M5.22731 8.69477L3.81785 7.28531H2.87821C2.5044 7.28531 2.1459 7.13681 1.88157 6.87249C1.61725 6.60816 1.46875 6.24966 1.46875 5.87585V3.05692C1.46875 2.68311 1.61725 2.32461 1.88157 2.06028C2.1459 1.79596 2.5044 1.64746 2.87821 1.64746H7.57642C7.95023 1.64746 8.30873 1.79596 8.57306 2.06028C8.83738 2.32461 8.98588 2.68311 8.98588 3.05692V5.87585C8.98588 6.24966 8.83738 6.60816 8.57306 6.87249C8.30873 7.13681 7.95023 7.28531 7.57642 7.28531H6.63678L5.22731 8.69477Z" stroke="#25324B" stroke-width="0.783034" stroke-linecap="round" stroke-linejoin="round"/>
<path d="M3.34766 3.52637H7.10622" stroke="#25324B" stroke-width="0.783034" stroke-linecap="round" stroke-linejoin="round"/>
<path d="M3.34766 5.40625H6.16658" stroke="#25324B" stroke-width="0.783034" stroke-linecap="round" stroke-linejoin="round"/>
</g>
<defs>
<clipPath id="clip0_332_23344">
<rect width="9.39641" height="9.39641" fill="white" transform="translate(0.529297 0.472656)"/>
</clipPath>
</defs>
</svg>
