<svg width="48" height="48" viewBox="0 0 48 48" fill="none" xmlns="http://www.w3.org/2000/svg">
<path d="M22.0009 11.764V38.48C22.0003 39.3089 21.7072 40.1111 21.1732 40.7451C20.6392 41.3791 19.8986 41.8043 19.0818 41.9458C18.265 42.0873 17.4245 41.936 16.7084 41.5186C15.9922 41.1012 15.4463 40.4444 15.1669 39.664L10.8729 27.364M36.0009 26C37.5922 26 39.1183 25.3679 40.2436 24.2426C41.3688 23.1174 42.0009 21.5913 42.0009 20C42.0009 18.4087 41.3688 16.8826 40.2436 15.7574C39.1183 14.6321 37.5922 14 36.0009 14V26ZM10.8729 27.366C9.17535 26.6442 7.77928 25.3581 6.92097 23.7253C6.06266 22.0925 5.79482 20.2134 6.16278 18.4058C6.53074 16.5982 7.5119 14.9733 8.94021 13.806C10.3685 12.6387 12.1563 12.0007 14.0009 12H17.6649C25.8649 12 32.9149 9.532 36.0009 6V34C32.9149 30.468 25.8669 28 17.6649 28H14.0009C12.9262 28.0016 11.8622 27.7859 10.8729 27.366Z" stroke="white" stroke-width="3" stroke-linecap="round" stroke-linejoin="round"/>
</svg>
