<svg width="10" height="11" viewBox="0 0 10 11" fill="none" xmlns="http://www.w3.org/2000/svg">
<g clip-path="url(#clip0_332_23366)">
<path d="M4.0524 2.80957H3.26936C3.06169 2.80957 2.86252 2.89207 2.71567 3.03892C2.56883 3.18576 2.48633 3.38493 2.48633 3.5926V8.29081C2.48633 8.49848 2.56883 8.69765 2.71567 8.8445C2.86252 8.99135 3.06169 9.07384 3.26936 9.07384H7.18453C7.39221 9.07384 7.59137 8.99135 7.73822 8.8445C7.88507 8.69765 7.96757 8.49848 7.96757 8.29081V3.5926C7.96757 3.38493 7.88507 3.18576 7.73822 3.03892C7.59137 2.89207 7.39221 2.80957 7.18453 2.80957H6.4015" stroke="#25324B" stroke-width="0.783034" stroke-linecap="round" stroke-linejoin="round"/>
<path d="M5.6188 2.02637H4.83577C4.40331 2.02637 4.05273 2.37694 4.05273 2.8094C4.05273 3.24186 4.40331 3.59244 4.83577 3.59244H5.6188C6.05126 3.59244 6.40184 3.24186 6.40184 2.8094C6.40184 2.37694 6.05126 2.02637 5.6188 2.02637Z" stroke="#25324B" stroke-width="0.783034" stroke-linecap="round" stroke-linejoin="round"/>
<path d="M4.05273 5.5498H4.05665" stroke="#25324B" stroke-width="0.783034" stroke-linecap="round" stroke-linejoin="round"/>
<path d="M5.61914 5.5498H6.40217" stroke="#25324B" stroke-width="0.783034" stroke-linecap="round" stroke-linejoin="round"/>
<path d="M4.05273 7.11621H4.05665" stroke="#25324B" stroke-width="0.783034" stroke-linecap="round" stroke-linejoin="round"/>
<path d="M5.61914 7.11621H6.40217" stroke="#25324B" stroke-width="0.783034" stroke-linecap="round" stroke-linejoin="round"/>
</g>
<defs>
<clipPath id="clip0_332_23366">
<rect width="9.39641" height="9.39641" fill="white" transform="translate(0.529297 0.851562)"/>
</clipPath>
</defs>
</svg>
