<svg width="32" height="34" viewBox="0 0 32 34" fill="none" xmlns="http://www.w3.org/2000/svg">
<g clip-path="url(#clip0_332_16697)">
<path d="M8 20.7648C10.2091 20.7648 12 18.9081 12 16.6178C12 14.3274 10.2091 12.4707 8 12.4707C5.79086 12.4707 4 14.3274 4 16.6178C4 18.9081 5.79086 20.7648 8 20.7648Z" stroke="#7C8493" stroke-width="2" stroke-linecap="round" stroke-linejoin="round"/>
<path d="M24 12.4709C26.2091 12.4709 28 10.6142 28 8.32382C28 6.03346 26.2091 4.17676 24 4.17676C21.7909 4.17676 20 6.03346 20 8.32382C20 10.6142 21.7909 12.4709 24 12.4709Z" stroke="#7C8493" stroke-width="2" stroke-linecap="round" stroke-linejoin="round"/>
<path d="M24 29.0588C26.2091 29.0588 28 27.2021 28 24.9117C28 22.6213 26.2091 20.7646 24 20.7646C21.7909 20.7646 20 22.6213 20 24.9117C20 27.2021 21.7909 29.0588 24 29.0588Z" stroke="#7C8493" stroke-width="2" stroke-linecap="round" stroke-linejoin="round"/>
<path d="M11.6001 14.8201L20.4001 10.1201" stroke="#7C8493" stroke-width="2" stroke-linecap="round" stroke-linejoin="round"/>
<path d="M11.6001 18.415L20.4001 23.115" stroke="#7C8493" stroke-width="2" stroke-linecap="round" stroke-linejoin="round"/>
</g>
<defs>
<clipPath id="clip0_332_16697">
<rect width="32" height="33.1765" fill="white" transform="translate(0 0.0292969)"/>
</clipPath>
</defs>
</svg>
