<svg width="16" height="16" viewBox="0 0 16 16" fill="none" xmlns="http://www.w3.org/2000/svg">
<g clip-path="url(#clip0_332_9826)">
<path d="M4.66667 7.33366V12.667C4.66667 12.8438 4.59643 13.0134 4.4714 13.1384C4.34638 13.2634 4.17681 13.3337 4 13.3337H2.66667C2.48986 13.3337 2.32029 13.2634 2.19526 13.1384C2.07024 13.0134 2 12.8438 2 12.667V8.00033C2 7.82351 2.07024 7.65395 2.19526 7.52892C2.32029 7.4039 2.48986 7.33366 2.66667 7.33366H4.66667ZM4.66667 7.33366C5.37391 7.33366 6.05219 7.05271 6.55228 6.55261C7.05238 6.05251 7.33333 5.37424 7.33333 4.66699V4.00033C7.33333 3.6467 7.47381 3.30756 7.72386 3.05752C7.97391 2.80747 8.31304 2.66699 8.66667 2.66699C9.02029 2.66699 9.35943 2.80747 9.60948 3.05752C9.85952 3.30756 10 3.6467 10 4.00033V7.33366H12C12.3536 7.33366 12.6928 7.47413 12.9428 7.72418C13.1929 7.97423 13.3333 8.31337 13.3333 8.66699L12.6667 12.0003C12.5708 12.4093 12.3889 12.7605 12.1484 13.001C11.908 13.2414 11.6219 13.3582 11.3333 13.3337H6.66667C6.13623 13.3337 5.62753 13.1229 5.25245 12.7479C4.87738 12.3728 4.66667 11.8641 4.66667 11.3337" stroke="#4640DE" stroke-width="2" stroke-linecap="round" stroke-linejoin="round"/>
</g>
<defs>
<clipPath id="clip0_332_9826">
<rect width="16" height="16" fill="white"/>
</clipPath>
</defs>
</svg>
