<svg width="48" height="48" viewBox="0 0 48 48" fill="none" xmlns="http://www.w3.org/2000/svg">
<g clip-path="url(#clip0_332_6443)">
<path d="M30 20.0002L39.106 15.4482C39.4108 15.2959 39.7496 15.224 40.09 15.2393C40.4304 15.2547 40.7613 15.3567 41.0512 15.5358C41.3411 15.715 41.5805 15.9652 41.7465 16.2628C41.9126 16.5604 41.9998 16.8955 42 17.2362V30.7642C41.9998 31.105 41.9126 31.4401 41.7465 31.7377C41.5805 32.0353 41.3411 32.2855 41.0512 32.4646C40.7613 32.6437 40.4304 32.7458 40.09 32.7611C39.7496 32.7765 39.4108 32.7046 39.106 32.5522L30 28.0002V20.0002Z" stroke="#4640DE" stroke-width="3" stroke-linecap="round" stroke-linejoin="round"/>
<path d="M26 12H10C7.79086 12 6 13.7909 6 16V32C6 34.2091 7.79086 36 10 36H26C28.2091 36 30 34.2091 30 32V16C30 13.7909 28.2091 12 26 12Z" stroke="#4640DE" stroke-width="3" stroke-linecap="round" stroke-linejoin="round"/>
</g>
<defs>
<clipPath id="clip0_332_6443">
<rect width="48" height="48" fill="white"/>
</clipPath>
</defs>
</svg>
