<svg width="24" height="24" viewBox="0 0 24 24" fill="none" xmlns="http://www.w3.org/2000/svg">
<g clip-path="url(#clip0_332_689)">
<path d="M14.9999 7.00045L8.49995 13.5005C8.10212 13.8983 7.87863 14.4378 7.87863 15.0005C7.87863 15.5631 8.10212 16.1026 8.49995 16.5005C8.89777 16.8983 9.43734 17.1218 9.99995 17.1218C10.5626 17.1218 11.1021 16.8983 11.4999 16.5005L17.9999 10.0005C18.7956 9.2048 19.2426 8.12567 19.2426 7.00045C19.2426 5.87523 18.7956 4.7961 17.9999 4.00045C17.2043 3.2048 16.1252 2.75781 14.9999 2.75781C13.8747 2.75781 12.7956 3.2048 11.9999 4.00045L5.49995 10.5005C4.30647 11.6939 3.63599 13.3126 3.63599 15.0005C3.63599 16.6883 4.30647 18.307 5.49995 19.5005C6.69342 20.6939 8.31212 21.3644 9.99995 21.3644C11.6878 21.3644 13.3065 20.6939 14.4999 19.5005L20.9999 13.0005" stroke="#4640DE" stroke-width="2" stroke-linecap="round" stroke-linejoin="round"/>
</g>
<defs>
<clipPath id="clip0_332_689">
<rect width="24" height="24" fill="white"/>
</clipPath>
</defs>
</svg>
