<svg width="16" height="16" viewBox="0 0 16 16" fill="none" xmlns="http://www.w3.org/2000/svg">
<g clip-path="url(#clip0_332_9831)">
<path d="M4.66667 8.6663V3.33296C4.66667 3.15615 4.59643 2.98658 4.4714 2.86156C4.34638 2.73653 4.17681 2.6663 4 2.6663H2.66667C2.48986 2.6663 2.32029 2.73653 2.19526 2.86156C2.07024 2.98658 2 3.15615 2 3.33296V7.99963C2 8.17644 2.07024 8.34601 2.19526 8.47103C2.32029 8.59606 2.48986 8.6663 2.66667 8.6663H4.66667ZM4.66667 8.6663C5.37391 8.6663 6.05219 8.94725 6.55228 9.44734C7.05238 9.94744 7.33333 10.6257 7.33333 11.333V11.9996C7.33333 12.3533 7.47381 12.6924 7.72386 12.9424C7.97391 13.1925 8.31304 13.333 8.66667 13.333C9.02029 13.333 9.35943 13.1925 9.60948 12.9424C9.85952 12.6924 10 12.3533 10 11.9996V8.6663H12C12.3536 8.6663 12.6928 8.52582 12.9428 8.27577C13.1929 8.02572 13.3333 7.68658 13.3333 7.33296L12.6667 3.99963C12.5708 3.59065 12.3889 3.23947 12.1484 2.99899C11.908 2.75851 11.6219 2.64175 11.3333 2.6663H6.66667C6.13623 2.6663 5.62753 2.87701 5.25245 3.25208C4.87738 3.62716 4.66667 4.13586 4.66667 4.6663" stroke="#4640DE" stroke-width="2" stroke-linecap="round" stroke-linejoin="round"/>
</g>
<defs>
<clipPath id="clip0_332_9831">
<rect width="16" height="16" fill="white"/>
</clipPath>
</defs>
</svg>
