<svg width="10" height="11" viewBox="0 0 10 11" fill="none" xmlns="http://www.w3.org/2000/svg">
<g clip-path="url(#clip0_332_23299)">
<path fill-rule="evenodd" clip-rule="evenodd" d="M5.21378 2.20898C5.43001 2.20898 5.6053 2.38427 5.6053 2.6005V8.08174C5.6053 8.29797 5.43001 8.47326 5.21378 8.47326C4.99755 8.47326 4.82227 8.29797 4.82227 8.08174V2.6005C4.82227 2.38427 4.99755 2.20898 5.21378 2.20898Z" fill="white"/>
<path fill-rule="evenodd" clip-rule="evenodd" d="M2.08203 5.34074C2.08203 5.12451 2.25732 4.94922 2.47355 4.94922H7.95479C8.17102 4.94922 8.34631 5.12451 8.34631 5.34074C8.34631 5.55696 8.17102 5.73225 7.95479 5.73225H2.47355C2.25732 5.73225 2.08203 5.55696 2.08203 5.34074Z" fill="white"/>
</g>
<defs>
<clipPath id="clip0_332_23299">
<rect width="9.39641" height="9.39641" fill="white" transform="translate(0.515625 0.642578)"/>
</clipPath>
</defs>
</svg>
