<svg width="56" height="59" viewBox="0 0 56 59" fill="none" xmlns="http://www.w3.org/2000/svg">
<circle cx="28" cy="30.8447" r="28" fill="#4640DE"/>
<mask id="mask0_332_3333" style="mask-type:alpha" maskUnits="userSpaceOnUse" x="0" y="2" width="56" height="57">
<circle cx="28" cy="30.8447" r="28" fill="#C0FBE8"/>
</mask>
<g mask="url(#mask0_332_3333)">
<path d="M41.1554 34.0476L33.1194 26.0116H10.8421L10.4089 25.3936C9.24851 25.4462 8.32385 26.4034 8.32385 27.5768V66.6588C8.32385 67.8659 9.30241 68.8446 10.5096 68.8446H39.3621C40.5355 68.8446 41.4927 67.9199 41.5454 66.7596L41.1554 66.3696C41.1554 65.0707 41.1554 35.5066 41.1554 34.0476Z" fill="#1B1782"/>
<path d="M10.4078 25.3935C10.4039 25.4802 10.4053 64.2806 10.4053 64.5763C10.4053 65.7835 11.3839 66.7621 12.5911 66.7621C12.7976 66.7621 41.4595 66.7635 41.5444 66.7596C41.5483 66.6721 41.5469 34.6789 41.5469 34.4401L32.4977 25.3909C32.3376 25.3908 10.4954 25.3894 10.4078 25.3935Z" fill="#2B24D1"/>
<path d="M39.5358 27.4121L37.0433 20.8447H15.0542C13.847 20.8447 12.8684 21.8234 12.8684 23.0305V62.1125C12.8684 63.3196 13.8471 64.2983 15.0542 64.2983H40.8952C41.7669 64.2983 42.5192 63.7879 42.8701 63.0499H44.3542V28.754L39.5358 27.4121Z" fill="#EAF6FF"/>
<path d="M43.083 28.3994V29.8939V62.1124C43.083 63.3197 42.1043 64.2982 40.8972 64.2982H43.9086C45.1159 64.2982 46.0944 63.3196 46.0944 62.1124V29.8939L44.3562 28.7541L43.083 28.3994Z" fill="#D8ECFE"/>
<rect x="24.4547" y="32.8447" width="18" height="2" rx="1" fill="#82AEE3"/>
<rect x="24.4547" y="38.8447" width="18" height="2" rx="1" fill="#82AEE3"/>
<rect x="24.4547" y="44.8447" width="18" height="2" rx="1" fill="#82AEE3"/>
<rect x="21.4547" y="50.8447" width="21" height="2" rx="1" fill="#82AEE3"/>
<path d="M39.23 29.8939H46.0934L37.0442 20.8447V27.7082C37.0442 28.9153 38.0228 29.8939 39.23 29.8939Z" fill="#B3DAFE"/>
</g>
<g clip-path="url(#clip0_332_3333)">
<path d="M17.9053 43.4666C17.9053 42.175 16.8565 41.1279 15.5627 41.1279C14.269 41.1279 13.2202 42.175 13.2202 43.4666C13.2202 44.7583 14.269 45.8054 15.5627 45.8054C16.8565 45.8054 17.9053 44.7583 17.9053 43.4666Z" fill="#F7C92B"/>
<path d="M15.5627 41.1279C15.3259 41.1279 15.0973 41.1633 14.8818 41.2286C15.8434 41.5198 16.5435 42.4113 16.5435 43.4666C16.5435 44.5218 15.8434 45.4135 14.8818 45.7047C15.0973 45.77 15.3259 45.8054 15.5627 45.8054C16.8565 45.8054 17.9052 44.7583 17.9052 43.4666C17.9052 42.175 16.8565 41.1279 15.5627 41.1279Z" fill="#F2B51D"/>
<path d="M15.8375 29.8176C15.0851 29.9686 14.3528 29.4821 14.2016 28.7309C14.0504 27.9799 14.5377 27.2487 15.29 27.0978C16.0423 26.9469 16.7747 27.4333 16.9259 28.1845C17.077 28.9355 16.5897 29.6667 15.8375 29.8176Z" fill="#F7C92B"/>
<path d="M16.9251 28.1845C16.7739 27.4333 16.0415 26.9469 15.2892 27.0978C15.2192 27.1118 15.1516 27.131 15.0864 27.1545C15.5256 27.315 15.8733 27.6932 15.9722 28.1845C16.1094 28.8656 15.7212 29.5305 15.0866 29.7609C15.3188 29.8457 15.5765 29.8698 15.8367 29.8176C16.589 29.6667 17.0762 28.9355 16.9251 28.1845Z" fill="#F2B51D"/>
<path d="M21.3649 43.0752H9.76089C8.72253 43.0752 7.88086 42.2349 7.88086 41.1983C7.88086 40.6245 8.14102 40.0814 8.58841 39.7211L8.96118 39.4208C9.82346 38.7266 10.3249 37.68 10.3249 36.574V34.6015C10.3249 31.6912 12.6878 29.332 15.6029 29.332C18.5178 29.332 20.8809 31.6912 20.8809 34.6015V36.6105C20.8809 37.6955 21.3635 38.7247 22.1983 39.4196L22.5613 39.7217C22.9945 40.0823 23.2449 40.6164 23.2449 41.1794V41.1983C23.2449 42.2349 22.4033 43.0752 21.3649 43.0752Z" fill="#F7E249"/>
<path d="M22.5613 39.7219L22.1983 39.4198C21.3635 38.7247 20.8809 37.6957 20.8809 36.6105V34.6015C20.8809 31.6913 18.5177 29.332 15.6028 29.332C15.0863 29.332 14.5874 29.4065 14.1157 29.5446C16.3066 30.1856 17.9066 32.2069 17.9066 34.6015V36.6105C17.9066 37.6957 18.3893 38.7247 19.2241 39.4198L19.5872 39.7219C20.0203 40.0825 20.2708 40.6165 20.2708 41.1796V41.1985C20.2708 42.235 19.4291 43.0753 18.3908 43.0753H21.365C22.4032 43.0753 23.2449 42.235 23.2449 41.1985V41.1796C23.2449 40.6165 22.9945 40.0825 22.5613 39.7219Z" fill="#F7C92B"/>
</g>
<ellipse cx="19.9565" cy="6.74459" rx="1.82608" ry="1.83932" fill="#56CDAD"/>
<ellipse cx="48.5652" cy="2.45241" rx="2.43478" ry="2.45241" fill="#FFB23F"/>
<ellipse cx="5.3913" cy="13.8822" rx="2.3913" ry="2.40862" fill="#3F8CFF"/>
<ellipse cx="52.4787" cy="38.0124" rx="1.21739" ry="1.22623" fill="#F59E00"/>
<ellipse cx="48.3052" cy="17.4293" rx="1.21739" ry="1.2262" fill="#56CDAD"/>
<defs>
<clipPath id="clip0_332_3333">
<rect width="19.9609" height="20" fill="white" transform="translate(6.45508 25.8447)"/>
</clipPath>
</defs>
</svg>
