<svg width="49" height="48" viewBox="0 0 49 48" fill="none" xmlns="http://www.w3.org/2000/svg">
<path d="M43.2717 7.19793C42.5869 6.53058 41.6815 6.1773 40.7261 6.20136C38.8383 6.25003 37.3025 7.8502 37.3025 9.76866V18.6675C36.0656 18.2322 34.6321 18.5082 33.6447 19.4957L24.8748 28.2656C24.6782 28.4622 24.4982 28.6709 24.3337 28.8892C24.1691 28.6708 23.989 28.4622 23.7925 28.2655L15.0226 19.4956C14.0353 18.5082 12.6018 18.2322 11.3648 18.6674V9.71584C11.3648 8.75959 10.9876 7.86536 10.3027 7.19793C9.61791 6.53058 8.71306 6.17714 7.75712 6.20136C5.86937 6.25003 4.3335 7.8502 4.3335 9.76866V22.9109C4.3335 24.1098 4.67256 25.2788 5.31397 26.2914L11.7736 36.4901C12.3667 37.4265 12.6802 38.5072 12.6802 39.6155V42.8275C12.6802 43.4747 13.2049 43.9994 13.8521 43.9994H34.8154C35.4626 43.9994 35.9873 43.4747 35.9873 42.8275V39.6155C35.9873 38.5072 36.3007 37.4265 36.8938 36.4902L43.3534 26.2915C43.9948 25.2788 44.3338 24.1098 44.3338 22.9109V9.71584C44.3338 8.75966 43.9566 7.86544 43.2717 7.19793ZM13.7536 35.236L7.29399 25.0373C6.89047 24.4003 6.67726 23.665 6.67726 22.9109V9.76866C6.67726 9.10982 7.18875 8.5606 7.81751 8.54443C8.13673 8.53669 8.43876 8.65412 8.66697 8.87646C8.89525 9.09896 9.02103 9.39709 9.02103 9.71584V22.0206C9.02103 22.0532 9.0233 22.0852 9.02588 22.117C9.05853 22.9717 9.39971 23.8165 10.0507 24.4675L14.3252 28.742C14.7828 29.1997 15.5248 29.1997 15.9825 28.742C16.4402 28.2844 16.4402 27.5424 15.9825 27.0847L11.708 22.8102C11.2511 22.3533 11.2511 21.6098 11.708 21.153C12.165 20.6961 12.9084 20.6961 13.3654 21.153L22.1351 29.9227C22.7972 30.5849 23.1618 31.4687 23.1618 32.4113V41.6556H15.0239V39.6155C15.0239 38.0625 14.5847 36.5481 13.7536 35.236ZM41.99 22.9109C41.99 23.665 41.7768 24.4003 41.3732 25.0373L34.9137 35.236C34.0826 36.548 33.6434 38.0625 33.6434 39.6155V41.6556H25.5055V32.4113C25.5055 31.4687 25.8702 30.5849 26.5321 29.9228L35.302 21.1529C35.7591 20.696 36.5024 20.696 36.9593 21.1529C37.414 21.5894 37.414 22.3739 36.959 22.8105L32.6848 27.0875C32.2274 27.5453 32.2275 28.2872 32.6854 28.7447C33.143 29.2022 33.885 29.2021 34.3427 28.7442L38.6166 24.4675C39.2628 23.8213 39.6254 22.9677 39.6445 22.057C39.6449 22.0448 39.6463 22.0329 39.6463 22.0206V9.76866C39.6463 9.10982 40.1578 8.5606 40.7865 8.54443C41.1041 8.53576 41.4077 8.65412 41.636 8.87646C41.8643 9.09904 41.99 9.39717 41.99 9.71592V22.9109Z" fill="#4640DE" stroke="#4640DE" stroke-width="0.5"/>
<path d="M16.1673 14.3305C16.2174 14.3849 16.3899 14.5549 19.6734 17.7566C21.3859 19.4266 23.3255 21.3179 23.4817 21.4754C23.7024 21.705 24.0073 21.8352 24.3265 21.8352C24.6501 21.8353 24.9592 21.7014 25.1806 21.4659C25.3476 21.2939 27.1408 19.5484 28.7238 18.0074C31.4954 15.3094 32.376 14.4503 32.4862 14.3307C32.5115 14.3033 32.5354 14.2748 32.5576 14.2455C36.3457 9.43712 32.8958 4.03856 28.0062 4.01536C26.6792 4.03583 25.4205 4.49146 24.3146 5.34349C21.4669 3.18848 18.3337 3.88778 16.4795 5.60232C13.9781 7.88742 13.8541 11.7039 16.133 14.2916C16.1442 14.3048 16.1556 14.3178 16.1673 14.3305ZM18.0708 7.32312C19.2641 6.21944 21.4033 5.66568 23.5038 7.73711C23.7266 7.95672 24.0291 8.07789 24.3406 8.07445C24.6534 8.0707 24.9517 7.94211 25.1691 7.71726C26.4699 6.37194 28.7186 5.67279 30.5822 7.31617C31.8 8.39016 32.5666 10.4575 30.7424 12.7627C30.448 13.0582 28.5924 14.8646 27.0889 16.3281C25.7621 17.6197 24.8849 18.474 24.3253 19.0206C23.5272 18.2394 18.4985 13.3402 17.8956 12.7459C16.7034 11.3025 16.2534 9.00384 18.0708 7.32312Z" fill="#4640DE" stroke="#4640DE" stroke-width="0.5"/>
</svg>
