<svg width="83" height="32" viewBox="0 0 83 32" fill="none" xmlns="http://www.w3.org/2000/svg">
<g opacity="0.3" clip-path="url(#clip0_332_16884)">
<path d="M0.304688 0.446289H6.24494V6.41618H0.304688V0.446289Z" fill="white"/>
<path d="M6.09745 31.5512V10.0297H0.453125V31.5299H6.09753L6.09745 31.5512ZM43.4726 31.7636V26.4948C42.6481 26.4948 41.9505 26.4523 41.4432 26.3674C40.8512 26.2824 40.4074 26.0699 40.1114 25.7725C39.8153 25.4751 39.6251 25.0501 39.5194 24.4765C39.4349 23.9453 39.3926 23.2443 39.3926 22.3945V14.8949H43.4726V10.0297H39.3925V1.65911H33.7481V22.4583C33.7481 24.2216 33.8962 25.7087 34.1921 26.8985C34.4881 28.067 34.9955 29.023 35.6931 29.7453C36.3906 30.4677 37.3208 30.9775 38.4413 31.2963C39.5828 31.6149 41.0203 31.7636 42.7327 31.7636H43.4726ZM75.7742 31.5512V0.00195312H70.1299V31.5512H75.7742ZM28.3155 12.1543C26.7511 10.4546 24.5526 9.60483 21.7621 9.60483C20.4092 9.60483 19.1619 9.88103 18.0626 10.4334C16.9423 10.9858 16.0121 11.7506 15.2511 12.7278L14.9551 13.1315V10.0297H9.39538V31.5299H14.9974V20.0787V20.4824C15.0608 18.4641 15.547 16.9769 16.4771 16.0209C17.4708 15.0011 18.6757 14.4913 20.0498 14.4913C21.6776 14.4913 22.9248 15.0011 23.7493 15.9784C24.5526 16.9557 24.9753 18.3366 24.9753 20.1V31.5299H30.6619V19.3351C30.6831 16.2758 29.8799 13.8539 28.3155 12.1543ZM67.2125 20.7585C67.2125 19.2077 66.9377 17.763 66.4092 16.4033C65.8595 15.0648 65.0985 13.8751 64.1473 12.8553C63.1748 11.8356 62.0121 11.0495 60.6592 10.4759C59.3062 9.90223 57.8053 9.62603 56.1776 9.62603C54.6343 9.62603 53.1756 9.92351 51.8227 10.4971C50.4698 11.092 49.2859 11.8781 48.2924 12.8766C47.2988 13.8751 46.4955 15.0649 45.9247 16.4246C45.3328 17.7843 45.058 19.2502 45.058 20.8011C45.058 22.352 45.3329 23.8179 45.8825 25.1776C46.4321 26.5373 47.2143 27.727 48.1867 28.7256C49.1591 29.7241 50.3641 30.5314 51.7593 31.105C53.1545 31.6999 54.6978 31.9974 56.3467 31.9974C61.1243 31.9974 64.0838 29.8091 65.8595 27.7695L61.8007 24.6677C60.9551 25.6875 58.9257 27.0685 56.389 27.0685C54.8035 27.0685 53.4928 26.7072 52.4992 25.9637C51.5056 25.2413 50.8292 24.2216 50.4697 22.9681L50.4064 22.7769H67.2125V20.7585ZM50.4486 18.7828C50.4486 17.2106 52.2455 14.47 56.1141 14.4488C59.9826 14.4488 61.8007 17.1894 61.8007 18.7615L50.4486 18.7828ZM82.2007 28.8318C82.095 28.5769 81.9471 28.3644 81.7568 28.1732C81.5666 27.982 81.3551 27.8333 81.1015 27.727C80.8478 27.6208 80.573 27.5571 80.2982 27.5571C80.0022 27.5571 79.7486 27.6208 79.4949 27.727C79.2412 27.8333 79.0298 27.982 78.8395 28.1732C78.6493 28.3644 78.5013 28.5769 78.3956 28.8318C78.2899 29.0867 78.2265 29.3629 78.2265 29.6391C78.2265 29.9365 78.2899 30.1914 78.3956 30.4465C78.5013 30.7013 78.6493 30.9138 78.8395 31.105C79.0298 31.2963 79.2412 31.445 79.4949 31.5512C79.7485 31.6574 80.0234 31.7211 80.2982 31.7211C80.5942 31.7211 80.8478 31.6574 81.1015 31.5512C81.3551 31.445 81.5666 31.2963 81.7569 31.105C81.9471 30.9138 82.095 30.7014 82.2008 30.4465C82.3066 30.1915 82.3699 29.9153 82.3699 29.639C82.3699 29.3627 82.3064 29.0867 82.2008 28.8318H82.2007ZM81.8626 30.319C81.778 30.5314 81.6512 30.7226 81.5031 30.8714C81.3552 31.0201 81.1649 31.1475 80.9535 31.2325C80.7421 31.3175 80.5307 31.3599 80.2771 31.3599C80.0445 31.3599 79.8119 31.3175 79.6006 31.2325C79.3893 31.1476 79.1989 31.0201 79.0509 30.8713C78.903 30.7226 78.7761 30.5314 78.6915 30.319C78.607 30.1065 78.5647 29.894 78.5647 29.6391C78.5647 29.4054 78.607 29.1717 78.6916 28.9593C78.7761 28.7468 78.903 28.5556 79.0509 28.4069C79.1989 28.2582 79.3892 28.1307 79.6006 28.0456C79.8119 27.9607 80.0233 27.9182 80.2771 27.9182C80.5096 27.9182 80.7421 27.9608 80.9535 28.0457C81.1649 28.1307 81.3552 28.2582 81.5031 28.407C81.6512 28.5556 81.778 28.7467 81.8626 28.9593C81.9471 29.1718 81.9893 29.3842 81.9893 29.6391C81.9893 29.894 81.9471 30.1065 81.8626 30.319ZM80.6787 29.8303C80.8477 29.8091 80.9746 29.7453 81.0803 29.6391C81.186 29.5329 81.2495 29.3842 81.2495 29.1717C81.2495 28.938 81.186 28.768 81.0381 28.6406C80.9113 28.5131 80.6787 28.4493 80.4039 28.4493H79.4737V30.8501H79.9177V29.8728H80.2347L80.8267 30.8501H81.2917L80.6787 29.8303ZM80.4461 29.4691H79.9175V28.7893H80.446C80.5095 28.7893 80.5729 28.8105 80.6364 28.8318C80.6998 28.8531 80.7421 28.8955 80.7631 28.938C80.8055 28.9805 80.8055 29.0442 80.8055 29.1292C80.8055 29.2141 80.7843 29.278 80.7631 29.3204C80.7209 29.3629 80.6786 29.4054 80.6364 29.4267C80.5729 29.4479 80.5095 29.4691 80.446 29.4691H80.4461Z" fill="white"/>
</g>
<defs>
<clipPath id="clip0_332_16884">
<rect width="82.0647" height="32" fill="white" transform="translate(0.304688)"/>
</clipPath>
</defs>
</svg>
