<svg width="32" height="32" viewBox="0 0 32 32" fill="none" xmlns="http://www.w3.org/2000/svg">
<circle opacity="0.1" cx="16" cy="16" r="16" fill="white"/>
<path fill-rule="evenodd" clip-rule="evenodd" d="M21.1394 21H19.1408V17.5005C19.1408 16.5405 18.7176 16.0049 17.9587 16.0049C17.1327 16.0049 16.6426 16.563 16.6426 17.5005V21H14.644V14.5H16.6426V15.231C16.6426 15.231 17.2696 14.1299 18.6826 14.1299C20.0961 14.1299 21.1394 14.9931 21.1394 16.7791V21ZM12.3666 13.4604C11.6926 13.4604 11.1465 12.9095 11.1465 12.23C11.1465 11.551 11.6926 11 12.3666 11C13.0401 11 13.5863 11.551 13.5863 12.23C13.5868 12.9095 13.0401 13.4604 12.3666 13.4604ZM11.1465 21H13.6447V14.5H11.1465V21Z" fill="white"/>
</svg>
