<svg width="40" height="40" viewBox="0 0 40 40" fill="none" xmlns="http://www.w3.org/2000/svg">
<circle cx="20" cy="20" r="20" fill="white"/>
<path fill-rule="evenodd" clip-rule="evenodd" d="M18.483 28.236C19.001 28.814 19.666 29.1315 20.356 29.1315H20.357C21.05 29.1315 21.718 28.8139 22.237 28.235C22.515 27.9275 22.989 27.9025 23.296 28.1799C23.604 28.4574 23.629 28.9331 23.352 29.2406C22.544 30.1391 21.481 30.6339 20.357 30.6339H20.355C19.234 30.6329 18.173 30.1381 17.368 29.2396C17.091 28.9321 17.116 28.4564 17.424 28.1799C17.732 27.9015 18.206 27.9265 18.483 28.236ZM20.4058 9.09863C24.8508 9.09863 27.8368 12.5663 27.8368 15.8046C27.8368 17.4704 28.2598 18.1765 28.7088 18.9257C29.1528 19.665 29.6558 20.5043 29.6558 22.0909C29.3068 26.1446 25.0818 26.4751 20.4058 26.4751C15.7298 26.4751 11.5038 26.1446 11.1588 22.155C11.1558 20.5043 11.6588 19.665 12.1028 18.9257L12.2595 18.6615C12.6455 17.9971 12.9748 17.2744 12.9748 15.8046C12.9748 12.5663 15.9608 9.09863 20.4058 9.09863ZM20.4058 10.6011C16.9108 10.6011 14.4748 13.3436 14.4748 15.8046C14.4748 17.887 13.8978 18.8496 13.3878 19.699C12.9788 20.3811 12.6558 20.92 12.6558 22.0909C12.8228 23.98 14.0678 24.9727 20.4058 24.9727C26.7088 24.9727 27.9928 23.936 28.1588 22.0258C28.1558 20.92 27.8328 20.3811 27.4238 19.699C26.9138 18.8496 26.3368 17.887 26.3368 15.8046C26.3368 13.3436 23.9008 10.6011 20.4058 10.6011Z" fill="#25324B"/>
<path d="M26 17.5802C27.9338 17.5802 29.5 16.0102 29.5 14.0752C29.5 12.1403 27.9338 10.5703 26 10.5703C24.0662 10.5703 22.5 12.1403 22.5 14.0752C22.5 16.0102 24.0662 17.5802 26 17.5802Z" fill="#FF6550" stroke="white"/>
</svg>
