<svg width="40" height="40" viewBox="0 0 40 40" fill="none" xmlns="http://www.w3.org/2000/svg">
<circle cx="20" cy="20" r="20" fill="white"/>
<path fill-rule="evenodd" clip-rule="evenodd" d="M18.4829 28.236C19.0009 28.814 19.6659 29.1315 20.3559 29.1315H20.3569C21.0499 29.1315 21.7179 28.8139 22.2369 28.235C22.5149 27.9275 22.9889 27.9025 23.2959 28.1799C23.6039 28.4574 23.6289 28.9331 23.3519 29.2406C22.5439 30.1391 21.4809 30.6339 20.3569 30.6339H20.3549C19.2339 30.6329 18.1729 30.1381 17.3679 29.2396C17.0909 28.9321 17.1159 28.4564 17.4239 28.1799C17.7319 27.9015 18.2059 27.9265 18.4829 28.236ZM20.4057 9.09863C24.8507 9.09863 27.8367 12.5663 27.8367 15.8046C27.8367 17.4704 28.2597 18.1765 28.7087 18.9257C29.1527 19.665 29.6557 20.5043 29.6557 22.0909C29.3067 26.1446 25.0817 26.4751 20.4057 26.4751C15.7297 26.4751 11.5037 26.1446 11.1587 22.155C11.1557 20.5043 11.6587 19.665 12.1027 18.9257L12.2595 18.6615C12.6454 17.9971 12.9747 17.2744 12.9747 15.8046C12.9747 12.5663 15.9607 9.09863 20.4057 9.09863ZM20.4057 10.6011C16.9107 10.6011 14.4747 13.3436 14.4747 15.8046C14.4747 17.887 13.8977 18.8496 13.3877 19.699C12.9787 20.3811 12.6557 20.92 12.6557 22.0909C12.8227 23.98 14.0677 24.9727 20.4057 24.9727C26.7087 24.9727 27.9927 23.936 28.1587 22.0258C28.1557 20.92 27.8327 20.3811 27.4237 19.699C26.9137 18.8496 26.3367 17.887 26.3367 15.8046C26.3367 13.3436 23.9007 10.6011 20.4057 10.6011Z" fill="#25324B"/>
<path d="M26 17.5802C27.9338 17.5802 29.5 16.0102 29.5 14.0752C29.5 12.1403 27.9338 10.5703 26 10.5703C24.0662 10.5703 22.5 12.1403 22.5 14.0752C22.5 16.0102 24.0662 17.5802 26 17.5802Z" fill="#FF6550" stroke="white"/>
</svg>
