<svg width="40" height="40" viewBox="0 0 40 40" fill="none" xmlns="http://www.w3.org/2000/svg">
<circle cx="20" cy="20" r="19.5" fill="white" stroke="#4640DE"/>
<path fill-rule="evenodd" clip-rule="evenodd" d="M18.4824 28.236C19.0004 28.814 19.6654 29.1315 20.3554 29.1315H20.3564C21.0494 29.1315 21.7174 28.8139 22.2364 28.235C22.5144 27.9275 22.9884 27.9025 23.2954 28.1799C23.6034 28.4574 23.6284 28.9331 23.3514 29.2406C22.5434 30.1391 21.4804 30.6339 20.3564 30.6339H20.3544C19.2334 30.6329 18.1724 30.1381 17.3674 29.2396C17.0904 28.9321 17.1154 28.4564 17.4234 28.1799C17.7314 27.9015 18.2054 27.9265 18.4824 28.236ZM20.4052 9.09863C24.8502 9.09863 27.8362 12.5663 27.8362 15.8046C27.8362 17.4704 28.2592 18.1765 28.7082 18.9257C29.1522 19.665 29.6552 20.5043 29.6552 22.0909C29.3062 26.1446 25.0812 26.4751 20.4052 26.4751C15.7292 26.4751 11.5032 26.1446 11.1582 22.155C11.1552 20.5043 11.6582 19.665 12.1022 18.9257L12.259 18.6615C12.6449 17.9971 12.9742 17.2744 12.9742 15.8046C12.9742 12.5663 15.9602 9.09863 20.4052 9.09863ZM20.4052 10.6011C16.9102 10.6011 14.4742 13.3436 14.4742 15.8046C14.4742 17.887 13.8972 18.8496 13.3872 19.699C12.9782 20.3811 12.6552 20.92 12.6552 22.0909C12.8222 23.98 14.0672 24.9727 20.4052 24.9727C26.7082 24.9727 27.9922 23.936 28.1582 22.0258C28.1552 20.92 27.8322 20.3811 27.4232 19.699C26.9132 18.8496 26.3362 17.887 26.3362 15.8046C26.3362 13.3436 23.9002 10.6011 20.4052 10.6011Z" fill="#25324B"/>
<path d="M26 17.5802C27.9338 17.5802 29.5 16.0102 29.5 14.0752C29.5 12.1403 27.9338 10.5703 26 10.5703C24.0662 10.5703 22.5 12.1403 22.5 14.0752C22.5 16.0102 24.0662 17.5802 26 17.5802Z" fill="#FF6550" stroke="white"/>
</svg>
