<svg width="32" height="32" viewBox="0 0 32 32" fill="none" xmlns="http://www.w3.org/2000/svg">
<circle opacity="0.1" cx="16" cy="16" r="16" fill="white"/>
<path fill-rule="evenodd" clip-rule="evenodd" d="M13.8798 21C18.4049 21 20.8799 17.1522 20.8799 13.8158C20.8799 13.7062 20.8799 13.5975 20.8727 13.4892C21.3542 13.1323 21.7697 12.6892 22.1001 12.1821C21.6516 12.3864 21.1749 12.5204 20.6875 12.5795C21.2007 12.2638 21.5851 11.7679 21.7691 11.1827C21.2859 11.4768 20.7576 11.6844 20.2066 11.7958C19.2749 10.7792 17.7165 10.73 16.7254 11.6862C16.0869 12.3028 15.8152 13.2221 16.0137 14.099C14.0357 13.9968 12.1926 13.0381 10.943 11.461C10.2901 12.6148 10.624 14.0902 11.7051 14.8311C11.3136 14.8194 10.9304 14.7112 10.5881 14.5155V14.5476C10.5887 15.7494 11.4143 16.7842 12.5619 17.0223C12.1998 17.1238 11.8196 17.1385 11.4515 17.0653C11.7734 18.0942 12.6974 18.7989 13.7497 18.8192C12.8785 19.5219 11.8022 19.9035 10.6942 19.9023C10.4987 19.9016 10.3033 19.8899 10.1084 19.866C11.2338 20.6068 12.5427 21 13.8798 20.9982" fill="white"/>
</svg>
