<svg width="16" height="20" viewBox="0 0 16 20" fill="none" xmlns="http://www.w3.org/2000/svg">
<path fill-rule="evenodd" clip-rule="evenodd" d="M3 2C2.73478 2 2.48043 2.10536 2.29289 2.29289C2.10536 2.48043 2 2.73478 2 3V17C2 17.2652 2.10536 17.5196 2.29289 17.7071C2.48043 17.8946 2.73478 18 3 18H13C13.2652 18 13.5196 17.8946 13.7071 17.7071C13.8946 17.5196 14 17.2652 14 17L14 7.41421L8.58589 2.00011L3 2ZM0.87868 0.87868C1.44129 0.31607 2.20435 0 3 0H8.586C9.11634 0.000113308 9.62513 0.210861 10.0001 0.585893M10.0001 0.585893L15.414 5.99979C15.414 5.99975 15.414 5.99982 15.414 5.99979C15.789 6.37476 15.9999 6.88345 16 7.41379V17C16 17.7957 15.6839 18.5587 15.1213 19.1213C14.5587 19.6839 13.7957 20 13 20H3C2.20435 20 1.44129 19.6839 0.87868 19.1213C0.31607 18.5587 0 17.7957 0 17V3C0 2.20435 0.31607 1.44129 0.87868 0.87868M4 10C4 9.44771 4.44772 9 5 9H11C11.5523 9 12 9.44771 12 10C12 10.5523 11.5523 11 11 11H5C4.44772 11 4 10.5523 4 10ZM4 14C4 13.4477 4.44772 13 5 13H11C11.5523 13 12 13.4477 12 14C12 14.5523 11.5523 15 11 15H5C4.44772 15 4 14.5523 4 14Z" fill="#4640DE"/>
</svg>
