<svg width="60" height="61" viewBox="0 0 60 61" fill="none" xmlns="http://www.w3.org/2000/svg">
<path fill-rule="evenodd" clip-rule="evenodd" d="M11.666 7.66634C10.6936 7.66634 9.76092 8.05265 9.07329 8.74028C8.38566 9.42792 7.99935 10.3605 7.99935 11.333V62.6663C7.99935 63.6388 8.38566 64.5714 9.07329 65.2591C9.76093 65.9467 10.6936 66.333 11.666 66.333H48.3327C49.3051 66.333 50.2378 65.9467 50.9254 65.2591C51.613 64.5714 51.9994 63.6388 51.9994 62.6663L51.9994 27.5185L32.1476 7.66673L11.666 7.66634ZM3.88784 3.55483C5.95074 1.49193 8.74864 0.333008 11.666 0.333008H32.148C34.0926 0.333423 35.9582 1.10617 37.3331 2.48128M37.3331 2.48128L57.184 22.3322C57.1839 22.3321 57.1842 22.3324 57.184 22.3322C58.5591 23.7071 59.3323 25.5723 59.3327 27.5169V62.6663C59.3327 65.5837 58.1738 68.3816 56.1109 70.4445C54.048 72.5074 51.2501 73.6663 48.3327 73.6663H11.666C8.74863 73.6663 5.95074 72.5074 3.88784 70.4445C1.82494 68.3816 0.666016 65.5837 0.666016 62.6663V11.333C0.666016 8.41563 1.82494 5.61773 3.88784 3.55483M15.3327 36.9997C15.3327 34.9746 16.9743 33.333 18.9994 33.333H40.9994C43.0244 33.333 44.666 34.9746 44.666 36.9997C44.666 39.0247 43.0244 40.6663 40.9994 40.6663H18.9994C16.9743 40.6663 15.3327 39.0247 15.3327 36.9997ZM15.3327 51.6663C15.3327 49.6413 16.9743 47.9997 18.9994 47.9997H40.9994C43.0244 47.9997 44.666 49.6413 44.666 51.6663C44.666 53.6914 43.0244 55.333 40.9994 55.333H18.9994C16.9743 55.333 15.3327 53.6914 15.3327 51.6663Z" fill="#515B6F"/>
</svg>
