<svg width="60" height="61" viewBox="0 0 60 61" fill="none" xmlns="http://www.w3.org/2000/svg">
<path fill-rule="evenodd" clip-rule="evenodd" d="M11.6666 7.66634C10.6942 7.66634 9.76153 8.05265 9.0739 8.74028C8.38627 9.42792 7.99996 10.3605 7.99996 11.333V62.6663C7.99996 63.6388 8.38627 64.5714 9.0739 65.2591C9.76154 65.9467 10.6942 66.333 11.6666 66.333H48.3333C49.3058 66.333 50.2384 65.9467 50.926 65.2591C51.6137 64.5714 52 63.6388 52 62.6663L52 27.5185L32.1482 7.66673L11.6666 7.66634ZM3.88845 3.55483C5.95135 1.49193 8.74925 0.333008 11.6666 0.333008H32.1486C34.0932 0.333423 35.9588 1.10617 37.3337 2.48128M37.3337 2.48128L57.1846 22.3322C57.1845 22.3321 57.1848 22.3324 57.1846 22.3322C58.5598 23.7071 59.3329 25.5723 59.3333 27.5169V62.6663C59.3333 65.5837 58.1744 68.3816 56.1115 70.4445C54.0486 72.5074 51.2507 73.6663 48.3333 73.6663H11.6666C8.74924 73.6663 5.95135 72.5074 3.88845 70.4445C1.82555 68.3816 0.666626 65.5837 0.666626 62.6663V11.333C0.666626 8.41563 1.82555 5.61773 3.88845 3.55483M15.3333 36.9997C15.3333 34.9746 16.9749 33.333 19 33.333H41C43.025 33.333 44.6666 34.9746 44.6666 36.9997C44.6666 39.0247 43.025 40.6663 41 40.6663H19C16.9749 40.6663 15.3333 39.0247 15.3333 36.9997ZM15.3333 51.6663C15.3333 49.6413 16.9749 47.9997 19 47.9997H41C43.025 47.9997 44.6666 49.6413 44.6666 51.6663C44.6666 53.6914 43.025 55.333 41 55.333H19C16.9749 55.333 15.3333 53.6914 15.3333 51.6663Z" fill="#515B6F"/>
</svg>
