<svg width="40" height="41" viewBox="0 0 40 41" fill="none" xmlns="http://www.w3.org/2000/svg">
<rect opacity="0.06" y="0.5" width="40" height="40" rx="4" fill="#4640DE"/>
<g clip-path="url(#clip0_332_4798)">
<path d="M26 12.5H14C12.8954 12.5 12 13.3954 12 14.5V16.5C12 17.6046 12.8954 18.5 14 18.5H26C27.1046 18.5 28 17.6046 28 16.5V14.5C28 13.3954 27.1046 12.5 26 12.5Z" fill="#4640DE" stroke="#4640DE" stroke-width="2" stroke-linecap="round" stroke-linejoin="round"/>
<path d="M26 22.5H14C12.8954 22.5 12 23.3954 12 24.5V26.5C12 27.6046 12.8954 28.5 14 28.5H26C27.1046 28.5 28 27.6046 28 26.5V24.5C28 23.3954 27.1046 22.5 26 22.5Z" fill="#4640DE" stroke="#4640DE" stroke-width="2" stroke-linecap="round" stroke-linejoin="round"/>
</g>
<defs>
<clipPath id="clip0_332_4798">
<rect width="24" height="24" fill="white" transform="translate(8 8.5)"/>
</clipPath>
</defs>
</svg>
