<svg width="40" height="41" viewBox="0 0 40 41" fill="none" xmlns="http://www.w3.org/2000/svg">
<g opacity="0.5" clip-path="url(#clip0_332_4790)">
<path d="M17 12.5H13C12.4477 12.5 12 12.9477 12 13.5V17.5C12 18.0523 12.4477 18.5 13 18.5H17C17.5523 18.5 18 18.0523 18 17.5V13.5C18 12.9477 17.5523 12.5 17 12.5Z" stroke="#515B6F" stroke-width="2" stroke-linecap="round" stroke-linejoin="round"/>
<path d="M27 12.5H23C22.4477 12.5 22 12.9477 22 13.5V17.5C22 18.0523 22.4477 18.5 23 18.5H27C27.5523 18.5 28 18.0523 28 17.5V13.5C28 12.9477 27.5523 12.5 27 12.5Z" stroke="#515B6F" stroke-width="2" stroke-linecap="round" stroke-linejoin="round"/>
<path d="M17 22.5H13C12.4477 22.5 12 22.9477 12 23.5V27.5C12 28.0523 12.4477 28.5 13 28.5H17C17.5523 28.5 18 28.0523 18 27.5V23.5C18 22.9477 17.5523 22.5 17 22.5Z" stroke="#515B6F" stroke-width="2" stroke-linecap="round" stroke-linejoin="round"/>
<path d="M27 22.5H23C22.4477 22.5 22 22.9477 22 23.5V27.5C22 28.0523 22.4477 28.5 23 28.5H27C27.5523 28.5 28 28.0523 28 27.5V23.5C28 22.9477 27.5523 22.5 27 22.5Z" stroke="#515B6F" stroke-width="2" stroke-linecap="round" stroke-linejoin="round"/>
</g>
<defs>
<clipPath id="clip0_332_4790">
<rect width="24" height="24" fill="white" transform="translate(8 8.5)"/>
</clipPath>
</defs>
</svg>
