<svg width="154" height="40" viewBox="0 0 154 40" fill="none" xmlns="http://www.w3.org/2000/svg">
<g opacity="0.3">
<path d="M37.5616 20.0003C37.5616 25.0221 35.5829 29.8383 32.0608 33.3892C28.5387 36.9402 23.7618 38.9351 18.7808 38.9351C13.7998 38.9351 9.02284 36.9402 5.50076 33.3892C1.97868 29.8383 0 25.0221 0 20.0003C0 14.9784 1.97868 10.1623 5.50076 6.61132C9.02284 3.06034 13.7998 1.06543 18.7808 1.06543C23.7618 1.06543 28.5387 3.06034 32.0608 6.61132C35.5829 10.1623 37.5616 14.9784 37.5616 20.0003Z" fill="white"/>
<path d="M18.9349 30.5534C13.7741 30.5718 8.40424 26.1381 8.37698 19.002C8.36789 14.2843 10.8938 9.74984 14.1102 7.05664C17.2631 4.42756 21.5699 2.75118 25.4769 2.73286C25.9328 2.71556 26.3888 2.76493 26.8307 2.87943C25.1153 3.2606 23.5776 4.214 22.4663 5.58544C21.355 6.95688 20.735 8.66618 20.7067 10.4369C20.7067 10.5651 20.7067 10.6934 20.7249 10.7483C26.4491 12.1499 29.0386 15.6309 29.0567 20.4494C29.0532 21.7837 28.7882 23.1042 28.2771 24.3351C27.7659 25.5659 27.0186 26.6828 26.0781 27.6217C25.1376 28.5605 24.0224 29.3028 22.7966 29.806C21.5707 30.3091 20.2584 30.5631 18.9349 30.5534Z" fill="#202430"/>
<path d="M49.6923 27.8416L43.959 14.0183H47.7115L51.3005 23.1972L54.7713 14.0183H58.3512L52.7724 27.8416H49.6923ZM68.3367 20.8612C68.3409 20.3052 68.2737 19.751 68.1368 19.2123C68.0212 18.7356 67.8178 18.2851 67.5372 17.8841C67.2843 17.5205 66.9556 17.2172 66.5741 16.9955C66.167 16.7639 65.7057 16.6468 65.2384 16.6565C64.7711 16.6463 64.3096 16.7634 63.9028 16.9955C63.5172 17.2152 63.1851 17.5187 62.9306 17.8841C62.6522 18.2885 62.4518 18.7423 62.34 19.2215C62.2039 19.7572 62.1367 20.3083 62.1401 20.8612C62.1355 21.4173 62.2027 21.9716 62.34 22.5101C62.4544 22.9854 62.6479 23.4376 62.9124 23.8476C63.1637 24.234 63.508 24.5501 63.9131 24.7663C64.3182 24.9825 64.771 25.0919 65.2293 25.0842C65.6875 25.0983 66.1413 24.9916 66.546 24.7747C66.9508 24.5578 67.2924 24.2383 67.5372 23.8476C67.8138 23.4443 68.0169 22.9945 68.1368 22.5193C68.2749 21.9778 68.3421 21.4203 68.3367 20.8612ZM71.7985 20.8704C71.7986 21.7719 71.6607 22.6679 71.3896 23.527C71.1253 24.3744 70.7096 25.1661 70.163 25.8629C69.5769 26.6062 68.826 27.2006 67.9708 27.5983C67.1155 27.996 66.1797 28.186 65.2384 28.153C64.2961 28.1838 63.3597 27.9929 62.5033 27.5954C61.6469 27.1979 60.8942 26.6047 60.3047 25.8629C59.7593 25.1653 59.3437 24.3739 59.0781 23.527C58.5381 21.8071 58.5381 19.9611 59.0781 18.2413C59.3439 17.4029 59.7597 16.6205 60.3047 15.9329C60.8593 15.2448 61.5573 14.6881 62.3491 14.3023C63.2511 13.8711 64.2404 13.6578 65.2384 13.6794C66.1738 13.6533 67.1027 13.8427 67.9545 14.2332C68.8064 14.6237 69.5586 15.205 70.1539 15.9329C70.6991 16.6107 71.1171 17.3802 71.3896 18.2413C71.6622 19.1024 71.7985 19.9818 71.7985 20.8704ZM82.3928 17.0688C81.7909 16.8131 81.1468 16.6733 80.4938 16.6565C79.9833 16.6316 79.4748 16.7359 79.0146 16.9599C78.5543 17.1839 78.157 17.5205 77.8589 17.939C77.5719 18.3411 77.3566 18.7906 77.2228 19.2673C77.0819 19.7585 77.0115 20.2675 77.0139 20.7788C77.0107 21.3337 77.0717 21.887 77.1956 22.4277C77.3048 22.9161 77.4986 23.3812 77.768 23.8018C78.0133 24.1888 78.3427 24.5145 78.7311 24.7545C79.1127 24.9926 79.5761 25.1209 80.094 25.1209C80.5622 25.1104 81.0208 24.9846 81.4297 24.7545C81.8215 24.5683 82.1548 24.2766 82.3928 23.9117V17.0688ZM82.6744 27.8416L82.5382 26.7789C82.1762 27.1754 81.745 27.5015 81.2661 27.7408C80.5717 28.0403 79.8195 28.1793 79.0649 28.1476C78.3102 28.1159 77.5722 27.9143 76.9048 27.5576C76.1894 27.1607 75.569 26.6104 75.0876 25.9453C74.5792 25.246 74.1978 24.4613 73.961 23.6277C73.7057 22.7344 73.5773 21.8092 73.5794 20.8796C73.5794 19.9727 73.7066 19.0932 73.9701 18.2322C74.2264 17.3961 74.6363 16.6162 75.1785 15.9329C75.7642 15.2008 76.5107 14.6161 77.3591 14.225C78.2075 13.8339 79.1344 13.6471 80.0668 13.6794C80.7937 13.6794 81.566 13.8168 82.3928 14.0824V8.72352H85.9182V27.8416H82.6744ZM95.8401 21.3559C95.0628 21.4084 94.2892 21.5063 93.5231 21.649C92.7599 21.8048 92.2329 22.0613 91.9331 22.4368C91.6524 22.7799 91.4983 23.2105 91.497 23.6552C91.497 24.1132 91.6605 24.4797 91.9967 24.7545C92.4037 25.0549 92.9014 25.2038 93.405 25.1759C93.8593 25.1759 94.3136 25.0842 94.7407 24.8919C95.1446 24.7141 95.5162 24.4695 95.8401 24.1682V21.3559ZM96.1217 27.8232L95.9854 26.7973C95.5824 27.2372 95.0853 27.5787 94.5317 27.7958C93.3674 28.2603 92.0749 28.2799 90.8973 27.8507C90.0518 27.5665 89.3191 27.0162 88.8072 26.2807C88.2952 25.5452 88.031 24.6634 88.0534 23.7651C88.0417 23.1602 88.1693 22.5607 88.4263 22.0139C88.6833 21.4671 89.0626 20.9879 89.5344 20.6139C90.0112 20.2399 90.5411 19.9404 91.1063 19.7253C92.1884 19.3384 93.3151 19.0921 94.459 18.9925L95.8219 18.8642V18.6627C95.8219 17.9024 95.622 17.3619 95.2313 17.0321C94.7658 16.6833 94.193 16.5113 93.614 16.5466C92.5842 16.5518 91.5813 16.8782 90.7428 17.481C90.5596 17.5983 90.3836 17.7268 90.2158 17.8657L89.0437 15.3741C89.6059 14.944 90.2234 14.5927 90.8791 14.3298C92.587 13.614 94.4826 13.4915 96.2671 13.9817C96.8807 14.175 97.4421 14.5076 97.9084 14.9538C98.3746 15.4 98.7332 15.9481 98.9566 16.5558C99.2297 17.322 99.3591 18.1328 99.3382 18.9467V27.8324L96.1217 27.8232ZM110.232 11.8747C109.604 11.5913 108.921 11.4535 108.233 11.4717C107.752 11.4717 107.334 11.6182 107.007 11.9205C106.671 12.2137 106.507 12.6992 106.507 13.3679V14.0183H109.469V16.8856H106.534V27.8416H103.009V16.8856H101.192V14.0183H103.009V13.2855C103.009 12.3786 103.127 11.6182 103.354 10.9953C103.54 10.4373 103.852 9.9311 104.268 9.51739C104.683 9.10368 105.188 8.7941 105.744 8.61359C107.363 8.17769 109.078 8.28378 110.632 8.91589L110.232 11.8747ZM119.845 20.8612C119.848 20.3053 119.781 19.7513 119.645 19.2123C119.53 18.7356 119.326 18.2851 119.046 17.8841C118.793 17.5205 118.464 17.2172 118.083 16.9955C117.676 16.7639 117.214 16.6468 116.747 16.6565C116.28 16.6463 115.818 16.7634 115.411 16.9955C115.027 17.2166 114.695 17.5199 114.439 17.8841C114.16 18.2894 113.957 18.7426 113.839 19.2215C113.563 20.3031 113.563 21.4377 113.839 22.5193C113.959 22.9914 114.156 23.4402 114.421 23.8476C114.669 24.2255 115.002 24.5392 115.393 24.7636C115.809 24.9895 116.275 25.1031 116.747 25.0934C117.204 25.1049 117.657 24.996 118.06 24.7776C118.463 24.5591 118.803 24.2386 119.046 23.8476C119.322 23.4443 119.525 22.9945 119.645 22.5193C119.782 21.9774 119.849 21.4202 119.845 20.8612ZM123.307 20.8704C123.309 21.772 123.171 22.6683 122.898 23.527C122.635 24.3751 122.22 25.167 121.672 25.8629C121.085 26.6062 120.335 27.2006 119.479 27.5983C118.624 27.996 117.688 28.186 116.747 28.153C115.805 28.1838 114.868 27.9929 114.012 27.5954C113.155 27.1979 112.403 26.6047 111.813 25.8629C111.268 25.1653 110.852 24.3739 110.587 23.527C110.039 21.8083 110.039 19.96 110.587 18.2413C110.85 17.4035 111.262 16.6212 111.804 15.9329C112.361 15.2437 113.063 14.687 113.858 14.3023C114.76 13.8711 115.749 13.6578 116.747 13.6794C117.682 13.6533 118.611 13.8427 119.463 14.2332C120.315 14.6237 121.067 15.205 121.662 15.9329C122.208 16.6107 122.626 17.3802 122.898 18.2413C123.171 19.1024 123.307 19.9818 123.307 20.8704ZM134.256 27.8416V19.9635C134.31 19.0979 134.08 18.2383 133.602 17.5176C133.389 17.2378 133.113 17.0135 132.797 16.8637C132.481 16.7138 132.133 16.6428 131.784 16.6565C131.245 16.6503 130.716 16.7997 130.258 17.0871C129.819 17.3547 129.413 17.6746 129.049 18.0398V27.8416H125.524V14.0183H128.74L128.904 15.1176C130.013 14.1853 131.412 13.6762 132.856 13.6794C133.583 13.6794 134.247 13.7893 134.855 14.0091C135.449 14.2255 135.983 14.5839 136.409 15.0534C136.854 15.5298 137.19 16.1527 137.427 16.913C137.663 17.6825 137.781 18.5986 137.781 19.6612V27.8416H134.256ZM148.748 19.2673C148.722 18.8374 148.62 18.4156 148.448 18.0215C148.308 17.6968 148.104 17.4039 147.848 17.1604C147.408 16.7496 146.831 16.5207 146.231 16.5191C145.587 16.5308 144.968 16.7745 144.487 17.2062C144.196 17.4671 143.961 17.7838 143.794 18.1378C143.627 18.4917 143.532 18.8758 143.514 19.2673H148.748ZM143.433 21.8231C143.505 22.9865 143.869 23.8293 144.523 24.3422C145.243 24.8821 146.125 25.1569 147.022 25.1209C147.86 25.1199 148.691 24.9646 149.475 24.6629C149.762 24.548 150.042 24.4134 150.311 24.2598C150.494 24.1546 150.665 24.0286 150.819 23.8842L151.764 26.7789C151.23 27.1436 150.645 27.4275 150.029 27.6217C148.904 27.9695 147.735 28.1485 146.558 28.153C145.692 28.1561 144.832 28.0105 144.014 27.7225C143.22 27.443 142.497 26.9894 141.897 26.3942C141.262 25.7531 140.767 24.9856 140.443 24.1407C140.059 23.1173 139.874 22.0286 139.898 20.9345C139.898 19.762 140.071 18.736 140.398 17.8383C140.805 16.6075 141.591 15.5401 142.642 14.7919C143.693 14.0437 144.954 13.6539 146.24 13.6794C147.068 13.671 147.891 13.817 148.666 14.1099C149.402 14.3939 150.038 14.8428 150.574 15.4382C151.119 16.0428 151.546 16.8214 151.855 17.7833C152.173 18.736 152.328 19.8719 152.328 21.191V21.8231H143.433Z" fill="white"/>
</g>
</svg>
