<svg width="160" height="36" viewBox="0 0 160 36" fill="none" xmlns="http://www.w3.org/2000/svg">
<g clip-path="url(#clip0_223_2782)">
<circle cx="16" cy="18" r="16" fill="#4640DE"/>
<mask id="path-2-inside-1_223_2782" fill="white">
<path d="M16 30C18.6652 30 21.3304 27.8953 23.0607 26.179C23.4599 25.7831 22.9792 25.2122 22.4822 25.4749C20.6013 26.469 18.0181 27.6 16 27.6C13.9819 27.6 11.3987 26.469 9.5178 25.4749C9.02076 25.2122 8.54012 25.7831 8.93926 26.179C10.6696 27.8953 13.3348 30 16 30Z"/>
</mask>
<path d="M23.0607 26.179L25.1734 28.3089V28.3089L23.0607 26.179ZM8.93926 26.179L6.82658 28.3089H6.82658L8.93926 26.179ZM9.5178 25.4749L10.9197 22.8226L10.9197 22.8226L9.5178 25.4749ZM22.4822 25.4749L21.0803 22.8226L21.0803 22.8226L22.4822 25.4749ZM20.948 24.0491C20.1783 24.8126 19.2652 25.5953 18.3201 26.1712C17.3491 26.7627 16.5672 27 16 27V33C18.098 33 19.9813 32.1849 21.4419 31.2951C22.9282 30.3895 24.2129 29.2616 25.1734 28.3089L20.948 24.0491ZM16 27C15.4328 27 14.6509 26.7627 13.6799 26.1712C12.7348 25.5953 11.8217 24.8126 11.052 24.0491L6.82658 28.3089C7.78708 29.2616 9.07177 30.3895 10.5581 31.2951C12.0187 32.1849 13.902 33 16 33V27ZM8.11593 28.1272C9.1314 28.6639 10.3827 29.2629 11.6934 29.7336C12.967 30.1911 14.4921 30.6 16 30.6V24.6C15.4899 24.6 14.7143 24.4434 13.7216 24.0868C12.7658 23.7436 11.7851 23.28 10.9197 22.8226L8.11593 28.1272ZM16 30.6C17.5079 30.6 19.033 30.1911 20.3066 29.7336C21.6173 29.2629 22.8686 28.6639 23.8841 28.1272L21.0803 22.8226C20.2149 23.28 19.2342 23.7436 18.2785 24.0868C17.2857 24.4434 16.5101 24.6 16 24.6V30.6ZM25.1734 28.3089C25.7674 27.7197 26.1776 26.8995 26.2071 25.9593C26.2356 25.0551 25.905 24.2526 25.4152 23.663C24.4114 22.4547 22.6321 22.0024 21.0803 22.8226L23.8841 28.1272C22.8293 28.6847 21.5389 28.3865 20.7999 27.4969C20.4425 27.0667 20.1883 26.4648 20.2101 25.7708C20.2331 25.0407 20.5536 24.4403 20.948 24.0491L25.1734 28.3089ZM11.052 24.0491C11.4464 24.4403 11.7669 25.0407 11.7899 25.7708C11.8117 26.4648 11.5575 27.0667 11.2001 27.4969C10.4611 28.3865 9.17068 28.6847 8.11593 28.1272L10.9197 22.8226C9.36787 22.0024 7.5886 22.4547 6.58483 23.663C6.09504 24.2526 5.76443 25.0551 5.79286 25.9593C5.82241 26.8995 6.23259 27.7197 6.82658 28.3089L11.052 24.0491Z" fill="white" mask="url(#path-2-inside-1_223_2782)"/>
<circle cx="15.8049" cy="16.1941" r="7.49047" transform="rotate(-90 15.8049 16.1941)" stroke="white" stroke-width="2" stroke-linecap="round" stroke-linejoin="round"/>
<path d="M21.4043 10.9844L24.3334 8.04769" stroke="white" stroke-width="2" stroke-linecap="round" stroke-linejoin="round"/>
</g>
<path d="M47.2 27.24C45.52 27.24 44.096 26.816 42.928 25.968C41.76 25.12 40.92 23.904 40.408 22.32L43.624 21.096C43.976 22.12 44.44 22.872 45.016 23.352C45.608 23.832 46.336 24.072 47.2 24.072C48.24 24.072 49.072 23.736 49.696 23.064C50.336 22.392 50.656 21.496 50.656 20.376V10.2H54.136V20.472C54.136 21.832 53.848 23.024 53.272 24.048C52.696 25.056 51.888 25.84 50.848 26.4C49.808 26.96 48.592 27.24 47.2 27.24ZM62.527 27.24C61.279 27.24 60.151 26.952 59.143 26.376C58.135 25.8 57.335 25.024 56.743 24.048C56.151 23.072 55.855 21.976 55.855 20.76C55.855 19.544 56.143 18.448 56.719 17.472C57.311 16.48 58.111 15.696 59.119 15.12C60.143 14.544 61.279 14.256 62.527 14.256C63.775 14.256 64.903 14.544 65.911 15.12C66.935 15.696 67.735 16.48 68.311 17.472C68.903 18.448 69.199 19.544 69.199 20.76C69.199 21.976 68.903 23.072 68.311 24.048C67.735 25.024 66.943 25.8 65.935 26.376C64.927 26.952 63.791 27.24 62.527 27.24ZM62.527 24.384C63.183 24.384 63.767 24.224 64.279 23.904C64.807 23.584 65.223 23.152 65.527 22.608C65.847 22.048 66.007 21.432 66.007 20.76C66.007 20.072 65.847 19.456 65.527 18.912C65.223 18.368 64.807 17.936 64.279 17.616C63.767 17.28 63.183 17.112 62.527 17.112C61.887 17.112 61.303 17.28 60.775 17.616C60.247 17.936 59.831 18.368 59.527 18.912C59.223 19.456 59.071 20.072 59.071 20.76C59.071 21.432 59.223 22.048 59.527 22.608C59.831 23.152 60.247 23.584 60.775 23.904C61.303 24.224 61.887 24.384 62.527 24.384ZM70.9801 27V10.2L74.2681 9.648V15.504C75.2601 14.72 76.4281 14.328 77.7721 14.328C78.9561 14.328 80.0281 14.616 80.9881 15.192C81.9481 15.768 82.7081 16.544 83.2681 17.52C83.8441 18.48 84.1321 19.56 84.1321 20.76C84.1321 21.96 83.8441 23.048 83.2681 24.024C82.6921 24.984 81.9161 25.752 80.9401 26.328C79.9641 26.888 78.8761 27.168 77.6761 27.168C77.0521 27.168 76.4441 27.08 75.8521 26.904C75.2601 26.728 74.7161 26.472 74.2201 26.136V27H70.9801ZM77.2441 24.384C77.9321 24.384 78.5481 24.224 79.0921 23.904C79.6521 23.584 80.0921 23.152 80.4121 22.608C80.7321 22.064 80.8921 21.448 80.8921 20.76C80.8921 20.072 80.7321 19.456 80.4121 18.912C80.0921 18.352 79.6521 17.92 79.0921 17.616C78.5481 17.296 77.9321 17.136 77.2441 17.136C76.6361 17.136 76.0761 17.24 75.5641 17.448C75.0681 17.64 74.6361 17.936 74.2681 18.336V23.208C74.6201 23.576 75.0521 23.864 75.5641 24.072C76.0921 24.28 76.6521 24.384 77.2441 24.384ZM86.0967 27V10.2H89.5767V16.968H97.3047V10.2H100.785V27H97.3047V20.112H89.5767V27H86.0967ZM108.231 27.24C107.271 27.24 106.415 27.032 105.663 26.616C104.927 26.184 104.343 25.592 103.911 24.84C103.495 24.088 103.287 23.224 103.287 22.248V14.496H106.575V21.768C106.575 22.568 106.807 23.208 107.271 23.688C107.751 24.168 108.391 24.408 109.191 24.408C109.735 24.408 110.223 24.304 110.655 24.096C111.103 23.872 111.471 23.56 111.759 23.16V14.496H115.047V27H111.759V25.992C110.799 26.824 109.623 27.24 108.231 27.24ZM117.369 27V14.496H120.657V15.528C121.601 14.68 122.769 14.256 124.161 14.256C125.137 14.256 125.993 14.472 126.729 14.904C127.481 15.32 128.065 15.904 128.481 16.656C128.897 17.392 129.105 18.256 129.105 19.248V27H125.817V19.728C125.817 18.912 125.585 18.272 125.121 17.808C124.657 17.328 124.025 17.088 123.225 17.088C122.665 17.088 122.169 17.2 121.737 17.424C121.305 17.632 120.945 17.936 120.657 18.336V27H117.369ZM136.932 27.192C135.54 27.192 134.484 26.88 133.764 26.256C133.06 25.616 132.708 24.688 132.708 23.472V17.232H130.14V14.496H132.708V11.304L135.996 10.56V14.496H139.572V17.232H135.996V22.8C135.996 23.376 136.124 23.792 136.38 24.048C136.636 24.288 137.084 24.408 137.724 24.408C138.044 24.408 138.332 24.392 138.588 24.36C138.86 24.312 139.156 24.232 139.476 24.12V26.832C139.14 26.944 138.716 27.032 138.204 27.096C137.708 27.16 137.284 27.192 136.932 27.192ZM140.936 27V10.2L144.224 9.648V27H140.936ZM147.78 32.16C147.492 32.16 147.212 32.144 146.94 32.112C146.684 32.096 146.468 32.072 146.292 32.04V29.208C146.612 29.272 146.996 29.304 147.444 29.304C148.644 29.304 149.476 28.736 149.94 27.6L150.132 27.12L145.26 14.496H148.884L152.004 23.016L155.532 14.496H159.084L153.324 28.008C152.892 29.016 152.42 29.824 151.908 30.432C151.396 31.04 150.804 31.48 150.132 31.752C149.476 32.024 148.692 32.16 147.78 32.16Z" fill="#25324B"/>
<g clip-path="url(#clip1_223_2782)">
<circle cx="16" cy="18" r="16" fill="#4640DE"/>
<mask id="path-8-inside-2_223_2782" fill="white">
<path d="M16 29C18.6652 29 21.3304 26.8953 23.0607 25.179C23.4599 24.7831 22.9792 24.2122 22.4822 24.4749C20.6013 25.469 18.0181 26.6 16 26.6C13.9819 26.6 11.3987 25.469 9.5178 24.4749C9.02076 24.2122 8.54012 24.7831 8.93926 25.179C10.6696 26.8953 13.3348 29 16 29Z"/>
</mask>
<path d="M23.0607 25.179L25.1734 27.3089V27.3089L23.0607 25.179ZM8.93926 25.179L6.82658 27.3089H6.82658L8.93926 25.179ZM9.5178 24.4749L10.9197 21.8226L10.9197 21.8226L9.5178 24.4749ZM22.4822 24.4749L21.0803 21.8226L21.0803 21.8226L22.4822 24.4749ZM20.948 23.0491C20.1783 23.8126 19.2652 24.5953 18.3201 25.1712C17.3491 25.7627 16.5672 26 16 26V32C18.098 32 19.9813 31.1849 21.4419 30.2951C22.9282 29.3895 24.2129 28.2616 25.1734 27.3089L20.948 23.0491ZM16 26C15.4328 26 14.6509 25.7627 13.6799 25.1712C12.7348 24.5953 11.8217 23.8126 11.052 23.0491L6.82658 27.3089C7.78708 28.2616 9.07177 29.3895 10.5581 30.2951C12.0187 31.1849 13.902 32 16 32V26ZM8.11593 27.1272C9.1314 27.6639 10.3827 28.2629 11.6934 28.7336C12.967 29.1911 14.4921 29.6 16 29.6V23.6C15.4899 23.6 14.7143 23.4434 13.7216 23.0868C12.7658 22.7436 11.7851 22.28 10.9197 21.8226L8.11593 27.1272ZM16 29.6C17.5079 29.6 19.033 29.1911 20.3066 28.7336C21.6173 28.2629 22.8686 27.6639 23.8841 27.1272L21.0803 21.8226C20.2149 22.28 19.2342 22.7436 18.2785 23.0868C17.2857 23.4434 16.5101 23.6 16 23.6V29.6ZM25.1734 27.3089C25.7674 26.7197 26.1776 25.8995 26.2071 24.9593C26.2356 24.0551 25.905 23.2526 25.4152 22.663C24.4114 21.4547 22.6321 21.0024 21.0803 21.8226L23.8841 27.1272C22.8293 27.6847 21.5389 27.3865 20.7999 26.4969C20.4425 26.0667 20.1883 25.4648 20.2101 24.7708C20.2331 24.0407 20.5536 23.4403 20.948 23.0491L25.1734 27.3089ZM11.052 23.0491C11.4464 23.4403 11.7669 24.0407 11.7899 24.7708C11.8117 25.4648 11.5575 26.0667 11.2001 26.4969C10.4611 27.3865 9.17068 27.6847 8.11593 27.1272L10.9197 21.8226C9.36787 21.0024 7.5886 21.4547 6.58483 22.663C6.09504 23.2526 5.76443 24.0551 5.79286 24.9593C5.82241 25.8995 6.23259 26.7197 6.82658 27.3089L11.052 23.0491Z" fill="white" mask="url(#path-8-inside-2_223_2782)"/>
<path d="M21.7113 11.3158C21.3913 10.9936 21.3913 10.4773 21.7113 10.1552L23.4297 8.02632L23.4297 7.98937C23.865 7.55866 24.5708 7.55866 25.0062 7.98937C25.4415 8.42007 25.4415 9.11837 25.0062 9.54907L22.9814 11.3158L22.9058 11.3828C22.7477 11.5077 22.5506 11.5766 22.3463 11.5766C22.108 11.5766 21.8795 11.4828 21.7113 11.3158ZM8.66602 17.185C8.66602 15.2892 9.42721 13.4711 10.7822 12.1306C12.1371 10.79 13.9748 10.0369 15.891 10.0369C19.8812 10.0369 23.1159 13.2372 23.1159 17.185C23.1159 21.1327 19.8812 24.333 15.891 24.333C11.9007 24.333 8.66602 21.1327 8.66602 17.185Z" fill="white"/>
</g>
<path d="M47.2 27.24C45.52 27.24 44.096 26.816 42.928 25.968C41.76 25.12 40.92 23.904 40.408 22.32L43.624 21.096C43.976 22.12 44.44 22.872 45.016 23.352C45.608 23.832 46.336 24.072 47.2 24.072C48.24 24.072 49.072 23.736 49.696 23.064C50.336 22.392 50.656 21.496 50.656 20.376V10.2H54.136V20.472C54.136 21.832 53.848 23.024 53.272 24.048C52.696 25.056 51.888 25.84 50.848 26.4C49.808 26.96 48.592 27.24 47.2 27.24ZM62.527 27.24C61.279 27.24 60.151 26.952 59.143 26.376C58.135 25.8 57.335 25.024 56.743 24.048C56.151 23.072 55.855 21.976 55.855 20.76C55.855 19.544 56.143 18.448 56.719 17.472C57.311 16.48 58.111 15.696 59.119 15.12C60.143 14.544 61.279 14.256 62.527 14.256C63.775 14.256 64.903 14.544 65.911 15.12C66.935 15.696 67.735 16.48 68.311 17.472C68.903 18.448 69.199 19.544 69.199 20.76C69.199 21.976 68.903 23.072 68.311 24.048C67.735 25.024 66.943 25.8 65.935 26.376C64.927 26.952 63.791 27.24 62.527 27.24ZM62.527 24.384C63.183 24.384 63.767 24.224 64.279 23.904C64.807 23.584 65.223 23.152 65.527 22.608C65.847 22.048 66.007 21.432 66.007 20.76C66.007 20.072 65.847 19.456 65.527 18.912C65.223 18.368 64.807 17.936 64.279 17.616C63.767 17.28 63.183 17.112 62.527 17.112C61.887 17.112 61.303 17.28 60.775 17.616C60.247 17.936 59.831 18.368 59.527 18.912C59.223 19.456 59.071 20.072 59.071 20.76C59.071 21.432 59.223 22.048 59.527 22.608C59.831 23.152 60.247 23.584 60.775 23.904C61.303 24.224 61.887 24.384 62.527 24.384ZM70.9801 27V10.2L74.2681 9.648V15.504C75.2601 14.72 76.4281 14.328 77.7721 14.328C78.9561 14.328 80.0281 14.616 80.9881 15.192C81.9481 15.768 82.7081 16.544 83.2681 17.52C83.8441 18.48 84.1321 19.56 84.1321 20.76C84.1321 21.96 83.8441 23.048 83.2681 24.024C82.6921 24.984 81.9161 25.752 80.9401 26.328C79.9641 26.888 78.8761 27.168 77.6761 27.168C77.0521 27.168 76.4441 27.08 75.8521 26.904C75.2601 26.728 74.7161 26.472 74.2201 26.136V27H70.9801ZM77.2441 24.384C77.9321 24.384 78.5481 24.224 79.0921 23.904C79.6521 23.584 80.0921 23.152 80.4121 22.608C80.7321 22.064 80.8921 21.448 80.8921 20.76C80.8921 20.072 80.7321 19.456 80.4121 18.912C80.0921 18.352 79.6521 17.92 79.0921 17.616C78.5481 17.296 77.9321 17.136 77.2441 17.136C76.6361 17.136 76.0761 17.24 75.5641 17.448C75.0681 17.64 74.6361 17.936 74.2681 18.336V23.208C74.6201 23.576 75.0521 23.864 75.5641 24.072C76.0921 24.28 76.6521 24.384 77.2441 24.384ZM86.0967 27V10.2H89.5767V16.968H97.3047V10.2H100.785V27H97.3047V20.112H89.5767V27H86.0967ZM108.231 27.24C107.271 27.24 106.415 27.032 105.663 26.616C104.927 26.184 104.343 25.592 103.911 24.84C103.495 24.088 103.287 23.224 103.287 22.248V14.496H106.575V21.768C106.575 22.568 106.807 23.208 107.271 23.688C107.751 24.168 108.391 24.408 109.191 24.408C109.735 24.408 110.223 24.304 110.655 24.096C111.103 23.872 111.471 23.56 111.759 23.16V14.496H115.047V27H111.759V25.992C110.799 26.824 109.623 27.24 108.231 27.24ZM117.369 27V14.496H120.657V15.528C121.601 14.68 122.769 14.256 124.161 14.256C125.137 14.256 125.993 14.472 126.729 14.904C127.481 15.32 128.065 15.904 128.481 16.656C128.897 17.392 129.105 18.256 129.105 19.248V27H125.817V19.728C125.817 18.912 125.585 18.272 125.121 17.808C124.657 17.328 124.025 17.088 123.225 17.088C122.665 17.088 122.169 17.2 121.737 17.424C121.305 17.632 120.945 17.936 120.657 18.336V27H117.369ZM136.932 27.192C135.54 27.192 134.484 26.88 133.764 26.256C133.06 25.616 132.708 24.688 132.708 23.472V17.232H130.14V14.496H132.708V11.304L135.996 10.56V14.496H139.572V17.232H135.996V22.8C135.996 23.376 136.124 23.792 136.38 24.048C136.636 24.288 137.084 24.408 137.724 24.408C138.044 24.408 138.332 24.392 138.588 24.36C138.86 24.312 139.156 24.232 139.476 24.12V26.832C139.14 26.944 138.716 27.032 138.204 27.096C137.708 27.16 137.284 27.192 136.932 27.192ZM140.936 27V10.2L144.224 9.648V27H140.936ZM147.78 32.16C147.492 32.16 147.212 32.144 146.94 32.112C146.684 32.096 146.468 32.072 146.292 32.04V29.208C146.612 29.272 146.996 29.304 147.444 29.304C148.644 29.304 149.476 28.736 149.94 27.6L150.132 27.12L145.26 14.496H148.884L152.004 23.016L155.532 14.496H159.084L153.324 28.008C152.892 29.016 152.42 29.824 151.908 30.432C151.396 31.04 150.804 31.48 150.132 31.752C149.476 32.024 148.692 32.16 147.78 32.16Z" fill="#F8F8FD"/>
<defs>
<clipPath id="clip0_223_2782">
<rect width="32" height="32" fill="white" transform="translate(0 2)"/>
</clipPath>
<clipPath id="clip1_223_2782">
<rect width="32" height="32" fill="white" transform="translate(0 2)"/>
</clipPath>
</defs>
</svg>
