<svg width="14" height="22" viewBox="0 0 14 22" fill="none" xmlns="http://www.w3.org/2000/svg">
<g clip-path="url(#clip0_21_203)">
<path d="M12.6002 12.375H1.40023C0.157725 12.375 -0.472275 13.8574 0.411475 14.7211L6.01148 20.2211C6.55835 20.7582 7.44648 20.7582 7.99335 20.2211L13.5934 14.7211C14.4684 13.8574 13.8427 12.375 12.6002 12.375ZM7.00023 19.25L1.40023 13.75H12.6002L7.00023 19.25ZM1.40023 9.625H12.6002C13.8427 9.625 14.4727 8.14257 13.589 7.2789L7.98898 1.7789C7.4421 1.24179 6.55398 1.24179 6.0071 1.7789L0.4071 7.2789C-0.4679 8.14257 0.157725 9.625 1.40023 9.625ZM7.00023 2.74999L12.6002 8.24999H1.40023L7.00023 2.74999Z" fill="#FEAF00"/>
</g>
<defs>
<clipPath id="clip0_21_203">
<rect width="14" height="22" fill="white"/>
</clipPath>
</defs>
</svg>
