<svg width="35" height="40" viewBox="0 0 35 40" fill="none" xmlns="http://www.w3.org/2000/svg">
<path d="M20.6484 19.5859L15.0234 18.0078C14.0781 17.7422 13.4141 16.8828 13.4141 15.9219C13.4141 14.7266 14.4141 13.75 15.6406 13.75H19.1562C20.0312 13.75 20.8672 14.0312 21.5469 14.5391C21.7969 14.7266 22.1406 14.6953 22.3594 14.4766L23.2422 13.5781C23.5078 13.3125 23.4766 12.875 23.1797 12.6406C22.0391 11.7344 20.6328 11.2422 19.1484 11.2422H18.75V8.11719C18.75 7.77344 18.4688 7.49219 18.125 7.49219H16.875C16.5312 7.49219 16.25 7.77344 16.25 8.11719V11.2422H15.6406C13.0391 11.2422 10.9141 13.3359 10.9141 15.9141C10.9141 17.9922 12.3281 19.8359 14.3438 20.4062L19.9688 21.9844C20.9141 22.25 21.5781 23.1094 21.5781 24.0703C21.5781 25.2656 20.5781 26.2422 19.3516 26.2422H15.8359C14.9609 26.2422 14.125 25.9609 13.4453 25.4531C13.1953 25.2656 12.8516 25.2969 12.6328 25.5156L11.75 26.4141C11.4844 26.6797 11.5156 27.1172 11.8125 27.3516C12.9531 28.2578 14.3594 28.75 15.8438 28.75H16.25V31.875C16.25 32.2188 16.5312 32.5 16.875 32.5H18.125C18.4688 32.5 18.75 32.2188 18.75 31.875V28.75H19.3594C21.9609 28.75 24.0859 26.6562 24.0859 24.0781C24.0781 22 22.6719 20.1562 20.6484 19.5859ZM31.25 2.5H3.75C1.67969 2.5 0 4.17969 0 6.25V33.75C0 35.8203 1.67969 37.5 3.75 37.5H31.25C33.3203 37.5 35 35.8203 35 33.75V6.25C35 4.17969 33.3203 2.5 31.25 2.5ZM32.5 33.75C32.5 34.4375 31.9375 35 31.25 35H3.75C3.0625 35 2.5 34.4375 2.5 33.75V6.25C2.5 5.5625 3.0625 5 3.75 5H31.25C31.9375 5 32.5 5.5625 32.5 6.25V33.75Z" fill="#F6C762"/>
</svg>
