<svg width="32" height="32" viewBox="0 0 32 32" fill="none" xmlns="http://www.w3.org/2000/svg">
<circle opacity="0.1" cx="16" cy="16" r="16" fill="white"/>
<path d="M22.3341 14.36C22.6209 15.452 22.6209 16.544 22.334 17.636C22.047 18.7282 21.4957 19.6823 20.6796 20.4989C19.8636 21.3155 18.9099 21.8675 17.8186 22.1546C16.7274 22.4418 15.6362 22.4418 14.5449 22.1547C13.4534 21.8675 12.4998 21.3156 11.6838 20.4991C10.8678 19.6825 10.3165 18.7282 10.0294 17.6361C9.74248 16.5441 9.74248 15.4522 10.0294 14.36C10.3164 13.268 10.8679 12.3137 11.6839 11.4971C12.4999 10.6805 13.4536 10.1286 14.5449 9.84143C15.636 9.55423 16.7273 9.55439 17.8186 9.84149C18.9098 10.1287 19.8634 10.6807 20.6794 11.4972C21.4955 12.3138 22.0471 13.2681 22.3341 14.36ZM20.0236 19.8426C20.9918 18.8737 21.517 17.7074 21.599 16.3439L21.4234 16.3147C21.353 16.3029 21.2008 16.2971 20.9666 16.297C20.7324 16.297 20.4931 16.3136 20.2492 16.3468C20.005 16.3801 19.6967 16.4483 19.3237 16.552C18.9508 16.6555 18.5789 16.7912 18.208 16.9593C18.5868 18.2369 18.8523 19.4637 19.0046 20.6397C19.3872 20.4052 19.7269 20.1395 20.0236 19.8426ZM15.5553 21.3957C16.4024 21.4934 17.2223 21.3997 18.0149 21.1144C17.8548 19.9853 17.5931 18.7702 17.2301 17.4691C15.7308 18.3443 14.3916 19.3718 13.2126 20.5518C13.9271 21.0166 14.708 21.298 15.5553 21.3957ZM11.2123 18.1986C11.4797 18.8101 11.8556 19.3581 12.3398 19.8427C12.3945 19.8974 12.4375 19.9364 12.4686 19.9599C13.8821 18.5454 15.3774 17.4123 16.9549 16.5606C16.8378 16.1934 16.7245 15.873 16.6152 15.5994C16.5916 15.6074 16.5576 15.6239 16.5127 15.6493C16.4677 15.6748 16.4356 15.6934 16.4159 15.7052L16.1231 15.8458C15.92 15.9396 15.632 16.0402 15.2593 16.1477C14.8863 16.2549 14.4735 16.3517 14.0205 16.4377C13.5676 16.5236 13.0463 16.5587 12.4567 16.543C11.8672 16.5274 11.3011 16.4435 10.7584 16.2911C10.7935 16.9514 10.945 17.5873 11.2123 18.1986ZM12.3398 12.1534C11.4261 13.0677 10.903 14.1774 10.7702 15.4823L10.7936 15.3299C11.2309 15.4941 11.7209 15.582 12.2636 15.5936C12.8063 15.6053 13.2856 15.5732 13.7015 15.497C14.1172 15.4207 14.5447 15.3133 14.9842 15.1747C15.4233 15.0359 15.7161 14.9346 15.8625 14.8699C16.0089 14.8054 16.1251 14.7537 16.2111 14.7146L16.2286 14.7089L16.2404 14.6971C15.6195 13.3102 14.9207 12.0636 14.1437 10.958C13.4564 11.2392 12.8553 11.6377 12.3398 12.1534ZM17.3385 10.6852C16.6025 10.527 15.8712 10.5182 15.1452 10.6588C15.883 11.7177 16.5489 12.884 17.1422 14.1577C18.0404 13.5014 18.7821 12.6457 19.3678 11.5909C18.7509 11.1455 18.0743 10.8435 17.3385 10.6852ZM20.0177 12.2648C19.9864 12.3116 19.9464 12.3694 19.8976 12.4377C19.8488 12.506 19.7892 12.5891 19.7189 12.6868C19.6487 12.7844 19.5675 12.891 19.4759 13.0062C19.3841 13.1215 19.2846 13.2425 19.1771 13.3696C19.0698 13.4966 18.9526 13.6294 18.8258 13.7681C18.6987 13.9069 18.5671 14.0446 18.4304 14.1813C18.2938 14.318 18.1463 14.4577 17.9883 14.6003C17.8303 14.743 17.6711 14.8746 17.5111 14.9958C17.5188 15.0271 17.5364 15.074 17.5638 15.1365C17.5911 15.199 17.6125 15.246 17.6284 15.277C17.7181 15.5155 17.8177 15.7871 17.9268 16.0919C18.3056 15.9317 18.6883 15.8007 19.075 15.699C19.4615 15.5976 19.7834 15.5292 20.0411 15.494C20.299 15.4589 20.5557 15.4384 20.8113 15.4325C21.0671 15.4266 21.2387 15.4286 21.3267 15.4383C21.4147 15.4481 21.4996 15.4588 21.5815 15.4705L21.5933 15.4706C21.4683 14.2047 20.959 13.1126 20.0646 12.1945L20.0177 12.2648Z" fill="white"/>
</svg>
