<svg width="48" height="48" viewBox="0 0 48 48" fill="none" xmlns="http://www.w3.org/2000/svg">
<path d="M42.9382 7.19793C42.2534 6.53058 41.348 6.1773 40.3926 6.20136C38.5048 6.25003 36.969 7.8502 36.969 9.76866V18.6675C35.7321 18.2322 34.2986 18.5082 33.3113 19.4957L24.5413 28.2656C24.3447 28.4622 24.1647 28.6709 24.0002 28.8892C23.8356 28.6708 23.6555 28.4622 23.459 28.2655L14.6891 19.4956C13.7018 18.5082 12.2683 18.2322 11.0313 18.6674V9.71584C11.0313 8.75959 10.6541 7.86536 9.96919 7.19793C9.28442 6.53058 8.37957 6.17714 7.42362 6.20136C5.53587 6.25003 4 7.8502 4 9.76866V22.9109C4 24.1098 4.33907 25.2788 4.98048 26.2914L11.4401 36.4901C12.0332 37.4265 12.3467 38.5072 12.3467 39.6155V42.8275C12.3467 43.4747 12.8714 43.9994 13.5186 43.9994H34.4819C35.1291 43.9994 35.6538 43.4747 35.6538 42.8275V39.6155C35.6538 38.5072 35.9672 37.4265 36.5603 36.4902L43.0199 26.2915C43.6613 25.2788 44.0003 24.1098 44.0003 22.9109V9.71584C44.0003 8.75966 43.6231 7.86544 42.9382 7.19793ZM13.4202 35.236L6.96049 25.0373C6.55697 24.4003 6.34377 23.665 6.34377 22.9109V9.76866C6.34377 9.10982 6.85526 8.5606 7.48401 8.54443C7.80323 8.53669 8.10527 8.65412 8.33347 8.87646C8.56176 9.09896 8.68754 9.39709 8.68754 9.71584V22.0206C8.68754 22.0532 8.6898 22.0852 8.69238 22.117C8.72504 22.9717 9.06621 23.8165 9.71723 24.4675L13.9917 28.742C14.4493 29.1997 15.1913 29.1997 15.649 28.742C16.1067 28.2844 16.1067 27.5424 15.649 27.0847L11.3745 22.8102C10.9176 22.3533 10.9176 21.6098 11.3745 21.153C11.8315 20.6961 12.5749 20.6961 13.0319 21.153L21.8016 29.9227C22.4637 30.5849 22.8283 31.4687 22.8283 32.4113V41.6556H14.6904V39.6155C14.6904 38.0625 14.2512 36.5481 13.4202 35.236ZM41.6566 22.9109C41.6566 23.665 41.4433 24.4003 41.0397 25.0373L34.5802 35.236C33.7491 36.548 33.3099 38.0625 33.3099 39.6155V41.6556H25.172V32.4113C25.172 31.4687 25.5367 30.5849 26.1986 29.9228L34.9685 21.1529C35.4256 20.696 36.1689 20.696 36.6258 21.1529C37.0805 21.5894 37.0805 22.3739 36.6255 22.8105L32.3513 27.0875C31.8939 27.5453 31.8941 28.2872 32.3519 28.7447C32.8095 29.2022 33.5515 29.2021 34.0092 28.7442L38.2831 24.4675C38.9293 23.8213 39.2919 22.9677 39.311 22.057C39.3114 22.0448 39.3128 22.0329 39.3128 22.0206V9.76866C39.3128 9.10982 39.8243 8.5606 40.453 8.54443C40.7706 8.53576 41.0742 8.65412 41.3025 8.87646C41.5308 9.09904 41.6566 9.39717 41.6566 9.71592V22.9109Z" fill="#4640DE" stroke="#4640DE" stroke-width="0.5"/>
<path d="M15.8338 14.3305C15.8839 14.3849 16.0564 14.5549 19.3399 17.7566C21.0524 19.4266 22.992 21.3179 23.1482 21.4754C23.3689 21.705 23.6738 21.8352 23.993 21.8352C24.3166 21.8353 24.6257 21.7014 24.8471 21.4659C25.0141 21.2939 26.8073 19.5484 28.3903 18.0074C31.1619 15.3094 32.0425 14.4503 32.1527 14.3307C32.1781 14.3033 32.2019 14.2748 32.2241 14.2455C36.0122 9.43712 32.5623 4.03856 27.6727 4.01536C26.3457 4.03583 25.087 4.49146 23.9811 5.34349C21.1334 3.18848 18.0002 3.88778 16.146 5.60232C13.6446 7.88742 13.5206 11.7039 15.7995 14.2916C15.8107 14.3048 15.8221 14.3178 15.8338 14.3305ZM17.7373 7.32312C18.9306 6.21944 21.0698 5.66568 23.1703 7.73711C23.3931 7.95672 23.6956 8.07789 24.0071 8.07445C24.3199 8.0707 24.6182 7.94211 24.8356 7.71726C26.1364 6.37194 28.3851 5.67279 30.2487 7.31617C31.4665 8.39016 32.2331 10.4575 30.4089 12.7627C30.1145 13.0582 28.2589 14.8646 26.7554 16.3281C25.4286 17.6197 24.5514 18.474 23.9918 19.0206C23.1937 18.2394 18.165 13.3402 17.5622 12.7459C16.3699 11.3025 15.9199 9.00384 17.7373 7.32312Z" fill="#4640DE" stroke="#4640DE" stroke-width="0.5"/>
</svg>
