<svg width="48" height="48" viewBox="0 0 48 48" fill="none" xmlns="http://www.w3.org/2000/svg">
<path d="M34 18V14C34 12.9391 33.5786 11.9217 32.8284 11.1716C32.0783 10.4214 31.0609 10 30 10H10C8.93913 10 7.92172 10.4214 7.17157 11.1716C6.42143 11.9217 6 12.9391 6 14V26C6 27.0609 6.42143 28.0783 7.17157 28.8284C7.92172 29.5786 8.93913 30 10 30H14M18 38H38C39.0609 38 40.0783 37.5786 40.8284 36.8284C41.5786 36.0783 42 35.0609 42 34V22C42 20.9391 41.5786 19.9217 40.8284 19.1716C40.0783 18.4214 39.0609 18 38 18H18C16.9391 18 15.9217 18.4214 15.1716 19.1716C14.4214 19.9217 14 20.9391 14 22V34C14 35.0609 14.4214 36.0783 15.1716 36.8284C15.9217 37.5786 16.9391 38 18 38ZM32 28C32 29.0609 31.5786 30.0783 30.8284 30.8284C30.0783 31.5786 29.0609 32 28 32C26.9391 32 25.9217 31.5786 25.1716 30.8284C24.4214 30.0783 24 29.0609 24 28C24 26.9391 24.4214 25.9217 25.1716 25.1716C25.9217 24.4214 26.9391 24 28 24C29.0609 24 30.0783 24.4214 30.8284 25.1716C31.5786 25.9217 32 26.9391 32 28Z" stroke="#4640DE" stroke-width="3" stroke-linecap="round" stroke-linejoin="round"/>
</svg>
