<svg width="33" height="34" viewBox="0 0 33 34" fill="none" xmlns="http://www.w3.org/2000/svg">
<g clip-path="url(#clip0_309_19680)">
<path d="M8.66797 20.7648C10.8771 20.7648 12.668 18.9081 12.668 16.6178C12.668 14.3274 10.8771 12.4707 8.66797 12.4707C6.45883 12.4707 4.66797 14.3274 4.66797 16.6178C4.66797 18.9081 6.45883 20.7648 8.66797 20.7648Z" stroke="#7C8493" stroke-width="2" stroke-linecap="round" stroke-linejoin="round"/>
<path d="M24.668 12.4709C26.8771 12.4709 28.668 10.6142 28.668 8.32382C28.668 6.03346 26.8771 4.17676 24.668 4.17676C22.4588 4.17676 20.668 6.03346 20.668 8.32382C20.668 10.6142 22.4588 12.4709 24.668 12.4709Z" stroke="#7C8493" stroke-width="2" stroke-linecap="round" stroke-linejoin="round"/>
<path d="M24.668 29.0588C26.8771 29.0588 28.668 27.2021 28.668 24.9117C28.668 22.6213 26.8771 20.7646 24.668 20.7646C22.4588 20.7646 20.668 22.6213 20.668 24.9117C20.668 27.2021 22.4588 29.0588 24.668 29.0588Z" stroke="#7C8493" stroke-width="2" stroke-linecap="round" stroke-linejoin="round"/>
<path d="M12.2676 14.8201L21.0676 10.1201" stroke="#7C8493" stroke-width="2" stroke-linecap="round" stroke-linejoin="round"/>
<path d="M12.2676 18.415L21.0676 23.115" stroke="#7C8493" stroke-width="2" stroke-linecap="round" stroke-linejoin="round"/>
</g>
<defs>
<clipPath id="clip0_309_19680">
<rect width="32" height="33.1765" fill="white" transform="translate(0.667969 0.0292969)"/>
</clipPath>
</defs>
</svg>
