<svg width="32" height="32" viewBox="0 0 32 32" fill="none" xmlns="http://www.w3.org/2000/svg">
<circle opacity="0.1" cx="16" cy="16" r="16" fill="white"/>
<path fill-rule="evenodd" clip-rule="evenodd" d="M13.744 10.0736C12.7679 10.1177 11.9219 10.3565 11.2388 11.0372C10.5533 11.7215 10.3176 12.5714 10.2735 13.538C10.246 14.1413 10.0856 18.699 10.5509 19.8942C10.8647 20.7006 11.4828 21.3206 12.296 21.6356C12.6754 21.7833 13.1086 21.8833 13.744 21.9125C19.0568 22.1531 21.0262 22.0221 21.8567 19.8942C22.004 19.5154 22.1055 19.0824 22.1335 18.4481C22.3763 13.118 22.0941 11.9627 21.1682 11.0372C20.4338 10.3041 19.5699 9.80505 13.744 10.0736ZM13.7929 20.8405C13.2112 20.8143 12.8956 20.7173 12.685 20.6357C12.1552 20.4297 11.7572 20.0331 11.5526 19.506C11.1982 18.5978 11.3158 14.2843 11.3474 13.5863C11.3784 12.9026 11.5168 12.2778 11.9989 11.7954C12.5955 11.1999 13.3663 10.908 18.6147 11.145C19.2996 11.176 19.9254 11.3142 20.4087 11.7954C21.0053 12.3909 21.3012 13.1682 21.0602 18.4001C21.0339 18.9807 20.9367 19.2958 20.855 19.506C20.315 20.8907 19.0729 21.0829 13.7929 20.8405ZM18.6726 12.8138C18.6726 13.208 18.9929 13.5286 19.3885 13.5286C19.7841 13.5286 20.105 13.208 20.105 12.8138C20.105 12.4195 19.7841 12.0992 19.3885 12.0992C18.9929 12.0992 18.6726 12.4195 18.6726 12.8138ZM13.1402 15.9928C13.1402 17.6817 14.5118 19.051 16.2038 19.051C17.8958 19.051 19.2674 17.6817 19.2674 15.9928C19.2674 14.3038 17.8958 12.9353 16.2038 12.9353C14.5118 12.9353 13.1402 14.3038 13.1402 15.9928ZM14.2153 15.9928C14.2153 14.897 15.1054 14.0079 16.2038 14.0079C17.3021 14.0079 18.1923 14.897 18.1923 15.9928C18.1923 17.0892 17.3021 17.9785 16.2038 17.9785C15.1054 17.9785 14.2153 17.0892 14.2153 15.9928Z" fill="white"/>
</svg>
