<svg width="17" height="17" viewBox="0 0 17 17" fill="none" xmlns="http://www.w3.org/2000/svg">
<circle cx="8.42605" cy="8.35866" r="7.83034" fill="white"/>
<path d="M8.42732 4.59961C7.67969 4.59961 6.96269 4.8966 6.43404 5.42525C5.90539 5.9539 5.60839 6.67091 5.60839 7.41853V9.10331L5.27623 9.43547C5.21054 9.50118 5.16581 9.58488 5.14769 9.67601C5.12957 9.76713 5.13888 9.86158 5.17443 9.94741C5.20998 10.0333 5.27018 10.1066 5.34743 10.1582C5.42467 10.2099 5.51549 10.2374 5.60839 10.2375H11.2462C11.3391 10.2374 11.43 10.2099 11.5072 10.1582C11.5844 10.1066 11.6446 10.0333 11.6802 9.94741C11.7158 9.86158 11.7251 9.76713 11.7069 9.67601C11.6888 9.58488 11.6441 9.50118 11.5784 9.43547L11.2462 9.10331V7.41853C11.2462 6.67091 10.9492 5.9539 10.4206 5.42525C9.89194 4.8966 9.17494 4.59961 8.42732 4.59961ZM8.42732 12.1167C8.0535 12.1167 7.695 11.9682 7.43068 11.7039C7.16635 11.4396 7.01785 11.0811 7.01785 10.7073H9.83678C9.83678 11.0811 9.68828 11.4396 9.42396 11.7039C9.15963 11.9682 8.80113 12.1167 8.42732 12.1167Z" fill="#202430"/>
<circle cx="10.7761" cy="6.00951" r="1.37031" fill="#FF6550" stroke="white" stroke-width="0.391517"/>
</svg>
