<svg width="109" height="32" viewBox="0 0 109 32" fill="none" xmlns="http://www.w3.org/2000/svg">
<g opacity="0.3">
<path d="M11.6341 31.6074C11.0585 31.6074 10.7701 31.3594 10.7701 30.861V30.7045C10.7701 30.3914 11.0334 29.9195 11.5587 29.291C12.1092 28.6373 12.3845 27.9823 12.3845 27.3286V6.68086H10.3943C9.81869 6.68086 9.29333 6.93008 8.81703 7.42731C8.37149 7.91675 8.00411 8.47276 7.72801 9.07552C7.4767 9.65101 7.16555 10.188 6.78978 10.6852C6.41401 11.1824 6.03824 11.4316 5.66246 11.4316H5.02461C4.32333 11.4316 4.00979 11.0512 4.08518 10.2927L4.83672 4.95319C4.91092 4.14294 5.33695 3.7372 6.11363 3.7372H25.4168C26.1671 3.7372 26.5932 4.14294 26.6925 4.95319L27.4823 10.3312C27.5314 10.672 27.4692 10.9465 27.2933 11.1559C27.1185 11.3389 26.8684 11.4304 26.5429 11.4304H25.9039C25.5293 11.4304 25.1535 11.1824 24.7777 10.684C24.402 10.1856 24.0765 9.65101 23.8012 9.07552C23.526 8.47354 23.1502 7.92454 22.6751 7.42611C22.1988 6.93008 21.6734 6.68086 21.0978 6.68086H19.1448V27.3286C19.1448 27.9823 19.408 28.6373 19.9334 29.291C20.4839 29.9195 20.7591 30.3902 20.7591 30.7045V30.861C20.7591 31.3594 20.46 31.6074 19.858 31.6074H11.6341ZM43.4287 27.3286C43.5041 27.9571 43.6417 28.4675 43.8416 28.86C44.0677 29.226 44.2796 29.462 44.4806 29.5667C44.7056 29.6715 44.9054 29.8015 45.0814 29.9592C45.2561 30.1157 45.3447 30.312 45.3447 30.548C45.3447 31.4112 43.9301 31.8434 41.1011 31.8434C39.9486 31.8434 39.0846 31.6989 38.509 31.41C37.9585 31.1235 37.6078 30.6395 37.4582 29.9592C36.5056 31.3197 34.9164 31.9999 32.6881 31.9999C30.5854 31.9999 28.8705 31.4895 27.5422 30.4685C26.2413 29.4488 25.5915 27.9703 25.5915 26.0332C25.5915 24.149 26.2413 22.6838 27.5422 21.6363C28.8454 20.5648 30.4478 20.0278 32.3506 20.0278C33.8274 20.0278 35.0911 20.3541 36.1442 21.0091V20.8911C35.8929 18.3002 35.6057 16.5472 35.279 15.6298C34.9798 14.7148 34.3779 14.2573 33.4767 14.2573C32.9011 14.2573 32.438 14.5318 32.0873 15.0808C31.7334 15.6383 31.4674 16.2474 31.2987 16.8867C31.1434 17.5515 30.8347 18.1702 30.3976 18.6927C29.9464 19.2429 29.3456 19.5174 28.5953 19.5174C27.8186 19.5174 27.1808 19.2814 26.6805 18.8107C26.2042 18.3399 25.9661 17.7247 25.9661 16.9662C25.9661 15.448 26.6925 14.3091 28.1441 13.5506C29.5958 12.7656 31.3741 12.3731 33.4767 12.3731C35.9803 12.3731 38.0458 13.0919 39.6734 14.5318C41.3249 15.9453 42.3026 17.868 42.603 20.3023L43.4287 27.3286ZM34.7536 29.9978C35.3293 29.9978 35.7924 29.71 36.143 29.1345C36.5188 28.559 36.7055 27.9041 36.7055 27.1721L36.5559 25.3662C36.3058 23.1942 35.5303 22.1083 34.2283 22.1083C33.6527 22.1083 33.1895 22.3563 32.8389 22.8547C32.4882 23.3243 32.3123 23.966 32.3123 24.7774C32.3123 26.2426 32.5253 27.4863 32.9514 28.5061C33.4013 29.5005 34.0033 29.999 34.7536 29.999V29.9978ZM46.9889 31.6074C46.4121 31.6074 46.1249 31.3594 46.1249 30.861V30.7045C46.1249 30.3914 46.3619 29.9195 46.8382 29.291C47.3384 28.6373 47.5885 27.9823 47.5885 27.3286V9.38975C47.5885 8.70952 47.3384 8.05457 46.8382 7.42731C46.3619 6.77236 46.1249 6.31486 46.1249 6.0524V5.89589C46.1249 5.60694 46.4002 5.30595 46.9507 4.99292L52.6207 2.08779C53.1473 1.85302 53.5602 1.83978 53.8605 2.04927C54.1861 2.23227 54.3488 2.52001 54.3488 2.9125V27.3286C54.3488 27.9823 54.6241 28.6373 55.1745 29.291C55.725 29.9195 56.0003 30.3902 56.0003 30.7045V30.861C56.0003 31.3594 55.7011 31.6074 55.1003 31.6074H46.9889ZM77.5844 28.3098C77.7101 28.4928 78.0858 28.8335 78.7117 29.3308C79.3627 29.828 79.6882 30.2855 79.6882 30.7045V30.861C79.6882 31.3594 79.401 31.6074 78.8242 31.6074H70.9378C70.3622 31.6074 70.0738 31.3462 70.0738 30.8225V30.7045C70.0738 30.3914 70.2616 30.011 70.6374 29.5655C71.0132 29.096 71.0886 28.6758 70.8624 28.3098L67.5582 23.1677L65.6794 24.9737V27.3286C65.6794 27.9823 65.9546 28.6373 66.5063 29.291C67.082 29.9195 67.3704 30.3902 67.3704 30.7045V30.861C67.3704 31.3594 67.07 31.6074 66.4692 31.6074H58.3566C57.7559 31.6074 57.4555 31.3594 57.4555 30.861V30.7045C57.4555 30.3914 57.7068 29.9195 58.207 29.291C58.7073 28.6373 58.9586 27.9823 58.9586 27.3286V9.38975C58.9586 8.70952 58.657 8.05457 58.0563 7.42731C57.4555 6.77236 57.1551 6.31486 57.1551 6.0524V5.89589C57.1551 5.60694 57.4304 5.30595 57.9809 4.99292L63.992 2.08779C64.5174 1.87831 64.9302 1.86627 65.2306 2.04927C65.531 2.23227 65.6818 2.52001 65.6818 2.9125V21.5581L70.7511 17.0047C71.0515 16.7952 71.164 16.534 71.0898 16.2198C71.044 15.9148 70.9138 15.629 70.714 15.3951C70.5184 15.1041 70.3181 14.8163 70.1133 14.5318C69.9122 14.2188 69.8129 13.9419 69.8129 13.7071V13.5506C69.8129 13.0269 70.1001 12.7656 70.6757 12.7656H76.6103C77.1847 12.7656 77.4731 13.0136 77.4731 13.5121V13.6686C77.4731 13.9816 77.2984 14.3091 76.9477 14.6498C76.5971 14.9628 76.0969 15.3433 75.4459 15.7875C74.9112 16.1345 74.4086 16.529 73.944 16.9662L71.5397 19.2814L77.5844 28.3098ZM85.1573 10.4492C83.8804 10.4492 82.8416 10.0832 82.0398 9.35002C81.238 8.59153 80.8383 7.64884 80.8383 6.52435C80.8383 5.39865 81.2392 4.46921 82.0398 3.7372C82.8416 2.97872 83.8804 2.59827 85.1573 2.59827C86.409 2.59827 87.4358 2.97751 88.2365 3.7372C89.0383 4.46921 89.438 5.39865 89.438 6.52435C89.438 7.64884 89.0383 8.59153 88.2365 9.35002C87.4346 10.0832 86.409 10.4492 85.1573 10.4492ZM81.1387 31.6074C80.5379 31.6074 80.2375 31.3594 80.2375 30.861V30.7045C80.2375 30.3914 80.4889 29.9063 80.9891 29.2525C81.4893 28.5988 81.7394 27.9438 81.7394 27.2901V19.8316C81.7394 19.1514 81.4893 18.4964 80.9891 17.8692C80.4877 17.2142 80.2375 16.7688 80.2375 16.5328V16.3763C80.2375 16.0632 80.5248 15.7623 81.1016 15.4733L86.7717 12.5694C87.2982 12.3334 87.7111 12.3069 88.0115 12.4911C88.3118 12.6741 88.4626 12.9751 88.4626 13.3941V27.2901C88.4626 27.9438 88.7379 28.5976 89.2884 29.2525C89.864 29.9063 90.1524 30.3902 90.1524 30.7045V30.861C90.1524 31.3582 89.8389 31.6074 89.213 31.6074H81.1387ZM99.5611 31.9999C97.6583 31.9999 96.1576 31.3715 95.0554 30.1157C93.9783 28.86 93.4398 27.0673 93.4398 24.7377V15.4348H92.0133C91.7787 15.4403 91.5507 15.3559 91.3755 15.1988C91.2233 15.0108 91.1431 14.7742 91.1493 14.5318V13.6686C91.1493 13.0666 91.4377 12.7656 92.0133 12.7656H92.7266C93.879 12.7656 94.8687 12.4117 95.6944 11.7061C96.5202 10.9717 97.0587 10.005 97.3088 8.80102C97.4345 8.12078 97.7719 7.78007 98.3224 7.78007H99.1865C99.8626 7.78007 100.2 8.12078 100.2 8.80102V12.7656H104.069C104.319 12.7656 104.519 12.8571 104.67 13.0401C104.845 13.1966 104.933 13.4061 104.933 13.6686V14.5318C104.936 14.655 104.913 14.7775 104.868 14.892C104.823 15.0065 104.756 15.1108 104.67 15.1988C104.592 15.2781 104.498 15.3401 104.394 15.3808C104.291 15.4214 104.18 15.4398 104.069 15.4348H100.2V24.8557C100.2 25.5094 100.363 26.0332 100.688 26.4256C101.014 26.7928 101.415 26.9758 101.89 26.9758C102.967 26.9758 103.793 26.4919 104.369 25.5227C104.544 25.2879 104.744 25.1567 104.97 25.1302C105.195 25.0784 105.383 25.1181 105.533 25.2482C105.709 25.3794 105.796 25.5612 105.796 25.7984C105.796 27.4466 105.234 28.8986 104.106 30.1555C103.005 31.3847 101.49 31.9999 99.5611 31.9999Z" fill="white"/>
</g>
</svg>
