<svg width="183" height="24" viewBox="0 0 183 24" fill="none" xmlns="http://www.w3.org/2000/svg">
<g opacity="0.3" clip-path="url(#clip0_235_16888)">
<path d="M156.203 9.5232V23.9856H160.792V14.344H177.572V23.9856H182.16V9.5232H156.203ZM160.267 4.83448H177.965C180.456 4.37221 182.226 2.1269 182.75 0.0136719H155.482C156.007 2.1269 157.842 4.30617 160.267 4.83448ZM142.242 23.9856C144.536 22.995 145.781 21.278 146.306 19.2969H125.658V0.0797103H121.004V23.9856H142.242ZM86.5914 4.76844H102.978C105.469 4.04202 107.501 2.1269 108.026 0.0797103H82.0686V14.2119H103.306V19.1648H86.6569C84.035 19.8912 81.8064 21.6743 80.6921 23.9856H107.894V9.5232H86.6569L86.5914 4.76844ZM46.2138 4.83448H63.9118C66.4026 4.37221 68.2379 2.1269 68.6968 0.0136719H41.3633C41.8877 2.1269 43.723 4.30617 46.2138 4.83448ZM46.2138 14.278H63.9118C66.4026 13.8157 68.2379 11.5704 68.6968 9.45717H41.3633C41.8877 11.5704 43.723 13.7497 46.2138 14.278ZM46.2138 23.9856H63.9118C66.4026 23.5233 68.2379 21.278 68.6968 19.1648H41.3633C41.8877 21.278 43.723 23.5233 46.2138 23.9856Z" fill="white"/>
<path d="M0.132812 0.0797103C0.657196 2.19294 2.49254 4.30617 4.91781 4.83448H12.3903L12.7836 4.96655V23.9196H17.4375V4.96655L17.8308 4.83448H25.3032C27.794 4.17409 29.5638 2.19294 30.0882 0.0797103V0.0136719L0.132812 0.0797103Z" fill="white"/>
</g>
<defs>
<clipPath id="clip0_235_16888">
<rect width="182.682" height="24" fill="white" transform="translate(0.132812)"/>
</clipPath>
</defs>
</svg>
