<svg width="142" height="24" viewBox="0 0 142 24" fill="none" xmlns="http://www.w3.org/2000/svg">
<path d="M115.203 9.5232V23.9856H119.792V14.344H136.572V23.9856H141.16V9.5232H115.203ZM119.267 4.83448H136.965C139.456 4.37221 141.226 2.1269 141.75 0.0136719H114.482C115.007 2.1269 116.842 4.30617 119.267 4.83448ZM101.242 23.9856C103.536 22.995 104.781 21.278 105.306 19.2969H84.658V0.0797103H80.004V23.9856H101.242ZM45.5914 4.76844H61.9784C64.4692 4.04202 66.5012 2.1269 67.0256 0.0797103H41.0686V14.2119H62.3061V19.1648H45.6569C43.035 19.8912 40.8064 21.6743 39.6921 23.9856H66.8944V9.5232H45.6569L45.5914 4.76844ZM5.21383 4.83448H22.9118C25.4026 4.37221 27.2379 2.1269 27.6968 0.0136719H0.363281C0.887665 2.1269 2.72301 4.30617 5.21383 4.83448ZM5.21383 14.278H22.9118C25.4026 13.8157 27.2379 11.5704 27.6968 9.45717H0.363281C0.887665 11.5704 2.72301 13.7497 5.21383 14.278ZM5.21383 23.9856H22.9118C25.4026 23.5233 27.2379 21.278 27.6968 19.1648H0.363281C0.887665 21.278 2.72301 23.5233 5.21383 23.9856Z" fill="white"/>
</svg>
